SplineFontDB: 3.2
FontName: Consettro
FullName: Consettro
FamilyName: Consettro
Weight: Regular
Copyright: (C) 2024, Bryndan Meyerholt
UComments: "2024-6-6: Created with FontForge (http://fontforge.org)"
Version: 1.005
ItalicAngle: 0
UnderlinePosition: -100
UnderlineWidth: 100
Ascent: 1400
Descent: 200
InvalidEm: 0
LayerCount: 2
Layer: 0 0 "Back" 1
Layer: 1 0 "Fore" 0
XUID: [1021 820 -1991800453 13151]
StyleMap: 0x0040
FSType: 0
OS2Version: 0
OS2_WeightWidthSlopeOnly: 0
OS2_UseTypoMetrics: 1
CreationTime: 1717675935
ModificationTime: 1721173513
PfmFamily: 17
TTFWeight: 400
TTFWidth: 5
LineGap: 0
VLineGap: 0
OS2TypoAscent: 1400
OS2TypoAOffset: 0
OS2TypoDescent: -200
OS2TypoDOffset: 0
OS2TypoLinegap: 0
OS2WinAscent: 1400
OS2WinAOffset: 0
OS2WinDescent: 200
OS2WinDOffset: 0
HheadAscent: 1400
HheadAOffset: 0
HheadDescent: -200
HheadDOffset: 0
OS2CapHeight: 1400
OS2XHeight: 1000
OS2Vendor: 'PfEd'
Lookup: 1 0 0 "'zero' Slashed Zero lookup 0" { "'zero' Slashed Zero lookup 0-1"  } ['zero' ('DFLT' <'dflt' > 'cyrl' <'BGR ' 'MKD ' 'SRB ' 'dflt' > 'grek' <'dflt' > 'latn' <'AZE ' 'CAT ' 'CRT ' 'KAZ ' 'LTH ' 'MOL ' 'NLD ' 'ROM ' 'TAT ' 'TRK ' 'dflt' > ) ]
Lookup: 1 0 0 "'locl' Localized Forms in Latin lookup 1" { "'locl' Localized Forms in Latin lookup 1-1"  } ['locl' ('latn' <'AZE ' 'CRT ' 'KAZ ' 'TAT ' 'TRK ' > ) ]
Lookup: 1 0 0 "'locl' Localized Forms in Latin lookup 2" { "'locl' Localized Forms in Latin lookup 2-1"  } ['locl' ('latn' <'LTH ' > ) ]
Lookup: 1 0 0 "'locl' Localized Forms in Latin lookup 3" { "'locl' Localized Forms in Latin lookup 3-1"  } ['locl' ('latn' <'MOL ' 'ROM ' > ) ]
Lookup: 1 0 0 "'locl' Localized Forms in Cyrillic lookup 4" { "'locl' Localized Forms in Cyrillic lookup 4-1" ("SRB") } ['locl' ('cyrl' <'MKD ' 'SRB ' > ) ]
Lookup: 1 0 0 "'locl' Localized Forms in Cyrillic lookup 5" { "'locl' Localized Forms in Cyrillic lookup 5-1" ("BGR") } ['locl' ('cyrl' <'BGR ' > ) ]

StartChar: .notdef
Encoding: 0 -1 0
Width: 1600
VWidth: 1000
Flags: HMW
LayerCount: 2
Fore
SplineSet
400 -200 m 1
 400 1400 l 1
 1200 1400 l 1
 1200 -200 l 1
 400 -200 l 1
500 -100 m 1
 1100 -100 l 1
 1100 1300 l 1
 500 1300 l 1
 500 -100 l 1
EndSplineSet
Validated: 1
EndChar

StartChar: exclam
Encoding: 3 33 3
Width: 1600
VWidth: 1000
Flags: HMW
LayerCount: 2
Fore
SplineSet
700 0 m 1
 700 200 l 1
 900 200 l 1
 900 0 l 1
 700 0 l 1
700 400 m 1
 700 1400 l 1
 900 1400 l 1
 900 400 l 1
 700 400 l 1
EndSplineSet
Validated: 1
EndChar

StartChar: quotedbl
Encoding: 4 34 4
Width: 1600
VWidth: 1000
Flags: HMW
LayerCount: 2
Fore
SplineSet
400 1000 m 1
 400 1400 l 1
 600 1400 l 1
 600 1000 l 1
 400 1000 l 1
1000 1000 m 1
 1000 1400 l 1
 1200 1400 l 1
 1200 1000 l 1
 1000 1000 l 1
EndSplineSet
Validated: 1
EndChar

StartChar: numbersign
Encoding: 5 35 5
Width: 1600
VWidth: 1000
Flags: HMW
LayerCount: 2
Fore
SplineSet
200 400 m 1
 229 600 l 1
 486 600 l 1
 514 800 l 1
 257 800 l 1
 286 1000 l 1
 543 1000 l 1
 600 1400 l 1
 800 1400 l 1
 743 1000 l 1
 943 1000 l 1
 1000 1400 l 1
 1200 1400 l 1
 1143 1000 l 1
 1400 1000 l 1
 1371 800 l 1
 1114 800 l 1
 1086 600 l 1
 1343 600 l 1
 1314 400 l 1
 1057 400 l 1
 1000 0 l 1
 800 0 l 1
 857 400 l 1
 657 400 l 1
 600 0 l 1
 400 0 l 1
 457 400 l 1
 200 400 l 1
686 600 m 1
 886 600 l 1
 914 800 l 1
 714 800 l 1
 686 600 l 1
EndSplineSet
Validated: 1
EndChar

StartChar: dollar
Encoding: 6 36 6
Width: 1600
VWidth: 1000
Flags: HMW
LayerCount: 2
Fore
SplineSet
200 200 m 1
 200 400 l 1
 700 400 l 1
 700 600 l 1
 400 600 l 1
 200 800 l 1
 200 1000 l 1
 400 1200 l 1
 700 1200 l 1
 700 1400 l 1
 900 1400 l 1
 900 1200 l 1
 1400 1200 l 1
 1400 1000 l 1
 900 1000 l 1
 900 800 l 1
 1200 800 l 1
 1400 600 l 1
 1400 400 l 1
 1200 200 l 1
 900 200 l 1
 900 0 l 1
 700 0 l 1
 700 200 l 1
 200 200 l 1
400 900 m 1
 500 800 l 1
 700 800 l 1
 700 1000 l 1
 500 1000 l 1
 400 900 l 1
900 400 m 1
 1100 400 l 1
 1200 500 l 1
 1100 600 l 1
 900 600 l 1
 900 400 l 1
EndSplineSet
Validated: 1
EndChar

StartChar: percent
Encoding: 7 37 7
Width: 1600
VWidth: 1000
Flags: HMW
LayerCount: 2
Fore
SplineSet
200 1200 m 1
 200 1400 l 1
 400 1400 l 1
 400 1200 l 1
 200 1200 l 1
400 0 m 1
 1000 1400 l 1
 1200 1400 l 1
 600 0 l 1
 400 0 l 1
1200 0 m 1
 1200 200 l 1
 1400 200 l 1
 1400 0 l 1
 1200 0 l 1
EndSplineSet
Validated: 1
EndChar

StartChar: ampersand
Encoding: 8 38 8
Width: 1600
VWidth: 1000
Flags: HMW
LayerCount: 2
Fore
SplineSet
200 200 m 1
 200 450 l 1
 450 700 l 1
 200 950 l 1
 200 1200 l 1
 400 1400 l 1
 800 1400 l 1
 1000 1200 l 1
 1000 950 l 1
 750 700 l 1
 975 475 l 1
 1200 700 l 1
 1400 700 l 1
 1400 600 l 1
 1125 325 l 1
 1250 200 l 1
 1400 200 l 1
 1400 0 l 1
 1150 0 l 1
 975 175 l 1
 800 0 l 1
 400 0 l 1
 200 200 l 1
400 300 m 1
 500 200 l 1
 700 200 l 1
 825 325 l 1
 600 550 l 1
 400 350 l 1
 400 300 l 1
400 1050 m 1
 600 850 l 1
 800 1050 l 1
 800 1100 l 1
 700 1200 l 1
 500 1200 l 1
 400 1100 l 1
 400 1050 l 1
EndSplineSet
Validated: 1
EndChar

StartChar: quotesingle
Encoding: 9 39 9
Width: 1600
VWidth: 1000
Flags: HMW
LayerCount: 2
Fore
SplineSet
700 1000 m 1
 700 1400 l 1
 900 1400 l 1
 900 1000 l 1
 700 1000 l 1
EndSplineSet
Validated: 1
EndChar

StartChar: parenleft
Encoding: 10 40 10
Width: 1600
VWidth: 1000
Flags: HMW
LayerCount: 2
Fore
SplineSet
500 200 m 1
 500 1000 l 1
 900 1400 l 1
 1100 1400 l 1
 1100 1300 l 1
 700 900 l 1
 700 300 l 1
 1100 -100 l 1
 1100 -200 l 1
 900 -200 l 1
 500 200 l 1
EndSplineSet
Validated: 1
EndChar

StartChar: parenright
Encoding: 11 41 11
Width: 1600
VWidth: 1000
Flags: HMW
LayerCount: 2
Fore
SplineSet
500 -100 m 1
 900 300 l 1
 900 900 l 1
 500 1300 l 1
 500 1400 l 1
 700 1400 l 1
 1100 1000 l 1
 1100 200 l 1
 700 -200 l 1
 500 -200 l 1
 500 -100 l 1
EndSplineSet
Validated: 1
EndChar

StartChar: asterisk
Encoding: 12 42 12
Width: 1600
VWidth: 1000
Flags: HMW
LayerCount: 2
Fore
SplineSet
200 600 m 1
 200 800 l 1
 600 800 l 1
 400 1000 l 1
 400 1100 l 1
 600 1100 l 1
 800 900 l 1
 1000 1100 l 1
 1200 1100 l 1
 1200 1000 l 1
 1000 800 l 1
 1400 800 l 1
 1400 600 l 1
 1000 600 l 1
 1200 400 l 1
 1200 300 l 1
 1000 300 l 1
 800 500 l 1
 600 300 l 1
 400 300 l 1
 400 400 l 1
 600 600 l 1
 200 600 l 1
EndSplineSet
Validated: 1
EndChar

StartChar: plus
Encoding: 13 43 13
Width: 1600
VWidth: 1000
Flags: HMW
LayerCount: 2
Fore
SplineSet
300 600 m 1
 300 800 l 1
 700 800 l 1
 700 1200 l 1
 900 1200 l 1
 900 800 l 1
 1300 800 l 1
 1300 600 l 1
 900 600 l 1
 900 200 l 1
 700 200 l 1
 700 600 l 1
 300 600 l 1
EndSplineSet
Validated: 1
EndChar

StartChar: comma
Encoding: 14 44 14
Width: 1600
VWidth: 1000
Flags: HMW
LayerCount: 2
Fore
SplineSet
700 0 m 1
 700 200 l 1
 900 200 l 1
 900 0 l 1
 850 -200 l 1
 700 -200 l 1
 750 0 l 1
 700 0 l 1
EndSplineSet
Validated: 1
EndChar

StartChar: hyphen
Encoding: 15 45 15
Width: 1600
VWidth: 1000
Flags: HMW
LayerCount: 2
Fore
SplineSet
300 600 m 1
 300 800 l 1
 1300 800 l 1
 1300 600 l 1
 300 600 l 1
EndSplineSet
Validated: 1
EndChar

StartChar: period
Encoding: 16 46 16
Width: 1600
VWidth: 1000
Flags: HMW
LayerCount: 2
Fore
SplineSet
700 0 m 1
 700 200 l 1
 900 200 l 1
 900 0 l 1
 700 0 l 1
EndSplineSet
Validated: 1
EndChar

StartChar: slash
Encoding: 17 47 17
Width: 1600
VWidth: 1000
Flags: HMW
LayerCount: 2
Fore
SplineSet
400 0 m 1
 1000 1400 l 1
 1200 1400 l 1
 600 0 l 1
 400 0 l 1
EndSplineSet
Validated: 1
EndChar

StartChar: zero
Encoding: 18 48 18
Width: 1600
VWidth: 1000
Flags: HMW
LayerCount: 2
Fore
SplineSet
200 400 m 1
 200 1000 l 1
 600 1400 l 1
 1000 1400 l 1
 1400 1000 l 1
 1400 400 l 1
 1000 0 l 1
 600 0 l 1
 200 400 l 1
400 500 m 1
 700 200 l 1
 900 200 l 1
 1200 500 l 1
 1200 900 l 1
 900 1200 l 1
 700 1200 l 1
 400 900 l 1
 400 500 l 1
EndSplineSet
Validated: 1
Substitution2: "'zero' Slashed Zero lookup 0-1" zero.zero
EndChar

StartChar: one
Encoding: 19 49 19
Width: 1600
VWidth: 1000
Flags: HMW
LayerCount: 2
Fore
SplineSet
200 0 m 1
 200 200 l 1
 700 200 l 1
 700 1200 l 1
 600 1200 l 1
 400 1000 l 1
 200 1000 l 1
 200 1100 l 1
 500 1400 l 1
 900 1400 l 1
 900 200 l 1
 1400 200 l 1
 1400 0 l 1
 200 0 l 1
EndSplineSet
Validated: 1
EndChar

StartChar: two
Encoding: 20 50 20
Width: 1600
VWidth: 1000
Flags: HMW
LayerCount: 2
Fore
SplineSet
200 0 m 1
 200 300 l 1
 500 600 l 1
 1000 800 l 1
 1200 1000 l 1
 1000 1200 l 1
 600 1200 l 1
 400 1000 l 1
 200 1000 l 1
 200 1100 l 1
 500 1400 l 1
 1100 1400 l 1
 1400 1100 l 1
 1400 900 l 1
 1100 600 l 1
 600 400 l 1
 400 200 l 1
 1400 200 l 1
 1400 0 l 1
 200 0 l 1
EndSplineSet
Validated: 1
EndChar

StartChar: three
Encoding: 21 51 21
Width: 1600
VWidth: 1000
Flags: HMW
LayerCount: 2
Fore
SplineSet
200 300 m 1
 200 400 l 1
 400 400 l 1
 600 200 l 1
 1000 200 l 1
 1200 400 l 1
 1000 600 l 1
 600 600 l 1
 600 800 l 1
 1000 800 l 1
 1200 1000 l 1
 1000 1200 l 1
 600 1200 l 1
 400 1000 l 1
 200 1000 l 1
 200 1100 l 1
 500 1400 l 1
 1100 1400 l 1
 1400 1100 l 1
 1400 900 l 1
 1200 700 l 1
 1400 500 l 1
 1400 300 l 1
 1100 0 l 1
 500 0 l 1
 200 300 l 1
EndSplineSet
Validated: 1
EndChar

StartChar: four
Encoding: 22 52 22
Width: 1600
VWidth: 1000
Flags: HMW
LayerCount: 2
Fore
SplineSet
200 400 m 1
 200 600 l 1
 1000 1400 l 1
 1200 1400 l 1
 1200 600 l 1
 1400 600 l 1
 1400 400 l 1
 1200 400 l 1
 1200 0 l 1
 1000 0 l 1
 1000 400 l 1
 200 400 l 1
500 600 m 1
 1000 600 l 1
 1000 1100 l 1
 500 600 l 1
EndSplineSet
Validated: 1
EndChar

StartChar: five
Encoding: 23 53 23
Width: 1600
VWidth: 1000
Flags: HMW
LayerCount: 2
Fore
SplineSet
200 300 m 1
 200 400 l 1
 400 400 l 1
 600 200 l 1
 1000 200 l 1
 1200 400 l 1
 1200 600 l 1
 1000 800 l 1
 200 800 l 1
 200 1400 l 1
 1400 1400 l 1
 1400 1200 l 1
 400 1200 l 1
 400 1000 l 1
 1100 1000 l 1
 1400 700 l 1
 1400 300 l 1
 1100 0 l 1
 500 0 l 1
 200 300 l 1
EndSplineSet
Validated: 1
EndChar

StartChar: six
Encoding: 24 54 24
Width: 1600
VWidth: 1000
Flags: HMW
LayerCount: 2
Fore
SplineSet
200 300 m 1
 200 900 l 1
 700 1400 l 1
 900 1400 l 1
 900 1300 l 1
 400 800 l 1
 1100 800 l 1
 1400 500 l 1
 1400 300 l 1
 1100 0 l 1
 500 0 l 1
 200 300 l 1
400 400 m 1
 600 200 l 1
 1000 200 l 1
 1200 400 l 1
 1000 600 l 1
 400 600 l 1
 400 400 l 1
EndSplineSet
Validated: 1
EndChar

StartChar: seven
Encoding: 25 55 25
Width: 1600
VWidth: 1000
Flags: HMW
LayerCount: 2
Fore
SplineSet
200 1200 m 1
 200 1400 l 1
 1400 1400 l 1
 1400 900 l 1
 800 300 l 1
 800 0 l 1
 600 0 l 1
 600 400 l 1
 1200 1000 l 1
 1200 1200 l 1
 200 1200 l 1
EndSplineSet
Validated: 1
EndChar

StartChar: eight
Encoding: 26 56 26
Width: 1600
VWidth: 1000
Flags: HMW
LayerCount: 2
Fore
SplineSet
200 300 m 1
 200 500 l 1
 400 700 l 1
 200 900 l 1
 200 1100 l 1
 500 1400 l 1
 1100 1400 l 1
 1400 1100 l 1
 1400 900 l 1
 1200 700 l 1
 1400 500 l 1
 1400 300 l 1
 1100 0 l 1
 500 0 l 1
 200 300 l 1
400 400 m 1
 600 200 l 1
 1000 200 l 1
 1200 400 l 1
 1000 600 l 1
 600 600 l 1
 400 400 l 1
400 1000 m 1
 600 800 l 1
 1000 800 l 1
 1200 1000 l 1
 1000 1200 l 1
 600 1200 l 1
 400 1000 l 1
EndSplineSet
Validated: 1
EndChar

StartChar: nine
Encoding: 27 57 27
Width: 1600
VWidth: 1000
Flags: HMW
LayerCount: 2
Fore
SplineSet
200 900 m 1
 200 1100 l 1
 500 1400 l 1
 1100 1400 l 1
 1400 1100 l 1
 1400 500 l 1
 900 0 l 1
 700 0 l 1
 700 100 l 1
 1200 600 l 1
 500 600 l 1
 200 900 l 1
400 1000 m 1
 600 800 l 1
 1200 800 l 1
 1200 1000 l 1
 1000 1200 l 1
 600 1200 l 1
 400 1000 l 1
EndSplineSet
Validated: 1
EndChar

StartChar: colon
Encoding: 28 58 28
Width: 1600
VWidth: 1000
Flags: HMW
LayerCount: 2
Fore
SplineSet
700 0 m 1
 700 200 l 1
 900 200 l 1
 900 0 l 1
 700 0 l 1
700 800 m 1
 700 1000 l 1
 900 1000 l 1
 900 800 l 1
 700 800 l 1
EndSplineSet
Validated: 1
EndChar

StartChar: semicolon
Encoding: 29 59 29
Width: 1600
VWidth: 1000
Flags: HMW
LayerCount: 2
Fore
SplineSet
700 0 m 1
 700 200 l 1
 900 200 l 1
 900 0 l 1
 850 -200 l 1
 700 -200 l 1
 750 0 l 1
 700 0 l 1
700 800 m 1
 700 1000 l 1
 900 1000 l 1
 900 800 l 1
 700 800 l 1
EndSplineSet
Validated: 1
EndChar

StartChar: less
Encoding: 30 60 30
Width: 1600
VWidth: 1000
Flags: HMW
LayerCount: 2
Fore
SplineSet
400 600 m 1
 400 800 l 1
 1000 1400 l 1
 1200 1400 l 1
 1200 1300 l 1
 600 700 l 1
 1200 100 l 1
 1200 0 l 1
 1000 0 l 1
 400 600 l 1
EndSplineSet
Validated: 1
EndChar

StartChar: equal
Encoding: 31 61 31
Width: 1600
VWidth: 1000
Flags: HMW
LayerCount: 2
Fore
SplineSet
300 400 m 1
 300 600 l 1
 1300 600 l 1
 1300 400 l 1
 300 400 l 1
300 800 m 1
 300 1000 l 1
 1300 1000 l 1
 1300 800 l 1
 300 800 l 1
EndSplineSet
Validated: 1
EndChar

StartChar: greater
Encoding: 32 62 32
Width: 1600
VWidth: 1000
Flags: HMW
LayerCount: 2
Fore
SplineSet
400 0 m 1
 400 100 l 1
 1000 700 l 1
 400 1300 l 1
 400 1400 l 1
 600 1400 l 1
 1200 800 l 1
 1200 600 l 1
 600 0 l 1
 400 0 l 1
EndSplineSet
Validated: 1
EndChar

StartChar: question
Encoding: 33 63 33
Width: 1600
VWidth: 1000
Flags: HMW
LayerCount: 2
Fore
SplineSet
200 1000 m 1
 200 1100 l 1
 500 1400 l 1
 1100 1400 l 1
 1400 1100 l 1
 1400 900 l 1
 900 400 l 1
 700 400 l 1
 700 500 l 1
 1200 1000 l 1
 1000 1200 l 1
 600 1200 l 1
 400 1000 l 1
 200 1000 l 1
700 0 m 1
 700 200 l 1
 900 200 l 1
 900 0 l 1
 700 0 l 1
EndSplineSet
Validated: 1
EndChar

StartChar: at
Encoding: 34 64 34
Width: 1600
VWidth: 1000
Flags: HMW
LayerCount: 2
Fore
SplineSet
200 300 m 1
 200 900 l 1
 700 1400 l 1
 1400 1400 l 1
 1400 200 l 1
 900 200 l 1
 600 500 l 1
 600 700 l 1
 900 1000 l 1
 1200 1000 l 1
 1200 1200 l 1
 800 1200 l 1
 400 800 l 1
 400 400 l 1
 800 0 l 1
 1200 0 l 1
 1200 -200 l 1
 700 -200 l 1
 200 300 l 1
800 600 m 1
 1000 400 l 1
 1200 400 l 1
 1200 800 l 1
 1000 800 l 1
 800 600 l 1
EndSplineSet
Validated: 1
EndChar

StartChar: A
Encoding: 35 65 35
Width: 1600
VWidth: 1000
Flags: HMW
LayerCount: 2
Fore
SplineSet
200 0 m 1
 200 900 l 1
 700 1400 l 1
 900 1400 l 1
 1400 900 l 1
 1400 0 l 1
 1200 0 l 1
 1200 400 l 1
 400 400 l 1
 400 0 l 1
 200 0 l 1
400 600 m 1
 1200 600 l 1
 1200 800 l 1
 800 1200 l 1
 400 800 l 1
 400 600 l 1
EndSplineSet
Validated: 1
EndChar

StartChar: B
Encoding: 36 66 36
Width: 1600
VWidth: 1000
Flags: HMW
LayerCount: 2
Fore
SplineSet
200 0 m 1
 200 1400 l 1
 1100 1400 l 1
 1400 1100 l 1
 1400 900 l 1
 1200 700 l 1
 1400 500 l 1
 1400 300 l 1
 1100 0 l 1
 200 0 l 1
400 200 m 1
 1000 200 l 1
 1200 400 l 1
 1000 600 l 1
 400 600 l 1
 400 200 l 1
400 800 m 1
 1000 800 l 1
 1200 1000 l 1
 1000 1200 l 1
 400 1200 l 1
 400 800 l 1
EndSplineSet
Validated: 1
EndChar

StartChar: C
Encoding: 37 67 37
Width: 1600
VWidth: 1000
Flags: HMW
LayerCount: 2
Fore
SplineSet
200 300 m 1
 200 1100 l 1
 500 1400 l 1
 1100 1400 l 1
 1400 1100 l 1
 1400 1000 l 1
 1200 1000 l 1
 1000 1200 l 1
 600 1200 l 1
 400 1000 l 1
 400 400 l 1
 600 200 l 1
 1000 200 l 1
 1200 400 l 1
 1400 400 l 1
 1400 300 l 1
 1100 0 l 1
 500 0 l 1
 200 300 l 1
EndSplineSet
Validated: 1
EndChar

StartChar: D
Encoding: 38 68 38
Width: 1600
VWidth: 1000
Flags: HMW
LayerCount: 2
Fore
SplineSet
200 0 m 1
 200 200 l 1
 400 200 l 1
 400 1200 l 1
 200 1200 l 1
 200 1400 l 1
 1000 1400 l 1
 1400 1000 l 1
 1400 400 l 1
 1000 0 l 1
 200 0 l 1
600 200 m 1
 900 200 l 1
 1200 500 l 1
 1200 900 l 1
 900 1200 l 1
 600 1200 l 1
 600 200 l 1
EndSplineSet
Validated: 1
EndChar

StartChar: E
Encoding: 39 69 39
Width: 1600
VWidth: 1000
Flags: HMW
LayerCount: 2
Fore
SplineSet
200 0 m 1
 200 1400 l 1
 1400 1400 l 1
 1400 1200 l 1
 400 1200 l 1
 400 800 l 1
 1200 800 l 1
 1200 600 l 1
 400 600 l 1
 400 200 l 1
 1400 200 l 1
 1400 0 l 1
 200 0 l 1
EndSplineSet
Validated: 1
EndChar

StartChar: F
Encoding: 40 70 40
Width: 1600
VWidth: 1000
Flags: HMW
LayerCount: 2
Fore
SplineSet
200 0 m 1
 200 1400 l 1
 1400 1400 l 1
 1400 1200 l 1
 400 1200 l 1
 400 800 l 1
 1200 800 l 1
 1200 600 l 1
 400 600 l 1
 400 0 l 1
 200 0 l 1
EndSplineSet
Validated: 1
EndChar

StartChar: G
Encoding: 41 71 41
Width: 1600
VWidth: 1000
Flags: HMW
LayerCount: 2
Fore
SplineSet
200 300 m 1
 200 1100 l 1
 500 1400 l 1
 1100 1400 l 1
 1400 1100 l 1
 1400 1000 l 1
 1200 1000 l 1
 1000 1200 l 1
 600 1200 l 1
 400 1000 l 1
 400 400 l 1
 600 200 l 1
 1200 200 l 1
 1200 600 l 1
 800 600 l 1
 800 800 l 1
 1400 800 l 1
 1400 0 l 1
 500 0 l 1
 200 300 l 1
EndSplineSet
Validated: 1
EndChar

StartChar: H
Encoding: 42 72 42
Width: 1600
VWidth: 1000
Flags: HMW
LayerCount: 2
Fore
SplineSet
200 0 m 1
 200 1400 l 1
 400 1400 l 1
 400 800 l 1
 1200 800 l 1
 1200 1400 l 1
 1400 1400 l 1
 1400 0 l 1
 1200 0 l 1
 1200 600 l 1
 400 600 l 1
 400 0 l 1
 200 0 l 1
EndSplineSet
Validated: 1
EndChar

StartChar: I
Encoding: 43 73 43
Width: 1600
VWidth: 1000
Flags: HMW
LayerCount: 2
Fore
SplineSet
200 0 m 1
 200 200 l 1
 700 200 l 1
 700 1200 l 1
 200 1200 l 1
 200 1400 l 1
 1400 1400 l 1
 1400 1200 l 1
 900 1200 l 1
 900 200 l 1
 1400 200 l 1
 1400 0 l 1
 200 0 l 1
EndSplineSet
Validated: 1
EndChar

StartChar: J
Encoding: 44 74 44
Width: 1600
VWidth: 1000
Flags: HMW
LayerCount: 2
Fore
SplineSet
200 300 m 1
 200 400 l 1
 400 400 l 1
 600 200 l 1
 700 200 l 1
 900 400 l 1
 900 1200 l 1
 600 1200 l 1
 600 1400 l 1
 1400 1400 l 1
 1400 1200 l 1
 1100 1200 l 1
 1100 300 l 1
 800 0 l 1
 500 0 l 1
 200 300 l 1
EndSplineSet
Validated: 1
Substitution2: "Single Substitution lookup 10-1" Jacute
EndChar

StartChar: K
Encoding: 45 75 45
Width: 1600
VWidth: 1000
Flags: HMW
LayerCount: 2
Fore
SplineSet
200 0 m 1
 200 1400 l 1
 400 1400 l 1
 400 800 l 1
 1000 1400 l 1
 1200 1400 l 1
 1200 1300 l 1
 700 800 l 1
 1400 100 l 1
 1400 0 l 1
 1200 0 l 1
 550 650 l 1
 400 500 l 1
 400 0 l 1
 200 0 l 1
EndSplineSet
Validated: 1
EndChar

StartChar: L
Encoding: 46 76 46
Width: 1600
VWidth: 1000
Flags: HMW
LayerCount: 2
Fore
SplineSet
200 0 m 1
 200 1400 l 1
 400 1400 l 1
 400 200 l 1
 1400 200 l 1
 1400 0 l 1
 200 0 l 1
EndSplineSet
Validated: 1
EndChar

StartChar: M
Encoding: 47 77 47
Width: 1600
VWidth: 1000
Flags: HMW
LayerCount: 2
Fore
SplineSet
200 0 m 1
 200 1400 l 1
 400 1400 l 1
 800 1000 l 1
 1200 1400 l 1
 1400 1400 l 1
 1400 0 l 1
 1200 0 l 1
 1200 1100 l 1
 900 800 l 1
 900 200 l 1
 700 200 l 1
 700 800 l 1
 400 1100 l 1
 400 0 l 1
 200 0 l 1
EndSplineSet
Validated: 1
EndChar

StartChar: N
Encoding: 48 78 48
Width: 1600
VWidth: 1000
Flags: HMW
LayerCount: 2
Fore
SplineSet
200 0 m 1
 200 1400 l 1
 400 1400 l 1
 400 1250 l 1
 1200 450 l 1
 1200 1400 l 1
 1400 1400 l 1
 1400 0 l 1
 1200 0 l 1
 1200 150 l 1
 400 950 l 1
 400 0 l 1
 200 0 l 1
EndSplineSet
Validated: 1
EndChar

StartChar: O
Encoding: 49 79 49
Width: 1600
VWidth: 1000
Flags: HMW
LayerCount: 2
Fore
SplineSet
200 300 m 1
 200 1100 l 1
 500 1400 l 1
 1100 1400 l 1
 1400 1100 l 1
 1400 300 l 1
 1100 0 l 1
 500 0 l 1
 200 300 l 1
400 400 m 1
 600 200 l 1
 1000 200 l 1
 1200 400 l 1
 1200 1000 l 1
 1000 1200 l 1
 600 1200 l 1
 400 1000 l 1
 400 400 l 1
EndSplineSet
Validated: 1
EndChar

StartChar: P
Encoding: 50 80 50
Width: 1600
VWidth: 1000
Flags: HMW
LayerCount: 2
Fore
SplineSet
200 0 m 1
 200 1400 l 1
 1100 1400 l 1
 1400 1100 l 1
 1400 900 l 1
 1100 600 l 1
 400 600 l 1
 400 0 l 1
 200 0 l 1
400 800 m 1
 1000 800 l 1
 1200 1000 l 1
 1000 1200 l 1
 400 1200 l 1
 400 800 l 1
EndSplineSet
Validated: 1
EndChar

StartChar: Q
Encoding: 51 81 51
Width: 1600
VWidth: 1000
Flags: HMW
LayerCount: 2
Fore
SplineSet
200 300 m 1
 200 1100 l 1
 500 1400 l 1
 1100 1400 l 1
 1400 1100 l 1
 1400 300 l 1
 1100 0 l 1
 900 0 l 1
 900 -200 l 1
 700 -200 l 1
 700 0 l 1
 500 0 l 1
 200 300 l 1
400 400 m 1
 600 200 l 1
 700 200 l 1
 700 400 l 1
 900 400 l 1
 900 200 l 1
 1000 200 l 1
 1200 400 l 1
 1200 1000 l 1
 1000 1200 l 1
 600 1200 l 1
 400 1000 l 1
 400 400 l 1
EndSplineSet
Validated: 1
EndChar

StartChar: R
Encoding: 52 82 52
Width: 1600
VWidth: 1000
Flags: HMW
LayerCount: 2
Fore
SplineSet
200 0 m 1
 200 1400 l 1
 1100 1400 l 1
 1400 1100 l 1
 1400 900 l 1
 1100 600 l 1
 900 600 l 1
 1400 100 l 1
 1400 0 l 1
 1200 0 l 1
 600 600 l 1
 400 600 l 1
 400 0 l 1
 200 0 l 1
400 800 m 1
 1000 800 l 1
 1200 1000 l 1
 1000 1200 l 1
 400 1200 l 1
 400 800 l 1
EndSplineSet
Validated: 1
EndChar

StartChar: S
Encoding: 53 83 53
Width: 1600
VWidth: 1000
Flags: HMW
LayerCount: 2
Fore
SplineSet
200 300 m 1
 200 400 l 1
 400 400 l 1
 600 200 l 1
 1000 200 l 1
 1200 400 l 1
 1000 600 l 1
 500 600 l 1
 200 900 l 1
 200 1100 l 1
 500 1400 l 1
 1100 1400 l 1
 1400 1100 l 1
 1400 1000 l 1
 1200 1000 l 1
 1000 1200 l 1
 600 1200 l 1
 400 1000 l 1
 600 800 l 1
 1100 800 l 1
 1400 500 l 1
 1400 300 l 1
 1100 0 l 1
 500 0 l 1
 200 300 l 1
EndSplineSet
Validated: 1
EndChar

StartChar: T
Encoding: 54 84 54
Width: 1600
VWidth: 1000
Flags: HMW
LayerCount: 2
Fore
SplineSet
200 1200 m 1
 200 1400 l 1
 1400 1400 l 1
 1400 1200 l 1
 900 1200 l 1
 900 0 l 1
 700 0 l 1
 700 1200 l 1
 200 1200 l 1
EndSplineSet
Validated: 1
EndChar

StartChar: U
Encoding: 55 85 55
Width: 1600
VWidth: 1000
Flags: HMW
LayerCount: 2
Fore
SplineSet
200 300 m 1
 200 1400 l 1
 400 1400 l 1
 400 400 l 1
 600 200 l 1
 1000 200 l 1
 1200 400 l 1
 1200 1400 l 1
 1400 1400 l 1
 1400 300 l 1
 1100 0 l 1
 500 0 l 1
 200 300 l 1
EndSplineSet
Validated: 1
EndChar

StartChar: V
Encoding: 56 86 56
Width: 1600
VWidth: 1000
Flags: HMW
LayerCount: 2
Fore
SplineSet
200 500 m 1
 200 1400 l 1
 400 1400 l 1
 400 600 l 1
 800 200 l 1
 1200 600 l 1
 1200 1400 l 1
 1400 1400 l 1
 1400 500 l 1
 900 0 l 1
 700 0 l 1
 200 500 l 1
EndSplineSet
Validated: 1
EndChar

StartChar: W
Encoding: 57 87 57
Width: 1600
VWidth: 1000
Flags: HMW
LayerCount: 2
Fore
SplineSet
200 250 m 1
 200 1400 l 1
 400 1400 l 1
 400 350 l 1
 550 200 l 1
 700 350 l 1
 700 1400 l 1
 900 1400 l 1
 900 350 l 1
 1050 200 l 1
 1200 350 l 1
 1200 1400 l 1
 1400 1400 l 1
 1400 250 l 1
 1150 0 l 1
 950 0 l 1
 800 150 l 1
 650 0 l 1
 450 0 l 1
 200 250 l 1
EndSplineSet
Validated: 1
EndChar

StartChar: X
Encoding: 58 88 58
Width: 1600
VWidth: 1000
Flags: HMW
LayerCount: 2
Fore
SplineSet
200 0 m 1
 200 250 l 1
 650 700 l 1
 200 1150 l 1
 200 1400 l 1
 400 1400 l 1
 400 1250 l 1
 800 850 l 1
 1200 1250 l 1
 1200 1400 l 1
 1400 1400 l 1
 1400 1150 l 1
 950 700 l 1
 1400 250 l 1
 1400 0 l 1
 1200 0 l 1
 1200 150 l 1
 800 550 l 1
 400 150 l 1
 400 0 l 1
 200 0 l 1
EndSplineSet
Validated: 1
EndChar

StartChar: Y
Encoding: 59 89 59
Width: 1600
VWidth: 1000
Flags: HMW
LayerCount: 2
Fore
SplineSet
200 900 m 1
 200 1400 l 1
 400 1400 l 1
 400 1000 l 1
 800 600 l 1
 1200 1000 l 1
 1200 1400 l 1
 1400 1400 l 1
 1400 900 l 1
 900 400 l 1
 900 0 l 1
 700 0 l 1
 700 400 l 1
 200 900 l 1
EndSplineSet
Validated: 1
EndChar

StartChar: Z
Encoding: 60 90 60
Width: 1600
VWidth: 1000
Flags: HMW
LayerCount: 2
Fore
SplineSet
200 0 m 1
 200 250 l 1
 1150 1200 l 1
 200 1200 l 1
 200 1400 l 1
 1400 1400 l 1
 1400 1150 l 1
 450 200 l 1
 1400 200 l 1
 1400 0 l 1
 200 0 l 1
EndSplineSet
Validated: 1
EndChar

StartChar: bracketleft
Encoding: 61 91 61
Width: 1600
VWidth: 1000
Flags: HMW
LayerCount: 2
Fore
SplineSet
500 -200 m 1
 500 1400 l 1
 1100 1400 l 1
 1100 1200 l 1
 700 1200 l 1
 700 0 l 1
 1100 0 l 1
 1100 -200 l 1
 500 -200 l 1
EndSplineSet
Validated: 1
EndChar

StartChar: backslash
Encoding: 62 92 62
Width: 1600
VWidth: 1000
Flags: HMW
LayerCount: 2
Fore
SplineSet
400 1400 m 1
 600 1400 l 1
 1200 0 l 1
 1000 0 l 1
 400 1400 l 1
EndSplineSet
Validated: 1
EndChar

StartChar: bracketright
Encoding: 63 93 63
Width: 1600
VWidth: 1000
Flags: HMW
LayerCount: 2
Fore
SplineSet
500 0 m 1
 900 0 l 1
 900 1200 l 1
 500 1200 l 1
 500 1400 l 1
 1100 1400 l 1
 1100 -200 l 1
 500 -200 l 1
 500 0 l 1
EndSplineSet
Validated: 1
EndChar

StartChar: asciicircum
Encoding: 64 94 64
Width: 1600
VWidth: 1000
Flags: HMW
LayerCount: 2
Fore
SplineSet
300 900 m 1
 300 1000 l 1
 700 1400 l 1
 900 1400 l 1
 1300 1000 l 1
 1300 900 l 1
 1100 900 l 1
 800 1200 l 1
 500 900 l 1
 300 900 l 1
EndSplineSet
Validated: 1
EndChar

StartChar: underscore
Encoding: 65 95 65
Width: 1600
VWidth: 1000
Flags: HMW
LayerCount: 2
Fore
SplineSet
200 0 m 1
 1400 0 l 1
 1400 -200 l 1
 200 -200 l 1
 200 0 l 1
EndSplineSet
Validated: 1
EndChar

StartChar: grave
Encoding: 66 96 66
Width: 1600
VWidth: 1000
Flags: HMW
LayerCount: 2
Fore
SplineSet
500 1300 m 1
 500 1400 l 1
 700 1400 l 1
 1100 1000 l 1
 1100 900 l 1
 900 900 l 1
 500 1300 l 1
EndSplineSet
Validated: 1
EndChar

StartChar: a
Encoding: 67 97 67
Width: 1600
VWidth: 1000
Flags: HMW
LayerCount: 2
Fore
SplineSet
200 200 m 1
 200 400 l 1
 400 600 l 1
 1200 600 l 1
 1000 800 l 1
 400 800 l 1
 400 1000 l 1
 1100 1000 l 1
 1400 700 l 1
 1400 0 l 1
 400 0 l 1
 200 200 l 1
400 300 m 1
 500 200 l 1
 1200 200 l 1
 1200 400 l 1
 500 400 l 1
 400 300 l 1
EndSplineSet
Validated: 1
EndChar

StartChar: b
Encoding: 68 98 68
Width: 1600
VWidth: 1000
Flags: HMW
LayerCount: 2
Fore
SplineSet
200 0 m 1
 200 1400 l 1
 400 1400 l 1
 400 1000 l 1
 1100 1000 l 1
 1400 700 l 1
 1400 300 l 1
 1100 0 l 1
 200 0 l 1
400 200 m 1
 1000 200 l 1
 1200 400 l 1
 1200 600 l 1
 1000 800 l 1
 400 800 l 1
 400 200 l 1
EndSplineSet
Validated: 1
EndChar

StartChar: c
Encoding: 69 99 69
Width: 1600
VWidth: 1000
Flags: HMW
LayerCount: 2
Fore
SplineSet
200 300 m 1
 200 700 l 1
 500 1000 l 1
 1100 1000 l 1
 1400 700 l 1
 1400 600 l 1
 1200 600 l 1
 1000 800 l 1
 600 800 l 1
 400 600 l 1
 400 400 l 1
 600 200 l 1
 1000 200 l 1
 1200 400 l 1
 1400 400 l 1
 1400 300 l 1
 1100 0 l 1
 500 0 l 1
 200 300 l 1
EndSplineSet
Validated: 1
EndChar

StartChar: d
Encoding: 70 100 70
Width: 1600
VWidth: 1000
Flags: HMW
LayerCount: 2
Fore
SplineSet
200 300 m 1
 200 700 l 1
 500 1000 l 1
 1200 1000 l 1
 1200 1400 l 1
 1400 1400 l 1
 1400 0 l 1
 500 0 l 1
 200 300 l 1
400 400 m 1
 600 200 l 1
 1200 200 l 1
 1200 800 l 1
 600 800 l 1
 400 600 l 1
 400 400 l 1
EndSplineSet
Validated: 1
EndChar

StartChar: e
Encoding: 71 101 71
Width: 1600
VWidth: 1000
Flags: HMW
LayerCount: 2
Fore
SplineSet
200 300 m 1
 200 700 l 1
 500 1000 l 1
 1100 1000 l 1
 1400 700 l 1
 1400 400 l 1
 400 400 l 1
 600 200 l 1
 1400 200 l 1
 1400 0 l 1
 500 0 l 1
 200 300 l 1
400 600 m 1
 1200 600 l 1
 1000 800 l 1
 600 800 l 1
 400 600 l 1
EndSplineSet
Validated: 1
EndChar

StartChar: f
Encoding: 72 102 72
Width: 1600
VWidth: 1000
Flags: HMW
LayerCount: 2
Fore
SplineSet
200 800 m 1
 200 1000 l 1
 700 1000 l 1
 700 1100 l 1
 1000 1400 l 1
 1400 1400 l 1
 1400 1200 l 1
 1100 1200 l 1
 900 1000 l 1
 1400 1000 l 1
 1400 800 l 1
 900 800 l 1
 900 0 l 1
 700 0 l 1
 700 800 l 1
 200 800 l 1
EndSplineSet
Validated: 1
EndChar

StartChar: g
Encoding: 73 103 73
Width: 1600
VWidth: 1000
Flags: HMW
LayerCount: 2
Fore
SplineSet
200 -50 m 1
 200 150 l 1
 350 300 l 1
 500 300 l 1
 500 100 l 1
 450 100 l 1
 400 50 l 1
 450 0 l 1
 1150 0 l 1
 1200 50 l 1
 1150 100 l 1
 800 100 l 1
 800 500 l 1
 350 500 l 1
 200 650 l 1
 200 850 l 1
 350 1000 l 1
 800 1000 l 1
 1000 800 l 1
 1000 700 l 1
 1100 700 l 1
 1200 800 l 1
 1200 1000 l 1
 1400 1000 l 1
 1400 700 l 1
 1200 500 l 1
 1000 500 l 1
 1000 300 l 1
 1250 300 l 1
 1400 150 l 1
 1400 -50 l 1
 1250 -200 l 1
 350 -200 l 1
 200 -50 l 1
400 750 m 1
 450 700 l 1
 800 700 l 1
 700 800 l 1
 450 800 l 1
 400 750 l 1
EndSplineSet
Validated: 1
EndChar

StartChar: h
Encoding: 74 104 74
Width: 1600
VWidth: 1000
Flags: HMW
LayerCount: 2
Fore
SplineSet
200 0 m 1
 200 1400 l 1
 400 1400 l 1
 400 1000 l 1
 1100 1000 l 1
 1400 700 l 1
 1400 0 l 1
 1200 0 l 1
 1200 600 l 1
 1000 800 l 1
 400 800 l 1
 400 0 l 1
 200 0 l 1
EndSplineSet
Validated: 1
EndChar

StartChar: i
Encoding: 75 105 75
Width: 1600
VWidth: 1000
Flags: HMW
LayerCount: 2
Fore
SplineSet
200 0 m 1
 200 200 l 1
 700 200 l 1
 700 800 l 1
 200 800 l 1
 200 1000 l 1
 900 1000 l 1
 900 200 l 1
 1400 200 l 1
 1400 0 l 1
 200 0 l 1
700 1200 m 1
 700 1400 l 1
 900 1400 l 1
 900 1200 l 1
 700 1200 l 1
EndSplineSet
Validated: 1
Substitution2: "'locl' Localized Forms in Latin lookup 1-1" i.locl
EndChar

StartChar: j
Encoding: 76 106 76
Width: 1600
VWidth: 1000
Flags: HMW
LayerCount: 2
Fore
SplineSet
200 100 m 1
 200 200 l 1
 400 200 l 1
 600 0 l 1
 1000 0 l 1
 1200 200 l 1
 1200 800 l 1
 200 800 l 1
 200 1000 l 1
 1400 1000 l 1
 1400 100 l 1
 1100 -200 l 1
 500 -200 l 1
 200 100 l 1
700 1200 m 1
 700 1400 l 1
 900 1400 l 1
 900 1200 l 1
 700 1200 l 1
EndSplineSet
Validated: 1
Substitution2: "Single Substitution lookup 10-1" jacute
EndChar

StartChar: k
Encoding: 77 107 77
Width: 1600
VWidth: 1000
Flags: HMW
LayerCount: 2
Fore
SplineSet
200 0 m 1
 200 1400 l 1
 400 1400 l 1
 400 400 l 1
 1000 1000 l 1
 1200 1000 l 1
 1200 900 l 1
 900 600 l 1
 1400 100 l 1
 1400 0 l 1
 1200 0 l 1
 750 450 l 1
 400 100 l 1
 400 0 l 1
 200 0 l 1
EndSplineSet
Validated: 1
EndChar

StartChar: l
Encoding: 78 108 78
Width: 1600
VWidth: 1000
Flags: HMW
LayerCount: 2
Fore
SplineSet
200 0 m 1
 200 200 l 1
 700 200 l 1
 700 1200 l 1
 200 1200 l 1
 200 1400 l 1
 900 1400 l 1
 900 200 l 1
 1400 200 l 1
 1400 0 l 1
 200 0 l 1
EndSplineSet
Validated: 1
EndChar

StartChar: m
Encoding: 79 109 79
Width: 1600
VWidth: 1000
Flags: HMW
LayerCount: 2
Fore
SplineSet
200 0 m 1
 200 1000 l 1
 1100 1000 l 1
 1400 700 l 1
 1400 0 l 1
 1200 0 l 1
 1200 600 l 1
 1000 800 l 1
 900 800 l 1
 900 0 l 1
 700 0 l 1
 700 800 l 1
 400 800 l 1
 400 0 l 1
 200 0 l 1
EndSplineSet
Validated: 1
EndChar

StartChar: n
Encoding: 80 110 80
Width: 1600
VWidth: 1000
Flags: HMW
LayerCount: 2
Fore
SplineSet
200 0 m 1
 200 1000 l 1
 1100 1000 l 1
 1400 700 l 1
 1400 0 l 1
 1200 0 l 1
 1200 600 l 1
 1000 800 l 1
 400 800 l 1
 400 0 l 1
 200 0 l 1
EndSplineSet
Validated: 1
EndChar

StartChar: o
Encoding: 81 111 81
Width: 1600
VWidth: 1000
Flags: HMW
LayerCount: 2
Fore
SplineSet
200 300 m 1
 200 700 l 1
 500 1000 l 1
 1100 1000 l 1
 1400 700 l 1
 1400 300 l 1
 1100 0 l 1
 500 0 l 1
 200 300 l 1
400 400 m 1
 600 200 l 1
 1000 200 l 1
 1200 400 l 1
 1200 600 l 1
 1000 800 l 1
 600 800 l 1
 400 600 l 1
 400 400 l 1
EndSplineSet
Validated: 1
EndChar

StartChar: p
Encoding: 82 112 82
Width: 1600
VWidth: 1000
Flags: HMW
LayerCount: 2
Fore
SplineSet
200 -200 m 1
 200 1000 l 1
 1100 1000 l 1
 1400 700 l 1
 1400 500 l 1
 1100 200 l 1
 400 200 l 1
 400 -200 l 1
 200 -200 l 1
400 400 m 1
 1000 400 l 1
 1200 600 l 1
 1000 800 l 1
 400 800 l 1
 400 400 l 1
EndSplineSet
Validated: 1
EndChar

StartChar: q
Encoding: 83 113 83
Width: 1600
VWidth: 1000
Flags: HMW
LayerCount: 2
Fore
SplineSet
200 500 m 1
 200 700 l 1
 500 1000 l 1
 1400 1000 l 1
 1400 -200 l 1
 1200 -200 l 1
 1200 200 l 1
 500 200 l 1
 200 500 l 1
400 600 m 1
 600 400 l 1
 1200 400 l 1
 1200 800 l 1
 600 800 l 1
 400 600 l 1
EndSplineSet
Validated: 1
EndChar

StartChar: r
Encoding: 84 114 84
Width: 1600
VWidth: 1000
Flags: HMW
LayerCount: 2
Fore
SplineSet
200 0 m 1
 200 200 l 1
 400 200 l 1
 400 800 l 1
 200 800 l 1
 200 1000 l 1
 1100 1000 l 1
 1400 700 l 1
 1400 600 l 1
 1200 600 l 1
 1000 800 l 1
 600 800 l 1
 600 200 l 1
 800 200 l 1
 800 0 l 1
 200 0 l 1
EndSplineSet
Validated: 1
EndChar

StartChar: s
Encoding: 85 115 85
Width: 1600
VWidth: 1000
Flags: HMW
LayerCount: 2
Fore
SplineSet
200 0 m 1
 200 200 l 1
 1100 200 l 1
 1200 300 l 1
 1100 400 l 1
 400 400 l 1
 200 600 l 1
 200 800 l 1
 400 1000 l 1
 1400 1000 l 1
 1400 800 l 1
 500 800 l 1
 400 700 l 1
 500 600 l 1
 1200 600 l 1
 1400 400 l 1
 1400 200 l 1
 1200 0 l 1
 200 0 l 1
EndSplineSet
Validated: 1
EndChar

StartChar: t
Encoding: 86 116 86
Width: 1600
VWidth: 1000
Flags: HMW
LayerCount: 2
Fore
SplineSet
200 800 m 1
 200 1000 l 1
 700 1000 l 1
 700 1400 l 1
 900 1400 l 1
 900 1000 l 1
 1400 1000 l 1
 1400 800 l 1
 900 800 l 1
 900 0 l 1
 700 0 l 1
 700 800 l 1
 200 800 l 1
EndSplineSet
Validated: 1
EndChar

StartChar: u
Encoding: 87 117 87
Width: 1600
VWidth: 1000
Flags: HMW
LayerCount: 2
Fore
SplineSet
200 300 m 1
 200 1000 l 1
 400 1000 l 1
 400 400 l 1
 600 200 l 1
 1200 200 l 1
 1200 1000 l 1
 1400 1000 l 1
 1400 0 l 1
 500 0 l 1
 200 300 l 1
EndSplineSet
Validated: 1
EndChar

StartChar: v
Encoding: 88 118 88
Width: 1600
VWidth: 1000
Flags: HMW
LayerCount: 2
Fore
SplineSet
200 500 m 1
 200 1000 l 1
 400 1000 l 1
 400 600 l 1
 800 200 l 1
 1200 600 l 1
 1200 1000 l 1
 1400 1000 l 1
 1400 500 l 1
 900 0 l 1
 700 0 l 1
 200 500 l 1
EndSplineSet
Validated: 1
EndChar

StartChar: w
Encoding: 89 119 89
Width: 1600
VWidth: 1000
Flags: HMW
LayerCount: 2
Fore
SplineSet
200 250 m 1
 200 1000 l 1
 400 1000 l 1
 400 350 l 1
 550 200 l 1
 700 350 l 1
 700 1000 l 1
 900 1000 l 1
 900 350 l 1
 1050 200 l 1
 1200 350 l 1
 1200 1000 l 1
 1400 1000 l 1
 1400 250 l 1
 1150 0 l 1
 950 0 l 1
 800 150 l 1
 650 0 l 1
 450 0 l 1
 200 250 l 1
EndSplineSet
Validated: 1
EndChar

StartChar: x
Encoding: 90 120 90
Width: 1600
VWidth: 1000
Flags: HMW
LayerCount: 2
Fore
SplineSet
200 800 m 1
 200 1000 l 1
 450 1000 l 1
 800 650 l 1
 1150 1000 l 1
 1350 1000 l 1
 1350 900 l 1
 950 500 l 1
 1250 200 l 1
 1400 200 l 1
 1400 0 l 1
 1150 0 l 1
 800 350 l 1
 450 0 l 1
 250 0 l 1
 250 100 l 1
 650 500 l 1
 350 800 l 1
 200 800 l 1
EndSplineSet
Validated: 1
EndChar

StartChar: y
Encoding: 91 121 91
Width: 1600
VWidth: 1000
Flags: HMW
LayerCount: 2
Fore
SplineSet
200 600 m 1
 200 1000 l 1
 400 1000 l 1
 400 700 l 1
 800 300 l 1
 1200 700 l 1
 1200 1000 l 1
 1400 1000 l 1
 1400 600 l 1
 600 -200 l 1
 400 -200 l 1
 400 -100 l 1
 650 150 l 1
 200 600 l 1
EndSplineSet
Validated: 1
EndChar

StartChar: z
Encoding: 92 122 92
Width: 1600
VWidth: 1000
Flags: HMW
LayerCount: 2
Fore
SplineSet
200 0 m 1
 200 200 l 1
 500 500 l 1
 1000 700 l 1
 1100 800 l 1
 200 800 l 1
 200 1000 l 1
 1400 1000 l 1
 1400 800 l 1
 1100 500 l 1
 600 300 l 1
 500 200 l 1
 1400 200 l 1
 1400 0 l 1
 200 0 l 1
EndSplineSet
Validated: 1
EndChar

StartChar: braceleft
Encoding: 93 123 93
Width: 1600
VWidth: 1000
Flags: HMW
LayerCount: 2
Fore
SplineSet
500 500 m 1
 500 700 l 1
 600 700 l 1
 700 800 l 1
 700 850 l 1
 600 950 l 1
 600 1200 l 1
 800 1400 l 1
 1100 1400 l 1
 1100 1200 l 1
 900 1200 l 1
 800 1100 l 1
 800 1050 l 1
 900 950 l 1
 900 700 l 1
 800 600 l 1
 900 500 l 1
 900 250 l 1
 800 150 l 1
 800 100 l 1
 900 0 l 1
 1100 0 l 1
 1100 -200 l 1
 800 -200 l 1
 600 0 l 1
 600 250 l 1
 700 350 l 1
 700 400 l 1
 600 500 l 1
 500 500 l 1
EndSplineSet
Validated: 1
EndChar

StartChar: bar
Encoding: 94 124 94
Width: 1600
VWidth: 1000
Flags: HMW
LayerCount: 2
Fore
SplineSet
700 -200 m 1
 700 1400 l 1
 900 1400 l 1
 900 -200 l 1
 700 -200 l 1
EndSplineSet
Validated: 1
EndChar

StartChar: braceright
Encoding: 95 125 95
Width: 1600
VWidth: 1000
Flags: HMW
LayerCount: 2
Fore
SplineSet
500 0 m 1
 700 0 l 1
 800 100 l 1
 800 150 l 1
 700 250 l 1
 700 500 l 1
 800 600 l 1
 700 700 l 1
 700 950 l 1
 800 1050 l 1
 800 1100 l 1
 700 1200 l 1
 500 1200 l 1
 500 1400 l 1
 800 1400 l 1
 1000 1200 l 1
 1000 950 l 1
 900 850 l 1
 900 800 l 1
 1000 700 l 1
 1100 700 l 1
 1100 500 l 1
 1000 500 l 1
 900 400 l 1
 900 350 l 1
 1000 250 l 1
 1000 0 l 1
 800 -200 l 1
 500 -200 l 1
 500 0 l 1
EndSplineSet
Validated: 1
EndChar

StartChar: asciitilde
Encoding: 96 126 96
Width: 1600
VWidth: 1000
Flags: HMW
LayerCount: 2
Fore
SplineSet
200 600 m 1
 200 700 l 1
 400 900 l 1
 750 900 l 1
 950 700 l 1
 1100 700 l 1
 1200 800 l 1
 1400 800 l 1
 1400 700 l 1
 1200 500 l 1
 850 500 l 1
 650 700 l 1
 500 700 l 1
 400 600 l 1
 200 600 l 1
EndSplineSet
Validated: 1
EndChar

StartChar: Euro
Encoding: 97 8364 97
Width: 1600
VWidth: 1000
Flags: HMW
LayerCount: 2
Fore
SplineSet
200 400 m 1
 200 600 l 1
 400 600 l 1
 400 800 l 1
 200 800 l 1
 200 1000 l 1
 400 1000 l 1
 400 1100 l 1
 700 1400 l 1
 1100 1400 l 1
 1400 1100 l 1
 1400 1000 l 1
 1200 1000 l 1
 1000 1200 l 1
 800 1200 l 1
 600 1000 l 1
 800 1000 l 1
 800 800 l 1
 600 800 l 1
 600 600 l 1
 800 600 l 1
 800 400 l 1
 600 400 l 1
 800 200 l 1
 1000 200 l 1
 1200 400 l 1
 1400 400 l 1
 1400 300 l 1
 1100 0 l 1
 700 0 l 1
 400 300 l 1
 400 400 l 1
 200 400 l 1
EndSplineSet
Validated: 1
EndChar

StartChar: quotesinglbase
Encoding: 98 8218 98
Width: 1600
VWidth: 1000
Flags: HMW
LayerCount: 2
Fore
SplineSet
700 0 m 1
 700 200 l 1
 900 200 l 1
 900 0 l 1
 850 -200 l 1
 700 -200 l 1
 750 0 l 1
 700 0 l 1
EndSplineSet
Validated: 1
EndChar

StartChar: florin
Encoding: 99 402 99
Width: 1600
VWidth: 1000
Flags: HMW
LayerCount: 2
Fore
SplineSet
200 0 m 1
 500 0 l 1
 700 200 l 1
 700 800 l 1
 200 800 l 1
 200 1000 l 1
 700 1000 l 1
 700 1100 l 1
 1000 1400 l 1
 1400 1400 l 1
 1400 1200 l 1
 1100 1200 l 1
 900 1000 l 1
 1400 1000 l 1
 1400 800 l 1
 900 800 l 1
 900 100 l 1
 600 -200 l 1
 200 -200 l 1
 200 0 l 1
EndSplineSet
Validated: 1
EndChar

StartChar: quotedblbase
Encoding: 100 8222 100
Width: 1600
VWidth: 1000
Flags: HMW
LayerCount: 2
Fore
SplineSet
400 -0 m 1
 400 200 l 1
 600 200 l 1
 600 -0 l 1
 550 -200 l 1
 400 -200 l 1
 450 -0 l 1
 400 -0 l 1
1000 -0 m 1
 1000 200 l 1
 1200 200 l 1
 1200 -0 l 1
 1150 -200 l 1
 1000 -200 l 1
 1050 -0 l 1
 1000 -0 l 1
EndSplineSet
Validated: 1
EndChar

StartChar: ellipsis
Encoding: 101 8230 101
Width: 1600
VWidth: 1000
Flags: HMW
LayerCount: 2
Fore
SplineSet
200 0 m 1
 200 200 l 1
 400 200 l 1
 400 0 l 1
 200 0 l 1
700 0 m 1
 700 200 l 1
 900 200 l 1
 900 0 l 1
 700 0 l 1
1200 0 m 1
 1200 200 l 1
 1400 200 l 1
 1400 0 l 1
 1200 0 l 1
EndSplineSet
Validated: 1
EndChar

StartChar: dagger
Encoding: 102 8224 102
Width: 1600
VWidth: 1000
Flags: HMW
LayerCount: 2
Fore
SplineSet
400 1000 m 1
 400 1200 l 1
 700 1200 l 1
 700 1400 l 1
 900 1400 l 1
 900 1200 l 1
 1200 1200 l 1
 1200 1000 l 1
 900 1000 l 1
 900 400 l 1
 700 400 l 1
 700 1000 l 1
 400 1000 l 1
EndSplineSet
Validated: 1
EndChar

StartChar: daggerdbl
Encoding: 103 8225 103
Width: 1600
VWidth: 1000
Flags: HMW
LayerCount: 2
Fore
SplineSet
400 600 m 1
 400 800 l 1
 700 800 l 1
 700 1000 l 1
 400 1000 l 1
 400 1200 l 1
 700 1200 l 1
 700 1400 l 1
 900 1400 l 1
 900 1200 l 1
 1200 1200 l 1
 1200 1000 l 1
 900 1000 l 1
 900 800 l 1
 1200 800 l 1
 1200 600 l 1
 900 600 l 1
 900 400 l 1
 700 400 l 1
 700 600 l 1
 400 600 l 1
EndSplineSet
Validated: 1
EndChar

StartChar: circumflex
Encoding: 104 710 104
Width: 1600
VWidth: 1000
Flags: HMW
LayerCount: 2
Fore
SplineSet
500 1100 m 1
 500 1200 l 1
 700 1400 l 1
 900 1400 l 1
 1100 1200 l 1
 1100 1100 l 1
 900 1100 l 1
 800 1200 l 1
 700 1100 l 1
 500 1100 l 1
EndSplineSet
Validated: 1
EndChar

StartChar: perthousand
Encoding: 105 8240 105
Width: 1600
VWidth: 1000
Flags: HMW
LayerCount: 2
Fore
SplineSet
200 0 m 1
 800 1400 l 1
 1000 1400 l 1
 400 0 l 1
 200 0 l 1
200 1200 m 1
 200 1400 l 1
 400 1400 l 1
 400 1200 l 1
 200 1200 l 1
800 0 m 1
 800 200 l 1
 1000 200 l 1
 1000 0 l 1
 800 0 l 1
1200 0 m 1
 1200 200 l 1
 1400 200 l 1
 1400 0 l 1
 1200 0 l 1
EndSplineSet
Validated: 1
EndChar

StartChar: Scaron
Encoding: 106 352 106
Width: 1600
VWidth: 1000
Flags: HMW
LayerCount: 2
Fore
SplineSet
200 200 m 1
 200 300 l 1
 400 300 l 1
 500 200 l 1
 1100 200 l 1
 1200 300 l 1
 1100 400 l 1
 400 400 l 1
 200 600 l 1
 200 800 l 1
 400 1000 l 1
 1200 1000 l 1
 1400 800 l 1
 1400 700 l 1
 1200 700 l 1
 1100 800 l 1
 500 800 l 1
 400 700 l 1
 500 600 l 1
 1200 600 l 1
 1400 400 l 1
 1400 200 l 1
 1200 0 l 1
 400 0 l 1
 200 200 l 1
500 1300 m 1
 500 1400 l 1
 700 1400 l 1
 800 1300 l 1
 900 1400 l 1
 1100 1400 l 1
 1100 1300 l 1
 900 1100 l 1
 700 1100 l 1
 500 1300 l 1
EndSplineSet
Validated: 1
EndChar

StartChar: guilsinglleft
Encoding: 107 8249 107
Width: 1600
VWidth: 1000
Flags: HMW
LayerCount: 2
Fore
SplineSet
500 600 m 1
 500 800 l 1
 900 1200 l 1
 1100 1200 l 1
 1100 1100 l 1
 700 700 l 1
 1100 300 l 1
 1100 200 l 1
 900 200 l 1
 500 600 l 1
EndSplineSet
Validated: 1
EndChar

StartChar: OE
Encoding: 108 338 108
Width: 1600
VWidth: 1000
Flags: HMW
LayerCount: 2
Fore
SplineSet
200 300 m 1
 200 1100 l 1
 500 1400 l 1
 1400 1400 l 1
 1400 1200 l 1
 900 1200 l 1
 900 800 l 1
 1200 800 l 1
 1200 600 l 1
 900 600 l 1
 900 200 l 1
 1400 200 l 1
 1400 0 l 1
 500 0 l 1
 200 300 l 1
400 400 m 1
 600 200 l 1
 700 200 l 1
 700 1200 l 1
 600 1200 l 1
 400 1000 l 1
 400 400 l 1
EndSplineSet
Validated: 1
EndChar

StartChar: Zcaron
Encoding: 109 381 109
Width: 1600
VWidth: 1000
Flags: HMW
LayerCount: 2
Fore
SplineSet
200 0 m 1
 200 200 l 1
 500 500 l 1
 1000 700 l 1
 1100 800 l 1
 200 800 l 1
 200 1000 l 1
 1400 1000 l 1
 1400 800 l 1
 1100 500 l 1
 600 300 l 1
 500 200 l 1
 1400 200 l 1
 1400 0 l 1
 200 0 l 1
500 1300 m 1
 500 1400 l 1
 700 1400 l 1
 800 1300 l 1
 900 1400 l 1
 1100 1400 l 1
 1100 1300 l 1
 900 1100 l 1
 700 1100 l 1
 500 1300 l 1
EndSplineSet
Validated: 1
EndChar

StartChar: quoteleft
Encoding: 110 8216 110
Width: 1600
VWidth: 1000
Flags: HMW
LayerCount: 2
Fore
SplineSet
700 1000 m 1
 700 1200 l 1
 750 1400 l 1
 900 1400 l 1
 850 1200 l 1
 900 1200 l 1
 900 1000 l 1
 700 1000 l 1
EndSplineSet
Validated: 1
EndChar

StartChar: quoteright
Encoding: 111 8217 111
Width: 1600
VWidth: 1000
Flags: HMW
LayerCount: 2
Fore
SplineSet
700 1000 m 1
 750 1200 l 1
 700 1200 l 1
 700 1400 l 1
 900 1400 l 1
 900 1200 l 1
 850 1000 l 1
 700 1000 l 1
EndSplineSet
Validated: 1
EndChar

StartChar: quotedblleft
Encoding: 112 8220 112
Width: 1600
VWidth: 1000
Flags: HMW
LayerCount: 2
Fore
SplineSet
400 1000 m 1
 400 1200 l 1
 450 1400 l 1
 600 1400 l 1
 550 1200 l 1
 600 1200 l 1
 600 1000 l 1
 400 1000 l 1
1000 1000 m 1
 1000 1200 l 1
 1050 1400 l 1
 1200 1400 l 1
 1150 1200 l 1
 1200 1200 l 1
 1200 1000 l 1
 1000 1000 l 1
EndSplineSet
Validated: 1
EndChar

StartChar: quotedblright
Encoding: 113 8221 113
Width: 1600
VWidth: 1000
Flags: HMW
LayerCount: 2
Fore
SplineSet
400 1000 m 1
 450 1200 l 1
 400 1200 l 1
 400 1400 l 1
 600 1400 l 1
 600 1200 l 1
 550 1000 l 1
 400 1000 l 1
1000 1000 m 1
 1050 1200 l 1
 1000 1200 l 1
 1000 1400 l 1
 1200 1400 l 1
 1200 1200 l 1
 1150 1000 l 1
 1000 1000 l 1
EndSplineSet
Validated: 1
EndChar

StartChar: bullet
Encoding: 114 8226 114
Width: 1600
VWidth: 1000
Flags: HMW
LayerCount: 2
Fore
SplineSet
600 500 m 1
 600 700 l 1
 700 800 l 1
 900 800 l 1
 1000 700 l 1
 1000 500 l 1
 900 400 l 1
 700 400 l 1
 600 500 l 1
EndSplineSet
Validated: 1
EndChar

StartChar: endash
Encoding: 115 8211 115
Width: 1600
VWidth: 1000
Flags: HMW
LayerCount: 2
Fore
SplineSet
400 600 m 1
 400 800 l 1
 1200 800 l 1
 1200 600 l 1
 400 600 l 1
EndSplineSet
Validated: 1
EndChar

StartChar: emdash
Encoding: 116 8212 116
Width: 1600
VWidth: 1000
Flags: HMW
LayerCount: 2
Fore
SplineSet
0 600 m 1
 0 800 l 1
 1600 800 l 1
 1600 600 l 1
 0 600 l 1
EndSplineSet
Validated: 1
EndChar

StartChar: tilde
Encoding: 117 732 117
Width: 1600
VWidth: 1000
Flags: HMW
LayerCount: 2
Fore
SplineSet
400 1100 m 1
 400 1300 l 1
 500 1400 l 1
 600 1400 l 1
 1000 1300 l 1
 1000 1400 l 1
 1200 1400 l 1
 1200 1200 l 1
 1100 1100 l 1
 1000 1100 l 1
 600 1200 l 1
 600 1100 l 1
 400 1100 l 1
EndSplineSet
Validated: 1
EndChar

StartChar: trademark
Encoding: 118 8482 118
Width: 1600
VWidth: 1000
Flags: HMW
LayerCount: 2
Fore
SplineSet
100 1200 m 1
 100 1400 l 1
 900 1400 l 1
 1100 1200 l 1
 1300 1400 l 1
 1500 1400 l 1
 1500 400 l 1
 1300 400 l 1
 1300 1100 l 1
 1200 1000 l 1
 1200 600 l 1
 1000 600 l 1
 1000 1000 l 1
 900 1100 l 1
 900 400 l 1
 700 400 l 1
 700 1200 l 1
 500 1200 l 1
 500 400 l 1
 300 400 l 1
 300 1200 l 1
 100 1200 l 1
EndSplineSet
Validated: 1
EndChar

StartChar: scaron
Encoding: 119 353 119
Width: 1600
VWidth: 1000
Flags: HMW
LayerCount: 2
Fore
SplineSet
200 0 m 1
 200 200 l 1
 1100 200 l 1
 1200 300 l 1
 1100 400 l 1
 400 400 l 1
 200 600 l 1
 200 800 l 1
 400 1000 l 1
 1400 1000 l 1
 1400 800 l 1
 500 800 l 1
 400 700 l 1
 500 600 l 1
 1200 600 l 1
 1400 400 l 1
 1400 200 l 1
 1200 0 l 1
 200 0 l 1
500 1300 m 1
 500 1400 l 1
 700 1400 l 1
 800 1300 l 1
 900 1400 l 1
 1100 1400 l 1
 1100 1300 l 1
 900 1100 l 1
 700 1100 l 1
 500 1300 l 1
EndSplineSet
Validated: 1
EndChar

StartChar: guilsinglright
Encoding: 120 8250 120
Width: 1600
VWidth: 1000
Flags: HMW
LayerCount: 2
Fore
SplineSet
500 200 m 1
 500 300 l 1
 900 700 l 1
 500 1100 l 1
 500 1200 l 1
 700 1200 l 1
 1100 800 l 1
 1100 600 l 1
 700 200 l 1
 500 200 l 1
EndSplineSet
Validated: 1
EndChar

StartChar: oe
Encoding: 121 339 121
Width: 1600
VWidth: 1000
Flags: HMW
LayerCount: 2
Fore
SplineSet
100 300 m 1
 100 700 l 1
 400 1000 l 1
 600 1000 l 1
 800 800 l 1
 1000 1000 l 1
 1200 1000 l 1
 1500 700 l 1
 1500 400 l 1
 900 400 l 1
 1100 200 l 1
 1500 200 l 1
 1500 0 l 1
 1000 0 l 1
 800 200 l 1
 600 0 l 1
 400 0 l 1
 100 300 l 1
300 400 m 1
 500 200 l 1
 700 400 l 1
 700 600 l 1
 500 800 l 1
 300 600 l 1
 300 400 l 1
900 600 m 1
 1300 600 l 1
 1100 800 l 1
 900 600 l 1
EndSplineSet
Validated: 1
EndChar

StartChar: zcaron
Encoding: 122 382 122
Width: 1600
VWidth: 1000
Flags: HMW
LayerCount: 2
Fore
SplineSet
200 0 m 1
 200 200 l 1
 500 500 l 1
 1000 700 l 1
 1100 800 l 1
 200 800 l 1
 200 1000 l 1
 1400 1000 l 1
 1400 800 l 1
 1100 500 l 1
 600 300 l 1
 500 200 l 1
 1400 200 l 1
 1400 0 l 1
 200 0 l 1
500 1300 m 1
 500 1400 l 1
 700 1400 l 1
 800 1300 l 1
 900 1400 l 1
 1100 1400 l 1
 1100 1300 l 1
 900 1100 l 1
 700 1100 l 1
 500 1300 l 1
EndSplineSet
Validated: 1
EndChar

StartChar: Ydieresis
Encoding: 123 376 123
Width: 1600
VWidth: 1000
Flags: HMW
LayerCount: 2
Fore
SplineSet
200 900 m 1
 200 1000 l 1
 400 1000 l 1
 800 600 l 1
 1200 1000 l 1
 1400 1000 l 1
 1400 900 l 1
 900 400 l 1
 900 0 l 1
 700 0 l 1
 700 400 l 1
 200 900 l 1
500 1200 m 1
 500 1400 l 1
 700 1400 l 1
 700 1200 l 1
 500 1200 l 1
900 1200 m 1
 900 1400 l 1
 1100 1400 l 1
 1100 1200 l 1
 900 1200 l 1
EndSplineSet
Validated: 1
EndChar

StartChar: exclamdown
Encoding: 125 161 125
Width: 1600
VWidth: 1000
Flags: HMW
LayerCount: 2
Fore
SplineSet
700 -200 m 1
 700 800 l 1
 900 800 l 1
 900 -200 l 1
 700 -200 l 1
700 1000 m 1
 700 1200 l 1
 900 1200 l 1
 900 1000 l 1
 700 1000 l 1
EndSplineSet
Validated: 1
EndChar

StartChar: cent
Encoding: 126 162 126
Width: 1600
VWidth: 1000
Flags: HMW
LayerCount: 2
Fore
SplineSet
200 300 m 1
 200 700 l 1
 500 1000 l 1
 700 1000 l 1
 700 1200 l 1
 900 1200 l 1
 900 1000 l 1
 1100 1000 l 1
 1400 700 l 1
 1400 600 l 1
 1200 600 l 1
 1000 800 l 1
 900 800 l 1
 900 200 l 1
 1000 200 l 1
 1200 400 l 1
 1400 400 l 1
 1400 300 l 1
 1100 0 l 1
 900 0 l 1
 900 -200 l 1
 700 -200 l 1
 700 0 l 1
 500 0 l 1
 200 300 l 1
400 400 m 1
 600 200 l 1
 700 200 l 1
 700 800 l 1
 600 800 l 1
 400 600 l 1
 400 400 l 1
EndSplineSet
Validated: 1
EndChar

StartChar: sterling
Encoding: 127 163 127
Width: 1600
VWidth: 1000
Flags: HMW
LayerCount: 2
Fore
SplineSet
200 0 m 1
 200 200 l 1
 400 400 l 1
 600 400 l 1
 600 600 l 1
 300 600 l 1
 300 800 l 1
 600 800 l 1
 600 1100 l 1
 900 1400 l 1
 1100 1400 l 1
 1400 1100 l 1
 1400 1000 l 1
 1200 1000 l 1
 1000 1200 l 1
 800 1000 l 1
 800 800 l 1
 1100 800 l 1
 1100 600 l 1
 800 600 l 1
 800 400 l 1
 1100 400 l 1
 1400 100 l 1
 1400 0 l 1
 1200 0 l 1
 1000 200 l 1
 800 200 l 1
 600 0 l 1
 200 0 l 1
EndSplineSet
Validated: 1
EndChar

StartChar: currency
Encoding: 128 164 128
Width: 1600
VWidth: 1000
Flags: HMW
LayerCount: 2
Fore
SplineSet
100 0 m 1
 100 100 l 1
 400 400 l 1
 400 600 l 1
 100 900 l 1
 100 1000 l 1
 300 1000 l 1
 500 800 l 1
 700 1000 l 1
 900 1000 l 1
 1100 800 l 1
 1300 1000 l 1
 1500 1000 l 1
 1500 900 l 1
 1200 600 l 1
 1200 400 l 1
 1500 100 l 1
 1500 0 l 1
 1300 0 l 1
 1100 200 l 1
 900 0 l 1
 700 0 l 1
 500 200 l 1
 300 0 l 1
 100 0 l 1
600 400 m 1
 800 200 l 1
 1000 400 l 1
 1000 600 l 1
 800 800 l 1
 600 600 l 1
 600 400 l 1
EndSplineSet
Validated: 1
EndChar

StartChar: yen
Encoding: 129 165 129
Width: 1600
VWidth: 1000
Flags: HMW
LayerCount: 2
Fore
SplineSet
200 1300 m 1
 200 1400 l 1
 400 1400 l 1
 800 1000 l 1
 1200 1400 l 1
 1400 1400 l 1
 1400 1300 l 1
 900 800 l 1
 1300 800 l 1
 1300 600 l 1
 900 600 l 1
 900 400 l 1
 1300 400 l 1
 1300 200 l 1
 900 200 l 1
 900 0 l 1
 700 0 l 1
 700 200 l 1
 300 200 l 1
 300 400 l 1
 700 400 l 1
 700 600 l 1
 300 600 l 1
 300 800 l 1
 700 800 l 1
 200 1300 l 1
EndSplineSet
Validated: 1
EndChar

StartChar: brokenbar
Encoding: 130 166 130
Width: 1600
VWidth: 1000
Flags: HMW
LayerCount: 2
Fore
SplineSet
700 -200 m 1
 700 400 l 1
 900 400 l 1
 900 -200 l 1
 700 -200 l 1
700 800 m 1
 700 1400 l 1
 900 1400 l 1
 900 800 l 1
 700 800 l 1
EndSplineSet
Validated: 1
EndChar

StartChar: section
Encoding: 131 167 131
Width: 1600
VWidth: 1000
Flags: HMW
LayerCount: 2
Fore
SplineSet
200 0 m 1
 200 200 l 1
 1100 200 l 1
 1200 300 l 1
 1100 400 l 1
 400 400 l 1
 200 600 l 1
 200 800 l 1
 300 900 l 1
 200 1000 l 1
 200 1200 l 1
 400 1400 l 1
 1400 1400 l 1
 1400 1200 l 1
 500 1200 l 1
 400 1100 l 1
 500 1000 l 1
 1200 1000 l 1
 1400 800 l 1
 1400 600 l 1
 1300 500 l 1
 1400 400 l 1
 1400 200 l 1
 1200 0 l 1
 200 0 l 1
400 700 m 1
 500 600 l 1
 1100 600 l 1
 1200 700 l 1
 1100 800 l 1
 500 800 l 1
 400 700 l 1
EndSplineSet
Validated: 1
EndChar

StartChar: dieresis
Encoding: 132 168 132
Width: 1600
VWidth: 1000
Flags: HMW
LayerCount: 2
Fore
SplineSet
500 1200 m 1
 500 1400 l 1
 700 1400 l 1
 700 1200 l 1
 500 1200 l 1
900 1200 m 1
 900 1400 l 1
 1100 1400 l 1
 1100 1200 l 1
 900 1200 l 1
EndSplineSet
Validated: 1
EndChar

StartChar: copyright
Encoding: 133 169 133
Width: 1600
VWidth: 1000
Flags: HMW
LayerCount: 2
Fore
SplineSet
200 300 m 1
 200 1100 l 1
 500 1400 l 1
 1100 1400 l 1
 1400 1100 l 1
 1400 300 l 1
 1100 0 l 1
 500 0 l 1
 200 300 l 1
400 400 m 1
 600 200 l 1
 1000 200 l 1
 1200 400 l 1
 1200 500 l 1
 1000 500 l 1
 900 400 l 1
 700 400 l 1
 600 500 l 1
 600 900 l 1
 700 1000 l 1
 900 1000 l 1
 1000 900 l 1
 1200 900 l 1
 1200 1000 l 1
 1000 1200 l 1
 600 1200 l 1
 400 1000 l 1
 400 400 l 1
EndSplineSet
Validated: 1
EndChar

StartChar: ordfeminine
Encoding: 134 170 134
Width: 1600
VWidth: 1000
Flags: HMW
LayerCount: 2
Fore
SplineSet
400 500 m 1
 400 600 l 1
 1200 600 l 1
 1200 500 l 1
 400 500 l 1
400 800 m 1
 400 900 l 1
 500 1000 l 1
 1000 1000 l 1
 900 1100 l 1
 500 1100 l 1
 500 1200 l 1
 1050 1200 l 1
 1200 1050 l 1
 1200 700 l 1
 500 700 l 1
 400 800 l 1
600 850 m 1
 650 800 l 1
 1000 800 l 1
 1000 900 l 1
 650 900 l 1
 600 850 l 1
EndSplineSet
Validated: 1
EndChar

StartChar: guillemotleft
Encoding: 135 171 135
Width: 1600
VWidth: 1000
Flags: HMW
LayerCount: 2
Fore
SplineSet
200 600 m 1
 200 800 l 1
 600 1200 l 1
 800 1200 l 1
 800 1100 l 1
 400 700 l 1
 800 300 l 1
 800 200 l 1
 600 200 l 1
 200 600 l 1
800 600 m 1
 800 800 l 1
 1200 1200 l 1
 1400 1200 l 1
 1400 1100 l 1
 1000 700 l 1
 1400 300 l 1
 1400 200 l 1
 1200 200 l 1
 800 600 l 1
EndSplineSet
Validated: 1
EndChar

StartChar: logicalnot
Encoding: 136 172 136
Width: 1600
VWidth: 1000
Flags: HMW
LayerCount: 2
Fore
SplineSet
300 800 m 1
 300 1000 l 1
 1300 1000 l 1
 1300 400 l 1
 1100 400 l 1
 1100 800 l 1
 300 800 l 1
EndSplineSet
Validated: 1
EndChar

StartChar: uni00AD
Encoding: 137 173 137
Width: 1600
VWidth: 1000
Flags: HMW
LayerCount: 2
Fore
SplineSet
300 600 m 1
 300 800 l 1
 1300 800 l 1
 1300 600 l 1
 300 600 l 1
EndSplineSet
Validated: 1
EndChar

StartChar: registered
Encoding: 138 174 138
Width: 1600
VWidth: 1000
Flags: HMW
LayerCount: 2
Fore
SplineSet
200 300 m 1
 200 1100 l 1
 500 1400 l 1
 1100 1400 l 1
 1400 1100 l 1
 1400 300 l 1
 1100 0 l 1
 500 0 l 1
 200 300 l 1
400 200 m 1
 600 200 l 1
 600 600 l 1
 1000 200 l 1
 1200 200 l 1
 1200 300 l 1
 900 600 l 1
 1000 600 l 1
 1200 800 l 1
 1200 1000 l 1
 1000 1200 l 1
 400 1200 l 1
 400 200 l 1
600 800 m 1
 600 1000 l 1
 900 1000 l 1
 1000 900 l 1
 900 800 l 1
 600 800 l 1
EndSplineSet
Validated: 1
EndChar

StartChar: macron
Encoding: 139 175 139
Width: 1600
VWidth: 1000
Flags: HMW
LayerCount: 2
Fore
SplineSet
500 1200 m 1
 500 1400 l 1
 1100 1400 l 1
 1100 1200 l 1
 500 1200 l 1
EndSplineSet
Validated: 1
EndChar

StartChar: degree
Encoding: 140 176 140
Width: 1600
VWidth: 1000
Flags: HMW
LayerCount: 2
Fore
SplineSet
400 800 m 1
 400 1200 l 1
 600 1400 l 1
 1000 1400 l 1
 1200 1200 l 1
 1200 800 l 1
 1000 600 l 1
 600 600 l 1
 400 800 l 1
600 900 m 1
 700 800 l 1
 900 800 l 1
 1000 900 l 1
 1000 1100 l 1
 900 1200 l 1
 700 1200 l 1
 600 1100 l 1
 600 900 l 1
EndSplineSet
Validated: 1
EndChar

StartChar: plusminus
Encoding: 141 177 141
Width: 1600
VWidth: 1000
Flags: HMW
LayerCount: 2
Fore
SplineSet
300 0 m 1
 300 200 l 1
 700 200 l 1
 700 600 l 1
 300 600 l 1
 300 800 l 1
 700 800 l 1
 700 1200 l 1
 900 1200 l 1
 900 800 l 1
 1300 800 l 1
 1300 600 l 1
 900 600 l 1
 900 200 l 1
 1300 200 l 1
 1300 0 l 1
 300 0 l 1
EndSplineSet
Validated: 1
EndChar

StartChar: acute
Encoding: 142 180 142
Width: 1600
VWidth: 1000
Flags: HMW
LayerCount: 2
Fore
SplineSet
500 900 m 1
 500 1000 l 1
 900 1400 l 1
 1100 1400 l 1
 1100 1300 l 1
 700 900 l 1
 500 900 l 1
EndSplineSet
Validated: 1
EndChar

StartChar: mu
Encoding: 143 181 143
Width: 1600
VWidth: 1000
Flags: HMW
LayerCount: 2
Fore
SplineSet
200 -200 m 1
 200 1000 l 1
 400 1000 l 1
 400 200 l 1
 1000 200 l 1
 1200 400 l 1
 1200 1000 l 1
 1400 1000 l 1
 1400 300 l 1
 1100 0 l 1
 400 0 l 1
 400 -200 l 1
 200 -200 l 1
EndSplineSet
Validated: 1
EndChar

StartChar: paragraph
Encoding: 144 182 144
Width: 1600
VWidth: 1000
Flags: HMW
LayerCount: 2
Fore
SplineSet
200 900 m 1
 200 1100 l 1
 500 1400 l 1
 1400 1400 l 1
 1400 0 l 1
 1200 0 l 1
 1200 1200 l 1
 1000 1200 l 1
 1000 0 l 1
 800 0 l 1
 800 600 l 1
 500 600 l 1
 200 900 l 1
400 1000 m 1
 600 800 l 1
 800 800 l 1
 800 1200 l 1
 600 1200 l 1
 400 1000 l 1
EndSplineSet
Validated: 1
EndChar

StartChar: periodcentered
Encoding: 145 183 145
Width: 1600
VWidth: 1000
Flags: HMW
LayerCount: 2
Fore
SplineSet
700 600 m 1
 700 800 l 1
 900 800 l 1
 900 600 l 1
 700 600 l 1
EndSplineSet
Validated: 1
Substitution2: "Single Substitution lookup 9-1" periodcentered.CATL
Substitution2: "Single Substitution lookup 8-1" periodcentered.CATC
EndChar

StartChar: cedilla
Encoding: 146 184 146
Width: 1600
VWidth: 1000
Flags: HMW
LayerCount: 2
Fore
SplineSet
700 -100 m 1
 900 -100 l 1
 900 100 l 1
 700 100 l 1
 700 200 l 1
 1000 200 l 1
 1100 100 l 1
 1100 -100 l 1
 1000 -200 l 1
 700 -200 l 1
 700 -100 l 1
EndSplineSet
Validated: 1
EndChar

StartChar: ordmasculine
Encoding: 147 186 147
Width: 1600
VWidth: 1000
Flags: HMW
LayerCount: 2
Fore
SplineSet
400 500 m 1
 400 600 l 1
 1200 600 l 1
 1200 500 l 1
 400 500 l 1
400 850 m 1
 400 1050 l 1
 550 1200 l 1
 1050 1200 l 1
 1200 1050 l 1
 1200 850 l 1
 1050 700 l 1
 550 700 l 1
 400 850 l 1
600 900 m 1
 700 800 l 1
 900 800 l 1
 1000 900 l 1
 1000 1000 l 1
 900 1100 l 1
 700 1100 l 1
 600 1000 l 1
 600 900 l 1
EndSplineSet
Validated: 1
EndChar

StartChar: guillemotright
Encoding: 148 187 148
Width: 1600
VWidth: 1000
Flags: HMW
LayerCount: 2
Fore
SplineSet
200 200 m 1
 200 300 l 1
 600 700 l 1
 200 1100 l 1
 200 1200 l 1
 400 1200 l 1
 800 800 l 1
 800 600 l 1
 400 200 l 1
 200 200 l 1
800 200 m 1
 800 300 l 1
 1200 700 l 1
 800 1100 l 1
 800 1200 l 1
 1000 1200 l 1
 1400 800 l 1
 1400 600 l 1
 1000 200 l 1
 800 200 l 1
EndSplineSet
Validated: 1
EndChar

StartChar: questiondown
Encoding: 149 191 149
Width: 1600
VWidth: 1000
Flags: HMW
LayerCount: 2
Fore
SplineSet
200 100 m 1
 200 300 l 1
 700 800 l 1
 900 800 l 1
 900 700 l 1
 400 200 l 1
 600 0 l 1
 1000 0 l 1
 1200 200 l 1
 1400 200 l 1
 1400 100 l 1
 1100 -200 l 1
 500 -200 l 1
 200 100 l 1
700 1000 m 1
 700 1200 l 1
 900 1200 l 1
 900 1000 l 1
 700 1000 l 1
EndSplineSet
Validated: 1
EndChar

StartChar: Agrave
Encoding: 150 192 150
Width: 1600
VWidth: 1000
Flags: HMW
LayerCount: 2
Fore
SplineSet
200 0 m 1
 200 500 l 1
 700 1000 l 1
 900 1000 l 1
 1400 500 l 1
 1400 0 l 1
 1200 0 l 1
 1200 100 l 1
 400 100 l 1
 400 0 l 1
 200 0 l 1
400 300 m 1
 1200 300 l 1
 1200 400 l 1
 800 800 l 1
 400 400 l 1
 400 300 l 1
500 1300 m 1
 500 1400 l 1
 700 1400 l 1
 900 1200 l 1
 900 1100 l 1
 700 1100 l 1
 500 1300 l 1
EndSplineSet
Validated: 1
EndChar

StartChar: Aacute
Encoding: 151 193 151
Width: 1600
VWidth: 1000
Flags: HMW
LayerCount: 2
Fore
SplineSet
200 0 m 1
 200 500 l 1
 700 1000 l 1
 900 1000 l 1
 1400 500 l 1
 1400 0 l 1
 1200 0 l 1
 1200 100 l 1
 400 100 l 1
 400 0 l 1
 200 0 l 1
400 300 m 1
 1200 300 l 1
 1200 400 l 1
 800 800 l 1
 400 400 l 1
 400 300 l 1
700 1100 m 1
 700 1200 l 1
 900 1400 l 1
 1100 1400 l 1
 1100 1300 l 1
 900 1100 l 1
 700 1100 l 1
EndSplineSet
Validated: 1
EndChar

StartChar: Acircumflex
Encoding: 152 194 152
Width: 1600
VWidth: 1000
Flags: HMW
LayerCount: 2
Fore
SplineSet
200 0 m 1
 200 500 l 1
 700 1000 l 1
 900 1000 l 1
 1400 500 l 1
 1400 0 l 1
 1200 0 l 1
 1200 100 l 1
 400 100 l 1
 400 0 l 1
 200 0 l 1
400 300 m 1
 1200 300 l 1
 1200 400 l 1
 800 800 l 1
 400 400 l 1
 400 300 l 1
500 1100 m 1
 500 1200 l 1
 700 1400 l 1
 900 1400 l 1
 1100 1200 l 1
 1100 1100 l 1
 900 1100 l 1
 800 1200 l 1
 700 1100 l 1
 500 1100 l 1
EndSplineSet
Validated: 1
EndChar

StartChar: Atilde
Encoding: 153 195 153
Width: 1600
VWidth: 1000
Flags: HMW
LayerCount: 2
Fore
SplineSet
200 0 m 1
 200 500 l 1
 700 1000 l 1
 900 1000 l 1
 1400 500 l 1
 1400 0 l 1
 1200 0 l 1
 1200 100 l 1
 400 100 l 1
 400 0 l 1
 200 0 l 1
400 300 m 1
 1200 300 l 1
 1200 400 l 1
 800 800 l 1
 400 400 l 1
 400 300 l 1
400 1100 m 1
 400 1300 l 1
 500 1400 l 1
 600 1400 l 1
 1000 1300 l 1
 1000 1400 l 1
 1200 1400 l 1
 1200 1200 l 1
 1100 1100 l 1
 1000 1100 l 1
 600 1200 l 1
 600 1100 l 1
 400 1100 l 1
EndSplineSet
Validated: 1
EndChar

StartChar: Adieresis
Encoding: 154 196 154
Width: 1600
VWidth: 1000
Flags: HMW
LayerCount: 2
Fore
SplineSet
200 0 m 1
 200 500 l 1
 700 1000 l 1
 900 1000 l 1
 1400 500 l 1
 1400 0 l 1
 1200 0 l 1
 1200 100 l 1
 400 100 l 1
 400 0 l 1
 200 0 l 1
400 300 m 1
 1200 300 l 1
 1200 400 l 1
 800 800 l 1
 400 400 l 1
 400 300 l 1
500 1200 m 1
 500 1400 l 1
 700 1400 l 1
 700 1200 l 1
 500 1200 l 1
900 1200 m 1
 900 1400 l 1
 1100 1400 l 1
 1100 1200 l 1
 900 1200 l 1
EndSplineSet
Validated: 1
EndChar

StartChar: Aring
Encoding: 155 197 155
Width: 1600
VWidth: 1000
Flags: HMW
LayerCount: 2
Fore
SplineSet
200 0 m 1
 200 500 l 1
 700 1000 l 1
 600 1000 l 1
 500 1100 l 1
 500 1300 l 1
 600 1400 l 1
 1000 1400 l 1
 1100 1300 l 1
 1100 1100 l 1
 1000 1000 l 1
 900 1000 l 1
 1400 500 l 1
 1400 0 l 1
 1200 0 l 1
 1200 100 l 1
 400 100 l 1
 400 0 l 1
 200 0 l 1
400 300 m 1
 1200 300 l 1
 1200 400 l 1
 800 800 l 1
 400 400 l 1
 400 300 l 1
700 1100 m 1
 900 1100 l 1
 900 1300 l 1
 700 1300 l 1
 700 1100 l 1
EndSplineSet
Validated: 1
EndChar

StartChar: AE
Encoding: 156 198 156
Width: 1600
VWidth: 1000
Flags: HMW
LayerCount: 2
Fore
SplineSet
200 0 m 1
 200 900 l 1
 700 1400 l 1
 1400 1400 l 1
 1400 1200 l 1
 900 1200 l 1
 900 800 l 1
 1200 800 l 1
 1200 600 l 1
 900 600 l 1
 900 200 l 1
 1400 200 l 1
 1400 0 l 1
 700 0 l 1
 700 400 l 1
 400 400 l 1
 400 0 l 1
 200 0 l 1
400 600 m 1
 700 600 l 1
 700 1100 l 1
 400 800 l 1
 400 600 l 1
EndSplineSet
Validated: 1
EndChar

StartChar: Ccedilla
Encoding: 157 199 157
Width: 1600
VWidth: 1000
Flags: HMW
LayerCount: 2
Fore
SplineSet
200 500 m 1
 200 1100 l 1
 500 1400 l 1
 1100 1400 l 1
 1400 1100 l 1
 1400 1000 l 1
 1200 1000 l 1
 1000 1200 l 1
 600 1200 l 1
 400 1000 l 1
 400 600 l 1
 600 400 l 1
 1000 400 l 1
 1200 600 l 1
 1400 600 l 1
 1400 500 l 1
 1100 200 l 1
 1000 200 l 1
 1100 100 l 1
 1100 -100 l 1
 1000 -200 l 1
 700 -200 l 1
 700 -100 l 1
 900 -100 l 1
 900 100 l 1
 700 100 l 1
 700 200 l 1
 500 200 l 1
 200 500 l 1
EndSplineSet
Validated: 1
EndChar

StartChar: Egrave
Encoding: 158 200 158
Width: 1600
VWidth: 1000
Flags: HMW
LayerCount: 2
Fore
SplineSet
200 0 m 1
 200 1000 l 1
 1400 1000 l 1
 1400 800 l 1
 400 800 l 1
 400 600 l 1
 1200 600 l 1
 1200 400 l 1
 400 400 l 1
 400 200 l 1
 1400 200 l 1
 1400 0 l 1
 200 0 l 1
500 1300 m 1
 500 1400 l 1
 700 1400 l 1
 900 1200 l 1
 900 1100 l 1
 700 1100 l 1
 500 1300 l 1
EndSplineSet
Validated: 1
EndChar

StartChar: Eacute
Encoding: 159 201 159
Width: 1600
VWidth: 1000
Flags: HMW
LayerCount: 2
Fore
SplineSet
200 0 m 1
 200 1000 l 1
 1400 1000 l 1
 1400 800 l 1
 400 800 l 1
 400 600 l 1
 1200 600 l 1
 1200 400 l 1
 400 400 l 1
 400 200 l 1
 1400 200 l 1
 1400 0 l 1
 200 0 l 1
700 1100 m 1
 700 1200 l 1
 900 1400 l 1
 1100 1400 l 1
 1100 1300 l 1
 900 1100 l 1
 700 1100 l 1
EndSplineSet
Validated: 1
EndChar

StartChar: Ecircumflex
Encoding: 160 202 160
Width: 1600
VWidth: 1000
Flags: HMW
LayerCount: 2
Fore
SplineSet
200 0 m 1
 200 1000 l 1
 1400 1000 l 1
 1400 800 l 1
 400 800 l 1
 400 600 l 1
 1200 600 l 1
 1200 400 l 1
 400 400 l 1
 400 200 l 1
 1400 200 l 1
 1400 0 l 1
 200 0 l 1
500 1100 m 1
 500 1200 l 1
 700 1400 l 1
 900 1400 l 1
 1100 1200 l 1
 1100 1100 l 1
 900 1100 l 1
 800 1200 l 1
 700 1100 l 1
 500 1100 l 1
EndSplineSet
Validated: 1
EndChar

StartChar: Edieresis
Encoding: 161 203 161
Width: 1600
VWidth: 1000
Flags: HMW
LayerCount: 2
Fore
SplineSet
200 0 m 1
 200 1000 l 1
 1400 1000 l 1
 1400 800 l 1
 400 800 l 1
 400 600 l 1
 1200 600 l 1
 1200 400 l 1
 400 400 l 1
 400 200 l 1
 1400 200 l 1
 1400 0 l 1
 200 0 l 1
500 1200 m 1
 500 1400 l 1
 700 1400 l 1
 700 1200 l 1
 500 1200 l 1
900 1200 m 1
 900 1400 l 1
 1100 1400 l 1
 1100 1200 l 1
 900 1200 l 1
EndSplineSet
Validated: 1
EndChar

StartChar: Igrave
Encoding: 162 204 162
Width: 1600
VWidth: 1000
Flags: HMW
LayerCount: 2
Fore
SplineSet
200 0 m 1
 200 200 l 1
 700 200 l 1
 700 800 l 1
 200 800 l 1
 200 1000 l 1
 1400 1000 l 1
 1400 800 l 1
 900 800 l 1
 900 200 l 1
 1400 200 l 1
 1400 0 l 1
 200 0 l 1
500 1300 m 1
 500 1400 l 1
 700 1400 l 1
 900 1200 l 1
 900 1100 l 1
 700 1100 l 1
 500 1300 l 1
EndSplineSet
Validated: 1
EndChar

StartChar: Iacute
Encoding: 163 205 163
Width: 1600
VWidth: 1000
Flags: HMW
LayerCount: 2
Fore
SplineSet
200 0 m 1
 200 200 l 1
 700 200 l 1
 700 800 l 1
 200 800 l 1
 200 1000 l 1
 1400 1000 l 1
 1400 800 l 1
 900 800 l 1
 900 200 l 1
 1400 200 l 1
 1400 0 l 1
 200 0 l 1
700 1100 m 1
 700 1200 l 1
 900 1400 l 1
 1100 1400 l 1
 1100 1300 l 1
 900 1100 l 1
 700 1100 l 1
EndSplineSet
Validated: 1
EndChar

StartChar: Icircumflex
Encoding: 164 206 164
Width: 1600
VWidth: 1000
Flags: HMW
LayerCount: 2
Fore
SplineSet
200 0 m 1
 200 200 l 1
 700 200 l 1
 700 800 l 1
 200 800 l 1
 200 1000 l 1
 1400 1000 l 1
 1400 800 l 1
 900 800 l 1
 900 200 l 1
 1400 200 l 1
 1400 0 l 1
 200 0 l 1
500 1100 m 1
 500 1200 l 1
 700 1400 l 1
 900 1400 l 1
 1100 1200 l 1
 1100 1100 l 1
 900 1100 l 1
 800 1200 l 1
 700 1100 l 1
 500 1100 l 1
EndSplineSet
Validated: 1
EndChar

StartChar: Idieresis
Encoding: 165 207 165
Width: 1600
VWidth: 1000
Flags: HMW
LayerCount: 2
Fore
SplineSet
200 0 m 1
 200 200 l 1
 700 200 l 1
 700 800 l 1
 200 800 l 1
 200 1000 l 1
 1400 1000 l 1
 1400 800 l 1
 900 800 l 1
 900 200 l 1
 1400 200 l 1
 1400 0 l 1
 200 0 l 1
500 1200 m 1
 500 1400 l 1
 700 1400 l 1
 700 1200 l 1
 500 1200 l 1
900 1200 m 1
 900 1400 l 1
 1100 1400 l 1
 1100 1200 l 1
 900 1200 l 1
EndSplineSet
Validated: 1
EndChar

StartChar: Eth
Encoding: 166 208 166
Width: 1600
VWidth: 1000
Flags: HMW
LayerCount: 2
Fore
SplineSet
200 0 m 1
 200 200 l 1
 400 200 l 1
 400 600 l 1
 200 600 l 1
 200 800 l 1
 400 800 l 1
 400 1200 l 1
 200 1200 l 1
 200 1400 l 1
 1000 1400 l 1
 1400 1000 l 1
 1400 400 l 1
 1000 0 l 1
 200 0 l 1
600 200 m 1
 900 200 l 1
 1200 500 l 1
 1200 900 l 1
 900 1200 l 1
 600 1200 l 1
 600 800 l 1
 800 800 l 1
 800 600 l 1
 600 600 l 1
 600 200 l 1
EndSplineSet
Validated: 1
EndChar

StartChar: Ntilde
Encoding: 167 209 167
Width: 1600
VWidth: 1000
Flags: HMW
LayerCount: 2
Fore
SplineSet
200 0 m 1
 200 1000 l 1
 450 1000 l 1
 1200 250 l 1
 1200 1000 l 1
 1400 1000 l 1
 1400 0 l 1
 1150 0 l 1
 400 750 l 1
 400 0 l 1
 200 0 l 1
400 1100 m 1
 400 1300 l 1
 500 1400 l 1
 600 1400 l 1
 1000 1300 l 1
 1000 1400 l 1
 1200 1400 l 1
 1200 1200 l 1
 1100 1100 l 1
 1000 1100 l 1
 600 1200 l 1
 600 1100 l 1
 400 1100 l 1
EndSplineSet
Validated: 1
EndChar

StartChar: Ograve
Encoding: 168 210 168
Width: 1600
VWidth: 1000
Flags: HMW
LayerCount: 2
Fore
SplineSet
200 300 m 1
 200 700 l 1
 500 1000 l 1
 1100 1000 l 1
 1400 700 l 1
 1400 300 l 1
 1100 0 l 1
 500 0 l 1
 200 300 l 1
400 400 m 1
 600 200 l 1
 1000 200 l 1
 1200 400 l 1
 1200 600 l 1
 1000 800 l 1
 600 800 l 1
 400 600 l 1
 400 400 l 1
500 1300 m 1
 500 1400 l 1
 700 1400 l 1
 900 1200 l 1
 900 1100 l 1
 700 1100 l 1
 500 1300 l 1
EndSplineSet
Validated: 1
EndChar

StartChar: Oacute
Encoding: 169 211 169
Width: 1600
VWidth: 1000
Flags: HMW
LayerCount: 2
Fore
SplineSet
200 300 m 1
 200 700 l 1
 500 1000 l 1
 1100 1000 l 1
 1400 700 l 1
 1400 300 l 1
 1100 0 l 1
 500 0 l 1
 200 300 l 1
400 400 m 1
 600 200 l 1
 1000 200 l 1
 1200 400 l 1
 1200 600 l 1
 1000 800 l 1
 600 800 l 1
 400 600 l 1
 400 400 l 1
700 1100 m 1
 700 1200 l 1
 900 1400 l 1
 1100 1400 l 1
 1100 1300 l 1
 900 1100 l 1
 700 1100 l 1
EndSplineSet
Validated: 1
EndChar

StartChar: Ocircumflex
Encoding: 170 212 170
Width: 1600
VWidth: 1000
Flags: HMW
LayerCount: 2
Fore
SplineSet
200 300 m 1
 200 700 l 1
 500 1000 l 1
 1100 1000 l 1
 1400 700 l 1
 1400 300 l 1
 1100 0 l 1
 500 0 l 1
 200 300 l 1
400 400 m 1
 600 200 l 1
 1000 200 l 1
 1200 400 l 1
 1200 600 l 1
 1000 800 l 1
 600 800 l 1
 400 600 l 1
 400 400 l 1
500 1100 m 1
 500 1200 l 1
 700 1400 l 1
 900 1400 l 1
 1100 1200 l 1
 1100 1100 l 1
 900 1100 l 1
 800 1200 l 1
 700 1100 l 1
 500 1100 l 1
EndSplineSet
Validated: 1
EndChar

StartChar: Otilde
Encoding: 171 213 171
Width: 1600
VWidth: 1000
Flags: HMW
LayerCount: 2
Fore
SplineSet
200 300 m 1
 200 700 l 1
 500 1000 l 1
 1100 1000 l 1
 1400 700 l 1
 1400 300 l 1
 1100 0 l 1
 500 0 l 1
 200 300 l 1
400 400 m 1
 600 200 l 1
 1000 200 l 1
 1200 400 l 1
 1200 600 l 1
 1000 800 l 1
 600 800 l 1
 400 600 l 1
 400 400 l 1
400 1100 m 1
 400 1300 l 1
 500 1400 l 1
 600 1400 l 1
 1000 1300 l 1
 1000 1400 l 1
 1200 1400 l 1
 1200 1200 l 1
 1100 1100 l 1
 1000 1100 l 1
 600 1200 l 1
 600 1100 l 1
 400 1100 l 1
EndSplineSet
Validated: 1
EndChar

StartChar: Odieresis
Encoding: 172 214 172
Width: 1600
VWidth: 1000
Flags: HMW
LayerCount: 2
Fore
SplineSet
200 300 m 1
 200 700 l 1
 500 1000 l 1
 1100 1000 l 1
 1400 700 l 1
 1400 300 l 1
 1100 0 l 1
 500 0 l 1
 200 300 l 1
400 400 m 1
 600 200 l 1
 1000 200 l 1
 1200 400 l 1
 1200 600 l 1
 1000 800 l 1
 600 800 l 1
 400 600 l 1
 400 400 l 1
500 1200 m 1
 500 1400 l 1
 700 1400 l 1
 700 1200 l 1
 500 1200 l 1
900 1200 m 1
 900 1400 l 1
 1100 1400 l 1
 1100 1200 l 1
 900 1200 l 1
EndSplineSet
Validated: 1
EndChar

StartChar: multiply
Encoding: 173 215 173
Width: 1600
VWidth: 1000
Flags: HMW
LayerCount: 2
Fore
SplineSet
300 200 m 1
 300 350 l 1
 650 700 l 1
 300 1050 l 1
 300 1200 l 1
 450 1200 l 1
 800 850 l 1
 1150 1200 l 1
 1300 1200 l 1
 1300 1050 l 1
 950 700 l 1
 1300 350 l 1
 1300 200 l 1
 1150 200 l 1
 800 550 l 1
 450 200 l 1
 300 200 l 1
EndSplineSet
Validated: 1
EndChar

StartChar: Oslash
Encoding: 174 216 174
Width: 1600
VWidth: 1000
Flags: HMW
LayerCount: 2
Fore
SplineSet
200 300 m 1
 200 1100 l 1
 500 1400 l 1
 1100 1400 l 1
 1400 1100 l 1
 1400 300 l 1
 1100 0 l 1
 500 0 l 1
 200 300 l 1
400 450 m 1
 1075 1125 l 1
 1000 1200 l 1
 600 1200 l 1
 400 1000 l 1
 400 450 l 1
525 275 m 1
 600 200 l 1
 1000 200 l 1
 1200 400 l 1
 1200 950 l 1
 525 275 l 1
EndSplineSet
Validated: 1
EndChar

StartChar: Ugrave
Encoding: 175 217 175
Width: 1600
VWidth: 1000
Flags: HMW
LayerCount: 2
Fore
SplineSet
200 300 m 1
 200 1000 l 1
 400 1000 l 1
 400 400 l 1
 600 200 l 1
 1000 200 l 1
 1200 400 l 1
 1200 1000 l 1
 1400 1000 l 1
 1400 300 l 1
 1100 0 l 1
 500 0 l 1
 200 300 l 1
500 1300 m 1
 500 1400 l 1
 700 1400 l 1
 900 1200 l 1
 900 1100 l 1
 700 1100 l 1
 500 1300 l 1
EndSplineSet
Validated: 1
EndChar

StartChar: Uacute
Encoding: 176 218 176
Width: 1600
VWidth: 1000
Flags: HMW
LayerCount: 2
Fore
SplineSet
200 300 m 1
 200 1000 l 1
 400 1000 l 1
 400 400 l 1
 600 200 l 1
 1000 200 l 1
 1200 400 l 1
 1200 1000 l 1
 1400 1000 l 1
 1400 300 l 1
 1100 0 l 1
 500 0 l 1
 200 300 l 1
700 1100 m 1
 700 1200 l 1
 900 1400 l 1
 1100 1400 l 1
 1100 1300 l 1
 900 1100 l 1
 700 1100 l 1
EndSplineSet
Validated: 1
EndChar

StartChar: Ucircumflex
Encoding: 177 219 177
Width: 1600
VWidth: 1000
Flags: HMW
LayerCount: 2
Fore
SplineSet
200 300 m 1
 200 1000 l 1
 400 1000 l 1
 400 400 l 1
 600 200 l 1
 1000 200 l 1
 1200 400 l 1
 1200 1000 l 1
 1400 1000 l 1
 1400 300 l 1
 1100 0 l 1
 500 0 l 1
 200 300 l 1
500 1100 m 1
 500 1200 l 1
 700 1400 l 1
 900 1400 l 1
 1100 1200 l 1
 1100 1100 l 1
 900 1100 l 1
 800 1200 l 1
 700 1100 l 1
 500 1100 l 1
EndSplineSet
Validated: 1
EndChar

StartChar: Udieresis
Encoding: 178 220 178
Width: 1600
VWidth: 1000
Flags: HMW
LayerCount: 2
Fore
SplineSet
200 300 m 1
 200 1000 l 1
 400 1000 l 1
 400 400 l 1
 600 200 l 1
 1000 200 l 1
 1200 400 l 1
 1200 1000 l 1
 1400 1000 l 1
 1400 300 l 1
 1100 0 l 1
 500 0 l 1
 200 300 l 1
500 1200 m 1
 500 1400 l 1
 700 1400 l 1
 700 1200 l 1
 500 1200 l 1
900 1200 m 1
 900 1400 l 1
 1100 1400 l 1
 1100 1200 l 1
 900 1200 l 1
EndSplineSet
Validated: 1
EndChar

StartChar: Yacute
Encoding: 179 221 179
Width: 1600
VWidth: 1000
Flags: HMW
LayerCount: 2
Fore
SplineSet
200 900 m 1
 200 1000 l 1
 400 1000 l 1
 800 600 l 1
 1200 1000 l 1
 1400 1000 l 1
 1400 900 l 1
 900 400 l 1
 900 0 l 1
 700 0 l 1
 700 400 l 1
 200 900 l 1
700 1100 m 1
 700 1200 l 1
 900 1400 l 1
 1100 1400 l 1
 1100 1300 l 1
 900 1100 l 1
 700 1100 l 1
EndSplineSet
Validated: 1
EndChar

StartChar: Thorn
Encoding: 180 222 180
Width: 1600
VWidth: 1000
Flags: HMW
LayerCount: 2
Fore
SplineSet
200 0 m 1
 200 1400 l 1
 400 1400 l 1
 400 1100 l 1
 1100 1100 l 1
 1400 800 l 1
 1400 600 l 1
 1100 300 l 1
 400 300 l 1
 400 0 l 1
 200 0 l 1
400 500 m 1
 1000 500 l 1
 1200 700 l 1
 1000 900 l 1
 400 900 l 1
 400 500 l 1
EndSplineSet
Validated: 1
EndChar

StartChar: germandbls
Encoding: 181 223 181
Width: 1600
VWidth: 1000
Flags: HMW
LayerCount: 2
Fore
SplineSet
200 0 m 1
 200 1100 l 1
 500 1400 l 1
 1100 1400 l 1
 1400 1100 l 1
 1400 900 l 1
 1200 700 l 1
 1400 500 l 1
 1400 300 l 1
 1100 0 l 1
 600 0 l 1
 600 200 l 1
 1000 200 l 1
 1200 400 l 1
 1000 600 l 1
 600 600 l 1
 600 800 l 1
 1000 800 l 1
 1200 1000 l 1
 1000 1200 l 1
 600 1200 l 1
 400 1000 l 1
 400 0 l 1
 200 0 l 1
EndSplineSet
Validated: 1
EndChar

StartChar: agrave
Encoding: 182 224 182
Width: 1600
VWidth: 1000
Flags: HMW
LayerCount: 2
Fore
SplineSet
200 200 m 1
 200 400 l 1
 400 600 l 1
 1200 600 l 1
 1000 800 l 1
 400 800 l 1
 400 1000 l 1
 1100 1000 l 1
 1400 700 l 1
 1400 0 l 1
 400 0 l 1
 200 200 l 1
400 300 m 1
 500 200 l 1
 1200 200 l 1
 1200 400 l 1
 500 400 l 1
 400 300 l 1
500 1300 m 1
 500 1400 l 1
 700 1400 l 1
 900 1200 l 1
 900 1100 l 1
 700 1100 l 1
 500 1300 l 1
EndSplineSet
Validated: 1
EndChar

StartChar: aacute
Encoding: 183 225 183
Width: 1600
VWidth: 1000
Flags: HMW
LayerCount: 2
Fore
SplineSet
200 200 m 1
 200 400 l 1
 400 600 l 1
 1200 600 l 1
 1000 800 l 1
 400 800 l 1
 400 1000 l 1
 1100 1000 l 1
 1400 700 l 1
 1400 0 l 1
 400 0 l 1
 200 200 l 1
400 300 m 1
 500 200 l 1
 1200 200 l 1
 1200 400 l 1
 500 400 l 1
 400 300 l 1
700 1100 m 1
 700 1200 l 1
 900 1400 l 1
 1100 1400 l 1
 1100 1300 l 1
 900 1100 l 1
 700 1100 l 1
EndSplineSet
Validated: 1
EndChar

StartChar: acircumflex
Encoding: 184 226 184
Width: 1600
VWidth: 1000
Flags: HMW
LayerCount: 2
Fore
SplineSet
200 200 m 1
 200 400 l 1
 400 600 l 1
 1200 600 l 1
 1000 800 l 1
 400 800 l 1
 400 1000 l 1
 1100 1000 l 1
 1400 700 l 1
 1400 0 l 1
 400 0 l 1
 200 200 l 1
400 300 m 1
 500 200 l 1
 1200 200 l 1
 1200 400 l 1
 500 400 l 1
 400 300 l 1
500 1100 m 1
 500 1200 l 1
 700 1400 l 1
 900 1400 l 1
 1100 1200 l 1
 1100 1100 l 1
 900 1100 l 1
 800 1200 l 1
 700 1100 l 1
 500 1100 l 1
EndSplineSet
Validated: 1
EndChar

StartChar: atilde
Encoding: 185 227 185
Width: 1600
VWidth: 1000
Flags: HMW
LayerCount: 2
Fore
SplineSet
200 200 m 1
 200 400 l 1
 400 600 l 1
 1200 600 l 1
 1000 800 l 1
 400 800 l 1
 400 1000 l 1
 1100 1000 l 1
 1400 700 l 1
 1400 0 l 1
 400 0 l 1
 200 200 l 1
400 300 m 1
 500 200 l 1
 1200 200 l 1
 1200 400 l 1
 500 400 l 1
 400 300 l 1
400 1100 m 1
 400 1300 l 1
 500 1400 l 1
 600 1400 l 1
 1000 1300 l 1
 1000 1400 l 1
 1200 1400 l 1
 1200 1200 l 1
 1100 1100 l 1
 1000 1100 l 1
 600 1200 l 1
 600 1100 l 1
 400 1100 l 1
EndSplineSet
Validated: 1
EndChar

StartChar: adieresis
Encoding: 186 228 186
Width: 1600
VWidth: 1000
Flags: HMW
LayerCount: 2
Fore
SplineSet
200 200 m 1
 200 400 l 1
 400 600 l 1
 1200 600 l 1
 1000 800 l 1
 400 800 l 1
 400 1000 l 1
 1100 1000 l 1
 1400 700 l 1
 1400 0 l 1
 400 0 l 1
 200 200 l 1
400 300 m 1
 500 200 l 1
 1200 200 l 1
 1200 400 l 1
 500 400 l 1
 400 300 l 1
500 1200 m 1
 500 1400 l 1
 700 1400 l 1
 700 1200 l 1
 500 1200 l 1
900 1200 m 1
 900 1400 l 1
 1100 1400 l 1
 1100 1200 l 1
 900 1200 l 1
EndSplineSet
Validated: 1
EndChar

StartChar: aring
Encoding: 187 229 187
Width: 1600
VWidth: 1000
Flags: HMW
LayerCount: 2
Fore
SplineSet
200 200 m 1
 200 400 l 1
 400 600 l 1
 1200 600 l 1
 1000 800 l 1
 400 800 l 1
 400 1000 l 1
 600 1000 l 1
 500 1100 l 1
 500 1300 l 1
 600 1400 l 1
 1000 1400 l 1
 1100 1300 l 1
 1100 1100 l 1
 1000 1000 l 1
 1100 1000 l 1
 1400 700 l 1
 1400 0 l 1
 400 0 l 1
 200 200 l 1
400 300 m 1
 500 200 l 1
 1200 200 l 1
 1200 400 l 1
 500 400 l 1
 400 300 l 1
700 1100 m 1
 900 1100 l 1
 900 1300 l 1
 700 1300 l 1
 700 1100 l 1
EndSplineSet
Validated: 1
EndChar

StartChar: ae
Encoding: 188 230 188
Width: 1600
VWidth: 1000
Flags: HMW
LayerCount: 2
Fore
SplineSet
100 200 m 1
 100 400 l 1
 300 600 l 1
 700 600 l 1
 500 800 l 1
 300 800 l 1
 300 1000 l 1
 600 1000 l 1
 800 800 l 1
 1000 1000 l 1
 1200 1000 l 1
 1500 700 l 1
 1500 400 l 1
 900 400 l 1
 900 200 l 1
 1500 200 l 1
 1500 0 l 1
 300 0 l 1
 100 200 l 1
300 300 m 1
 400 200 l 1
 700 200 l 1
 700 400 l 1
 400 400 l 1
 300 300 l 1
900 600 m 1
 1300 600 l 1
 1100 800 l 1
 900 600 l 1
EndSplineSet
Validated: 1
EndChar

StartChar: ccedilla
Encoding: 189 231 189
Width: 1600
VWidth: 1000
Flags: HMW
LayerCount: 2
Fore
SplineSet
200 500 m 1
 200 900 l 1
 500 1200 l 1
 1100 1200 l 1
 1400 900 l 1
 1400 800 l 1
 1200 800 l 1
 1000 1000 l 1
 600 1000 l 1
 400 800 l 1
 400 600 l 1
 600 400 l 1
 1000 400 l 1
 1200 600 l 1
 1400 600 l 1
 1400 500 l 1
 1100 200 l 1
 1000 200 l 1
 1100 100 l 1
 1100 -100 l 1
 1000 -200 l 1
 700 -200 l 1
 700 -100 l 1
 900 -100 l 1
 900 100 l 1
 700 100 l 1
 700 200 l 1
 500 200 l 1
 200 500 l 1
EndSplineSet
Validated: 1
EndChar

StartChar: egrave
Encoding: 190 232 190
Width: 1600
VWidth: 1000
Flags: HMW
LayerCount: 2
Fore
SplineSet
200 300 m 1
 200 700 l 1
 500 1000 l 1
 1100 1000 l 1
 1400 700 l 1
 1400 400 l 1
 400 400 l 1
 600 200 l 1
 1400 200 l 1
 1400 0 l 1
 500 0 l 1
 200 300 l 1
400 600 m 1
 1200 600 l 1
 1000 800 l 1
 600 800 l 1
 400 600 l 1
500 1300 m 1
 500 1400 l 1
 700 1400 l 1
 900 1200 l 1
 900 1100 l 1
 700 1100 l 1
 500 1300 l 1
EndSplineSet
Validated: 1
EndChar

StartChar: eacute
Encoding: 191 233 191
Width: 1600
VWidth: 1000
Flags: HMW
LayerCount: 2
Fore
SplineSet
200 300 m 1
 200 700 l 1
 500 1000 l 1
 1100 1000 l 1
 1400 700 l 1
 1400 400 l 1
 400 400 l 1
 600 200 l 1
 1400 200 l 1
 1400 0 l 1
 500 0 l 1
 200 300 l 1
400 600 m 1
 1200 600 l 1
 1000 800 l 1
 600 800 l 1
 400 600 l 1
700 1100 m 1
 700 1200 l 1
 900 1400 l 1
 1100 1400 l 1
 1100 1300 l 1
 900 1100 l 1
 700 1100 l 1
EndSplineSet
Validated: 1
EndChar

StartChar: ecircumflex
Encoding: 192 234 192
Width: 1600
VWidth: 1000
Flags: HMW
LayerCount: 2
Fore
SplineSet
200 300 m 1
 200 700 l 1
 500 1000 l 1
 1100 1000 l 1
 1400 700 l 1
 1400 400 l 1
 400 400 l 1
 600 200 l 1
 1400 200 l 1
 1400 0 l 1
 500 0 l 1
 200 300 l 1
400 600 m 1
 1200 600 l 1
 1000 800 l 1
 600 800 l 1
 400 600 l 1
500 1100 m 1
 500 1200 l 1
 700 1400 l 1
 900 1400 l 1
 1100 1200 l 1
 1100 1100 l 1
 900 1100 l 1
 800 1200 l 1
 700 1100 l 1
 500 1100 l 1
EndSplineSet
Validated: 1
EndChar

StartChar: edieresis
Encoding: 193 235 193
Width: 1600
VWidth: 1000
Flags: HMW
LayerCount: 2
Fore
SplineSet
200 300 m 1
 200 700 l 1
 500 1000 l 1
 1100 1000 l 1
 1400 700 l 1
 1400 400 l 1
 400 400 l 1
 600 200 l 1
 1400 200 l 1
 1400 0 l 1
 500 0 l 1
 200 300 l 1
400 600 m 1
 1200 600 l 1
 1000 800 l 1
 600 800 l 1
 400 600 l 1
500 1200 m 1
 500 1400 l 1
 700 1400 l 1
 700 1200 l 1
 500 1200 l 1
900 1200 m 1
 900 1400 l 1
 1100 1400 l 1
 1100 1200 l 1
 900 1200 l 1
EndSplineSet
Validated: 1
EndChar

StartChar: igrave
Encoding: 194 236 194
Width: 1600
VWidth: 1000
Flags: HMW
LayerCount: 2
Fore
SplineSet
200 0 m 1
 200 200 l 1
 700 200 l 1
 700 800 l 1
 200 800 l 1
 200 1000 l 1
 900 1000 l 1
 900 200 l 1
 1400 200 l 1
 1400 0 l 1
 200 0 l 1
500 1300 m 1
 500 1400 l 1
 700 1400 l 1
 900 1200 l 1
 900 1100 l 1
 700 1100 l 1
 500 1300 l 1
EndSplineSet
Validated: 1
EndChar

StartChar: iacute
Encoding: 195 237 195
Width: 1600
VWidth: 1000
Flags: HMW
LayerCount: 2
Fore
SplineSet
200 0 m 1
 200 200 l 1
 700 200 l 1
 700 800 l 1
 200 800 l 1
 200 1000 l 1
 900 1000 l 1
 900 200 l 1
 1400 200 l 1
 1400 0 l 1
 200 0 l 1
700 1100 m 1
 700 1200 l 1
 900 1400 l 1
 1100 1400 l 1
 1100 1300 l 1
 900 1100 l 1
 700 1100 l 1
EndSplineSet
Validated: 1
Substitution2: "'locl' Localized Forms in Latin lookup 2-1" iacute.locl
EndChar

StartChar: icircumflex
Encoding: 196 238 196
Width: 1600
VWidth: 1000
Flags: HMW
LayerCount: 2
Fore
SplineSet
200 0 m 1
 200 200 l 1
 700 200 l 1
 700 800 l 1
 200 800 l 1
 200 1000 l 1
 900 1000 l 1
 900 200 l 1
 1400 200 l 1
 1400 0 l 1
 200 0 l 1
500 1100 m 1
 500 1200 l 1
 700 1400 l 1
 900 1400 l 1
 1100 1200 l 1
 1100 1100 l 1
 900 1100 l 1
 800 1200 l 1
 700 1100 l 1
 500 1100 l 1
EndSplineSet
Validated: 1
EndChar

StartChar: idieresis
Encoding: 197 239 197
Width: 1600
VWidth: 1000
Flags: HMW
LayerCount: 2
Fore
SplineSet
200 0 m 1
 200 200 l 1
 700 200 l 1
 700 800 l 1
 200 800 l 1
 200 1000 l 1
 900 1000 l 1
 900 200 l 1
 1400 200 l 1
 1400 0 l 1
 200 0 l 1
500 1200 m 1
 500 1400 l 1
 700 1400 l 1
 700 1200 l 1
 500 1200 l 1
900 1200 m 1
 900 1400 l 1
 1100 1400 l 1
 1100 1200 l 1
 900 1200 l 1
EndSplineSet
Validated: 1
EndChar

StartChar: eth
Encoding: 198 240 198
Width: 1600
VWidth: 1000
Flags: HMW
LayerCount: 2
Fore
SplineSet
200 300 m 1
 200 500 l 1
 500 800 l 1
 1200 800 l 1
 1011 989 l 1
 700 900 l 1
 700 1100 l 1
 856 1144 l 1
 700 1300 l 1
 700 1400 l 1
 900 1400 l 1
 1089 1211 l 1
 1400 1300 l 1
 1400 1100 l 1
 1244 1056 l 1
 1400 900 l 1
 1400 300 l 1
 1100 0 l 1
 500 0 l 1
 200 300 l 1
400 400 m 1
 600 200 l 1
 1000 200 l 1
 1200 400 l 1
 1200 600 l 1
 600 600 l 1
 400 400 l 1
EndSplineSet
Validated: 1
EndChar

StartChar: ntilde
Encoding: 199 241 199
Width: 1600
VWidth: 1000
Flags: HMW
LayerCount: 2
Fore
SplineSet
200 0 m 1
 200 1000 l 1
 1100 1000 l 1
 1400 700 l 1
 1400 0 l 1
 1200 0 l 1
 1200 600 l 1
 1000 800 l 1
 400 800 l 1
 400 0 l 1
 200 0 l 1
400 1100 m 1
 400 1300 l 1
 500 1400 l 1
 600 1400 l 1
 1000 1300 l 1
 1000 1400 l 1
 1200 1400 l 1
 1200 1200 l 1
 1100 1100 l 1
 1000 1100 l 1
 600 1200 l 1
 600 1100 l 1
 400 1100 l 1
EndSplineSet
Validated: 1
EndChar

StartChar: ograve
Encoding: 200 242 200
Width: 1600
VWidth: 1000
Flags: HMW
LayerCount: 2
Fore
SplineSet
200 300 m 1
 200 700 l 1
 500 1000 l 1
 1100 1000 l 1
 1400 700 l 1
 1400 300 l 1
 1100 0 l 1
 500 0 l 1
 200 300 l 1
400 400 m 1
 600 200 l 1
 1000 200 l 1
 1200 400 l 1
 1200 600 l 1
 1000 800 l 1
 600 800 l 1
 400 600 l 1
 400 400 l 1
500 1300 m 1
 500 1400 l 1
 700 1400 l 1
 900 1200 l 1
 900 1100 l 1
 700 1100 l 1
 500 1300 l 1
EndSplineSet
Validated: 1
EndChar

StartChar: oacute
Encoding: 201 243 201
Width: 1600
VWidth: 1000
Flags: HMW
LayerCount: 2
Fore
SplineSet
200 300 m 1
 200 700 l 1
 500 1000 l 1
 1100 1000 l 1
 1400 700 l 1
 1400 300 l 1
 1100 0 l 1
 500 0 l 1
 200 300 l 1
400 400 m 1
 600 200 l 1
 1000 200 l 1
 1200 400 l 1
 1200 600 l 1
 1000 800 l 1
 600 800 l 1
 400 600 l 1
 400 400 l 1
700 1100 m 1
 700 1200 l 1
 900 1400 l 1
 1100 1400 l 1
 1100 1300 l 1
 900 1100 l 1
 700 1100 l 1
EndSplineSet
Validated: 1
EndChar

StartChar: ocircumflex
Encoding: 202 244 202
Width: 1600
VWidth: 1000
Flags: HMW
LayerCount: 2
Fore
SplineSet
200 300 m 1
 200 700 l 1
 500 1000 l 1
 1100 1000 l 1
 1400 700 l 1
 1400 300 l 1
 1100 0 l 1
 500 0 l 1
 200 300 l 1
400 400 m 1
 600 200 l 1
 1000 200 l 1
 1200 400 l 1
 1200 600 l 1
 1000 800 l 1
 600 800 l 1
 400 600 l 1
 400 400 l 1
500 1100 m 1
 500 1200 l 1
 700 1400 l 1
 900 1400 l 1
 1100 1200 l 1
 1100 1100 l 1
 900 1100 l 1
 800 1200 l 1
 700 1100 l 1
 500 1100 l 1
EndSplineSet
Validated: 1
EndChar

StartChar: otilde
Encoding: 203 245 203
Width: 1600
VWidth: 1000
Flags: HMW
LayerCount: 2
Fore
SplineSet
200 300 m 1
 200 700 l 1
 500 1000 l 1
 1100 1000 l 1
 1400 700 l 1
 1400 300 l 1
 1100 0 l 1
 500 0 l 1
 200 300 l 1
400 400 m 1
 600 200 l 1
 1000 200 l 1
 1200 400 l 1
 1200 600 l 1
 1000 800 l 1
 600 800 l 1
 400 600 l 1
 400 400 l 1
400 1100 m 1
 400 1300 l 1
 500 1400 l 1
 600 1400 l 1
 1000 1300 l 1
 1000 1400 l 1
 1200 1400 l 1
 1200 1200 l 1
 1100 1100 l 1
 1000 1100 l 1
 600 1200 l 1
 600 1100 l 1
 400 1100 l 1
EndSplineSet
Validated: 1
EndChar

StartChar: odieresis
Encoding: 204 246 204
Width: 1600
VWidth: 1000
Flags: HMW
LayerCount: 2
Fore
SplineSet
200 300 m 1
 200 700 l 1
 500 1000 l 1
 1100 1000 l 1
 1400 700 l 1
 1400 300 l 1
 1100 0 l 1
 500 0 l 1
 200 300 l 1
400 400 m 1
 600 200 l 1
 1000 200 l 1
 1200 400 l 1
 1200 600 l 1
 1000 800 l 1
 600 800 l 1
 400 600 l 1
 400 400 l 1
500 1200 m 1
 500 1400 l 1
 700 1400 l 1
 700 1200 l 1
 500 1200 l 1
900 1200 m 1
 900 1400 l 1
 1100 1400 l 1
 1100 1200 l 1
 900 1200 l 1
EndSplineSet
Validated: 1
EndChar

StartChar: divide
Encoding: 205 247 205
Width: 1600
VWidth: 1000
Flags: HMW
LayerCount: 2
Fore
SplineSet
300 600 m 1
 300 800 l 1
 1300 800 l 1
 1300 600 l 1
 300 600 l 1
700 200 m 1
 700 400 l 1
 900 400 l 1
 900 200 l 1
 700 200 l 1
700 1000 m 1
 700 1200 l 1
 900 1200 l 1
 900 1000 l 1
 700 1000 l 1
EndSplineSet
Validated: 1
EndChar

StartChar: oslash
Encoding: 206 248 206
Width: 1600
VWidth: 1000
Flags: HMW
LayerCount: 2
Fore
SplineSet
200 300 m 1
 200 700 l 1
 500 1000 l 1
 1100 1000 l 1
 1400 700 l 1
 1400 300 l 1
 1100 0 l 1
 500 0 l 1
 200 300 l 1
400 400 m 1
 475 325 l 1
 950 800 l 1
 600 800 l 1
 400 600 l 1
 400 400 l 1
650 200 m 1
 1000 200 l 1
 1200 400 l 1
 1200 600 l 1
 1125 675 l 1
 650 200 l 1
EndSplineSet
Validated: 1
EndChar

StartChar: ugrave
Encoding: 207 249 207
Width: 1600
VWidth: 1000
Flags: HMW
LayerCount: 2
Fore
SplineSet
200 300 m 1
 200 1000 l 1
 400 1000 l 1
 400 400 l 1
 600 200 l 1
 1200 200 l 1
 1200 1000 l 1
 1400 1000 l 1
 1400 0 l 1
 500 0 l 1
 200 300 l 1
500 1300 m 1
 500 1400 l 1
 700 1400 l 1
 900 1200 l 1
 900 1100 l 1
 700 1100 l 1
 500 1300 l 1
EndSplineSet
Validated: 1
EndChar

StartChar: uacute
Encoding: 208 250 208
Width: 1600
VWidth: 1000
Flags: HMW
LayerCount: 2
Fore
SplineSet
200 300 m 1
 200 1000 l 1
 400 1000 l 1
 400 400 l 1
 600 200 l 1
 1200 200 l 1
 1200 1000 l 1
 1400 1000 l 1
 1400 0 l 1
 500 0 l 1
 200 300 l 1
700 1100 m 1
 700 1200 l 1
 900 1400 l 1
 1100 1400 l 1
 1100 1300 l 1
 900 1100 l 1
 700 1100 l 1
EndSplineSet
Validated: 1
EndChar

StartChar: ucircumflex
Encoding: 209 251 209
Width: 1600
VWidth: 1000
Flags: HMW
LayerCount: 2
Fore
SplineSet
200 300 m 1
 200 1000 l 1
 400 1000 l 1
 400 400 l 1
 600 200 l 1
 1200 200 l 1
 1200 1000 l 1
 1400 1000 l 1
 1400 0 l 1
 500 0 l 1
 200 300 l 1
500 1100 m 1
 500 1200 l 1
 700 1400 l 1
 900 1400 l 1
 1100 1200 l 1
 1100 1100 l 1
 900 1100 l 1
 800 1200 l 1
 700 1100 l 1
 500 1100 l 1
EndSplineSet
Validated: 1
EndChar

StartChar: udieresis
Encoding: 210 252 210
Width: 1600
VWidth: 1000
Flags: HMW
LayerCount: 2
Fore
SplineSet
200 300 m 1
 200 1000 l 1
 400 1000 l 1
 400 400 l 1
 600 200 l 1
 1200 200 l 1
 1200 1000 l 1
 1400 1000 l 1
 1400 0 l 1
 500 0 l 1
 200 300 l 1
500 1200 m 1
 500 1400 l 1
 700 1400 l 1
 700 1200 l 1
 500 1200 l 1
900 1200 m 1
 900 1400 l 1
 1100 1400 l 1
 1100 1200 l 1
 900 1200 l 1
EndSplineSet
Validated: 1
EndChar

StartChar: yacute
Encoding: 211 253 211
Width: 1600
VWidth: 1000
Flags: HMW
LayerCount: 2
Fore
SplineSet
200 600 m 1
 200 1000 l 1
 400 1000 l 1
 400 700 l 1
 800 300 l 1
 1200 700 l 1
 1200 1000 l 1
 1400 1000 l 1
 1400 600 l 1
 600 -200 l 1
 400 -200 l 1
 400 -100 l 1
 650 150 l 1
 200 600 l 1
700 1100 m 1
 700 1200 l 1
 900 1400 l 1
 1100 1400 l 1
 1100 1300 l 1
 900 1100 l 1
 700 1100 l 1
EndSplineSet
Validated: 1
EndChar

StartChar: thorn
Encoding: 212 254 212
Width: 1600
VWidth: 1000
Flags: HMW
LayerCount: 2
Fore
SplineSet
200 -200 m 1
 200 1400 l 1
 400 1400 l 1
 400 1000 l 1
 1100 1000 l 1
 1400 700 l 1
 1400 500 l 1
 1100 200 l 1
 400 200 l 1
 400 -200 l 1
 200 -200 l 1
400 400 m 1
 1000 400 l 1
 1200 600 l 1
 1000 800 l 1
 400 800 l 1
 400 400 l 1
EndSplineSet
Validated: 1
EndChar

StartChar: ydieresis
Encoding: 213 255 213
Width: 1600
VWidth: 1000
Flags: HMW
LayerCount: 2
Fore
SplineSet
200 600 m 1
 200 1000 l 1
 400 1000 l 1
 400 700 l 1
 800 300 l 1
 1200 700 l 1
 1200 1000 l 1
 1400 1000 l 1
 1400 600 l 1
 600 -200 l 1
 400 -200 l 1
 400 -100 l 1
 650 150 l 1
 200 600 l 1
500 1200 m 1
 500 1400 l 1
 700 1400 l 1
 700 1200 l 1
 500 1200 l 1
900 1200 m 1
 900 1400 l 1
 1100 1400 l 1
 1100 1200 l 1
 900 1200 l 1
EndSplineSet
Validated: 1
EndChar

StartChar: notequal
Encoding: 214 8800 214
Width: 1600
VWidth: 1000
Flags: HMW
LayerCount: 2
Fore
SplineSet
300 400 m 1
 300 600 l 1
 660 600 l 1
 740 800 l 1
 300 800 l 1
 300 1000 l 1
 820 1000 l 1
 900 1200 l 1
 1100 1200 l 1
 1020 1000 l 1
 1300 1000 l 1
 1300 800 l 1
 940 800 l 1
 860 600 l 1
 1300 600 l 1
 1300 400 l 1
 780 400 l 1
 700 200 l 1
 500 200 l 1
 580 400 l 1
 300 400 l 1
EndSplineSet
Validated: 1
EndChar

StartChar: infinity
Encoding: 215 8734 215
Width: 1600
VWidth: 1000
Flags: HMW
LayerCount: 2
Fore
SplineSet
100 400 m 1
 100 800 l 1
 300 1000 l 1
 700 1000 l 1
 800 900 l 1
 900 1000 l 1
 1300 1000 l 1
 1500 800 l 1
 1500 400 l 1
 1300 200 l 1
 900 200 l 1
 800 300 l 1
 700 200 l 1
 300 200 l 1
 100 400 l 1
300 500 m 1
 400 400 l 1
 600 400 l 1
 700 500 l 1
 700 700 l 1
 600 800 l 1
 400 800 l 1
 300 700 l 1
 300 500 l 1
900 500 m 1
 1000 400 l 1
 1200 400 l 1
 1300 500 l 1
 1300 700 l 1
 1200 800 l 1
 1000 800 l 1
 900 700 l 1
 900 500 l 1
EndSplineSet
Validated: 1
EndChar

StartChar: lessequal
Encoding: 216 8804 216
Width: 1600
VWidth: 1000
Flags: HMW
LayerCount: 2
Fore
SplineSet
400 0 m 1
 1000 0 l 1
 400 600 l 1
 400 800 l 1
 1000 1400 l 1
 1200 1400 l 1
 1200 1300 l 1
 600 700 l 1
 1200 100 l 1
 1200 -200 l 1
 400 -200 l 1
 400 0 l 1
EndSplineSet
Validated: 1
EndChar

StartChar: greaterequal
Encoding: 217 8805 217
Width: 1600
VWidth: 1000
Flags: HMW
LayerCount: 2
Fore
SplineSet
400 100 m 1
 1000 700 l 1
 400 1300 l 1
 400 1400 l 1
 600 1400 l 1
 1200 800 l 1
 1200 600 l 1
 600 0 l 1
 1200 0 l 1
 1200 -200 l 1
 400 -200 l 1
 400 100 l 1
EndSplineSet
Validated: 1
EndChar

StartChar: partialdiff
Encoding: 218 8706 218
Width: 1600
VWidth: 1000
Flags: HMW
LayerCount: 2
Fore
SplineSet
200 300 m 1
 200 500 l 1
 500 800 l 1
 1200 800 l 1
 700 1300 l 1
 700 1400 l 1
 900 1400 l 1
 1400 900 l 1
 1400 300 l 1
 1100 0 l 1
 500 0 l 1
 200 300 l 1
400 400 m 1
 600 200 l 1
 1000 200 l 1
 1200 400 l 1
 1200 600 l 1
 600 600 l 1
 400 400 l 1
EndSplineSet
Validated: 1
EndChar

StartChar: summation
Encoding: 219 8721 219
Width: 1600
VWidth: 1000
Flags: HMW
LayerCount: 2
Fore
SplineSet
200 0 m 1
 200 200 l 1
 700 700 l 1
 200 1200 l 1
 200 1400 l 1
 1400 1400 l 1
 1400 1000 l 1
 1200 1000 l 1
 1200 1200 l 1
 500 1200 l 1
 900 800 l 1
 900 600 l 1
 500 200 l 1
 1200 200 l 1
 1200 400 l 1
 1400 400 l 1
 1400 0 l 1
 200 0 l 1
EndSplineSet
Validated: 1
EndChar

StartChar: product
Encoding: 220 8719 220
Width: 1600
VWidth: 1000
Flags: HMW
LayerCount: 2
Fore
SplineSet
200 0 m 1
 200 200 l 1
 300 200 l 1
 300 1200 l 1
 200 1200 l 1
 200 1400 l 1
 1400 1400 l 1
 1400 1200 l 1
 1300 1200 l 1
 1300 200 l 1
 1400 200 l 1
 1400 0 l 1
 1000 0 l 1
 1000 200 l 1
 1100 200 l 1
 1100 1200 l 1
 500 1200 l 1
 500 200 l 1
 600 200 l 1
 600 0 l 1
 200 0 l 1
EndSplineSet
Validated: 1
EndChar

StartChar: pi
Encoding: 221 960 221
Width: 1600
VWidth: 1000
Flags: HMW
LayerCount: 2
Fore
SplineSet
200 800 m 1
 200 1000 l 1
 1400 1000 l 1
 1400 800 l 1
 1200 800 l 1
 1200 0 l 1
 1000 0 l 1
 1000 800 l 1
 600 800 l 1
 600 0 l 1
 400 0 l 1
 400 800 l 1
 200 800 l 1
EndSplineSet
Validated: 1
EndChar

StartChar: integral
Encoding: 222 8747 222
Width: 1600
VWidth: 1000
Flags: HMW
LayerCount: 2
Fore
SplineSet
300 0 m 1
 500 0 l 1
 700 200 l 1
 700 1100 l 1
 1000 1400 l 1
 1300 1400 l 1
 1300 1200 l 1
 1100 1200 l 1
 900 1000 l 1
 900 100 l 1
 600 -200 l 1
 300 -200 l 1
 300 0 l 1
EndSplineSet
Validated: 1
EndChar

StartChar: Omega
Encoding: 223 8486 223
Width: 1600
VWidth: 1000
Flags: HMW
LayerCount: 2
Fore
SplineSet
200 0 m 1
 200 200 l 1
 400 200 l 1
 400 300 l 1
 200 500 l 1
 200 1100 l 1
 500 1400 l 1
 1100 1400 l 1
 1400 1100 l 1
 1400 500 l 1
 1200 300 l 1
 1200 200 l 1
 1400 200 l 1
 1400 0 l 1
 1000 0 l 1
 1000 400 l 1
 1200 600 l 1
 1200 1000 l 1
 1000 1200 l 1
 600 1200 l 1
 400 1000 l 1
 400 600 l 1
 600 400 l 1
 600 0 l 1
 200 0 l 1
EndSplineSet
Validated: 1
EndChar

StartChar: radical
Encoding: 224 8730 224
Width: 1600
VWidth: 1000
Flags: HMW
LayerCount: 2
Fore
SplineSet
200 600 m 1
 200 800 l 1
 600 800 l 1
 798 273 l 5
 1200 1400 l 1
 1400 1400 l 1
 900 0 l 1
 700 0 l 1
 475 600 l 1
 200 600 l 1
EndSplineSet
Validated: 1
EndChar

StartChar: approxequal
Encoding: 225 8776 225
Width: 1600
VWidth: 1000
Flags: HMW
LayerCount: 2
Fore
SplineSet
200 300 m 1
 200 400 l 1
 400 600 l 1
 750 600 l 1
 950 400 l 1
 1100 400 l 1
 1200 500 l 1
 1400 500 l 1
 1400 400 l 1
 1200 200 l 1
 850 200 l 1
 650 400 l 1
 500 400 l 1
 400 300 l 1
 200 300 l 1
200 900 m 1
 200 1000 l 1
 400 1200 l 1
 750 1200 l 1
 950 1000 l 1
 1100 1000 l 1
 1200 1100 l 1
 1400 1100 l 1
 1400 1000 l 1
 1200 800 l 1
 850 800 l 1
 650 1000 l 1
 500 1000 l 1
 400 900 l 1
 200 900 l 1
EndSplineSet
Validated: 1
EndChar

StartChar: Delta
Encoding: 226 8710 226
Width: 1600
VWidth: 1000
Flags: HMW
LayerCount: 2
Fore
SplineSet
200 0 m 1
 200 900 l 1
 700 1400 l 1
 900 1400 l 1
 1400 900 l 1
 1400 0 l 1
 200 0 l 1
400 200 m 1
 1200 200 l 1
 1200 800 l 1
 800 1200 l 1
 400 800 l 1
 400 200 l 1
EndSplineSet
Validated: 1
EndChar

StartChar: lozenge
Encoding: 227 9674 227
Width: 1600
VWidth: 1000
Flags: HMW
LayerCount: 2
Fore
SplineSet
300 700 m 1
 700 1400 l 1
 900 1400 l 1
 1300 700 l 1
 900 0 l 1
 700 0 l 1
 300 700 l 1
500 700 m 1
 800 150 l 1
 1100 700 l 1
 800 1250 l 1
 500 700 l 1
EndSplineSet
Validated: 1
EndChar

StartChar: fraction
Encoding: 228 8260 228
Width: 1600
VWidth: 1000
Flags: HMW
LayerCount: 2
Fore
SplineSet
300 0 m 1
 1100 1400 l 1
 1300 1400 l 1
 500 0 l 1
 300 0 l 1
EndSplineSet
Validated: 1
EndChar

StartChar: uniFB01
Encoding: 229 64257 229
Width: 1600
VWidth: 1000
Flags: HMW
LayerCount: 2
Fore
SplineSet
200 800 m 1
 200 1000 l 1
 400 1000 l 1
 400 1100 l 1
 700 1400 l 1
 1000 1400 l 1
 1000 1200 l 1
 800 1200 l 1
 600 1000 l 1
 1200 1000 l 1
 1200 200 l 1
 1400 200 l 1
 1400 0 l 1
 800 0 l 1
 800 200 l 1
 1000 200 l 1
 1000 800 l 1
 600 800 l 1
 600 0 l 1
 400 0 l 1
 400 800 l 1
 200 800 l 1
EndSplineSet
Validated: 1
EndChar

StartChar: uniFB02
Encoding: 230 64258 230
Width: 1600
VWidth: 1000
Flags: HMW
LayerCount: 2
Fore
SplineSet
200 800 m 1
 200 1000 l 1
 400 1000 l 1
 400 1100 l 1
 700 1400 l 1
 1200 1400 l 1
 1200 200 l 1
 1400 200 l 1
 1400 0 l 1
 800 0 l 1
 800 200 l 1
 1000 200 l 1
 1000 1200 l 1
 800 1200 l 1
 600 1000 l 1
 800 1000 l 1
 800 800 l 1
 600 800 l 1
 600 0 l 1
 400 0 l 1
 400 800 l 1
 200 800 l 1
EndSplineSet
Validated: 1
EndChar

StartChar: uni0237
Encoding: 231 567 231
Width: 1600
VWidth: 1000
Flags: HMW
LayerCount: 2
Fore
SplineSet
200 100 m 1
 200 200 l 1
 400 200 l 1
 600 0 l 1
 1000 0 l 1
 1200 200 l 1
 1200 800 l 1
 200 800 l 1
 200 1000 l 1
 1400 1000 l 1
 1400 100 l 1
 1100 -200 l 1
 500 -200 l 1
 200 100 l 1
EndSplineSet
Validated: 1
EndChar

StartChar: dotlessi
Encoding: 232 305 232
Width: 1600
VWidth: 1000
Flags: HMW
LayerCount: 2
Fore
SplineSet
200 0 m 1
 200 200 l 1
 700 200 l 1
 700 800 l 1
 200 800 l 1
 200 1000 l 1
 900 1000 l 1
 900 200 l 1
 1400 200 l 1
 1400 0 l 1
 200 0 l 1
EndSplineSet
Validated: 1
EndChar

StartChar: breve
Encoding: 233 728 233
Width: 1600
VWidth: 1000
Flags: HMW
LayerCount: 2
Fore
SplineSet
400 1300 m 1
 400 1400 l 1
 600 1400 l 1
 700 1300 l 1
 900 1300 l 1
 1000 1400 l 1
 1200 1400 l 1
 1200 1300 l 1
 1000 1100 l 1
 600 1100 l 1
 400 1300 l 1
EndSplineSet
Validated: 1
EndChar

StartChar: dotaccent
Encoding: 234 729 234
Width: 1600
VWidth: 1000
Flags: HMW
LayerCount: 2
Fore
SplineSet
700 1200 m 1
 700 1400 l 1
 900 1400 l 1
 900 1200 l 1
 700 1200 l 1
EndSplineSet
Validated: 1
EndChar

StartChar: ring
Encoding: 235 730 235
Width: 1600
VWidth: 1000
Flags: HMW
LayerCount: 2
Fore
SplineSet
500 1100 m 1
 500 1300 l 1
 600 1400 l 1
 1000 1400 l 1
 1100 1300 l 1
 1100 1100 l 1
 1000 1000 l 1
 600 1000 l 1
 500 1100 l 1
700 1100 m 1
 900 1100 l 1
 900 1300 l 1
 700 1300 l 1
 700 1100 l 1
EndSplineSet
Validated: 1
EndChar

StartChar: hungarumlaut
Encoding: 236 733 236
Width: 1600
VWidth: 1000
Flags: HMW
LayerCount: 2
Fore
SplineSet
400 1100 m 1
 400 1200 l 1
 600 1400 l 1
 800 1400 l 1
 800 1300 l 1
 600 1100 l 1
 400 1100 l 1
1000 1100 m 1
 1000 1200 l 1
 1200 1400 l 1
 1400 1400 l 1
 1400 1300 l 1
 1200 1100 l 1
 1000 1100 l 1
EndSplineSet
Validated: 1
EndChar

StartChar: ogonek
Encoding: 237 731 237
Width: 1600
VWidth: 1000
Flags: HMW
LayerCount: 2
Fore
SplineSet
700 0 m 1
 750 200 l 1
 900 200 l 1
 850 0 l 1
 900 0 l 1
 900 -200 l 1
 800 -200 l 1
 700 -100 l 1
 700 0 l 1
EndSplineSet
Validated: 1
EndChar

StartChar: caron
Encoding: 238 711 238
Width: 1600
VWidth: 1000
Flags: HMW
LayerCount: 2
Fore
SplineSet
500 1300 m 1
 500 1400 l 1
 700 1400 l 1
 800 1300 l 1
 900 1400 l 1
 1100 1400 l 1
 1100 1300 l 1
 900 1100 l 1
 700 1100 l 1
 500 1300 l 1
EndSplineSet
Validated: 1
EndChar

StartChar: uni02C8
Encoding: 239 712 239
Width: 1600
VWidth: 1000
Flags: HMW
LayerCount: 2
Fore
SplineSet
700 1100 m 1
 700 1400 l 1
 900 1400 l 1
 900 1100 l 1
 700 1100 l 1
EndSplineSet
Validated: 1
EndChar

StartChar: uni02C9
Encoding: 240 713 240
Width: 1600
VWidth: 1000
Flags: HMW
LayerCount: 2
Fore
SplineSet
500 1200 m 1
 500 1400 l 1
 1100 1400 l 1
 1100 1200 l 1
 500 1200 l 1
EndSplineSet
Validated: 1
EndChar

StartChar: uni02CA
Encoding: 241 714 241
Width: 1600
VWidth: 1000
Flags: HMW
LayerCount: 2
Fore
SplineSet
700 1100 m 1
 700 1200 l 1
 900 1400 l 1
 1100 1400 l 1
 1100 1300 l 1
 900 1100 l 1
 700 1100 l 1
EndSplineSet
Validated: 1
EndChar

StartChar: uni02CB
Encoding: 242 715 242
Width: 1600
VWidth: 1000
Flags: HMW
LayerCount: 2
Fore
SplineSet
500 1300 m 1
 500 1400 l 1
 700 1400 l 1
 900 1200 l 1
 900 1100 l 1
 700 1100 l 1
 500 1300 l 1
EndSplineSet
Validated: 1
EndChar

StartChar: zero.zero
Encoding: 243 -1 243
Width: 1600
VWidth: 1000
Flags: HMW
LayerCount: 2
Fore
SplineSet
200 400 m 1
 200 1000 l 1
 600 1400 l 1
 1000 1400 l 1
 1400 1000 l 1
 1400 400 l 1
 1000 0 l 1
 600 0 l 1
 200 400 l 1
400 500 m 1
 700 200 l 1
 900 200 l 1
 1025 325 l 1
 425 925 l 1
 400 900 l 1
 400 500 l 1
575 1075 m 1
 1175 475 l 1
 1200 500 l 1
 1200 900 l 1
 900 1200 l 1
 700 1200 l 1
 575 1075 l 1
EndSplineSet
Validated: 1
EndChar

StartChar: i.locl
Encoding: 244 -1 244
Width: 1600
VWidth: 1000
Flags: HMW
LayerCount: 2
Fore
SplineSet
200 0 m 1
 200 200 l 1
 700 200 l 1
 700 800 l 1
 200 800 l 1
 200 1000 l 1
 900 1000 l 1
 900 200 l 1
 1400 200 l 1
 1400 0 l 1
 200 0 l 1
700 1200 m 1
 700 1400 l 1
 900 1400 l 1
 900 1200 l 1
 700 1200 l 1
EndSplineSet
Validated: 1
EndChar

StartChar: iacute.locl
Encoding: 245 -1 245
Width: 1600
VWidth: 1000
Flags: HMW
LayerCount: 2
Fore
SplineSet
200 0 m 1
 200 200 l 1
 700 200 l 1
 700 600 l 1
 200 600 l 1
 200 800 l 1
 900 800 l 1
 900 200 l 1
 1400 200 l 1
 1400 0 l 1
 200 0 l 1
700 900 m 1
 700 1100 l 1
 900 1100 l 1
 900 900 l 1
 700 900 l 1
700 1200 m 1
 700 1300 l 1
 900 1400 l 1
 1100 1400 l 1
 1100 1300 l 1
 900 1200 l 1
 700 1200 l 1
EndSplineSet
Validated: 1
EndChar

StartChar: periodcentered.CATC
Encoding: 246 -1 246
Width: 0
VWidth: 1000
Flags: HMW
LayerCount: 2
Fore
SplineSet
-600 600 m 1
 -600 800 l 1
 -400 800 l 1
 -400 600 l 1
 -600 600 l 1
EndSplineSet
Validated: 1
EndChar

StartChar: periodcentered.CATL
Encoding: 247 -1 247
Width: 0
VWidth: 1000
Flags: HMW
LayerCount: 2
Fore
SplineSet
-100 600 m 1
 -100 800 l 1
 100 800 l 1
 100 600 l 1
 -100 600 l 1
EndSplineSet
Validated: 1
EndChar

StartChar: Jacute
Encoding: 248 -1 248
Width: 1600
VWidth: 1000
Flags: HMW
LayerCount: 2
Fore
SplineSet
200 300 m 1
 200 400 l 1
 400 400 l 1
 600 200 l 1
 700 200 l 1
 900 400 l 1
 900 800 l 1
 600 800 l 1
 600 1000 l 1
 1400 1000 l 1
 1400 800 l 1
 1100 800 l 1
 1100 300 l 1
 800 0 l 1
 500 0 l 1
 200 300 l 1
900 1100 m 1
 900 1200 l 1
 1100 1400 l 1
 1300 1400 l 1
 1300 1300 l 1
 1100 1100 l 1
 900 1100 l 1
EndSplineSet
Validated: 1
EndChar

StartChar: jacute
Encoding: 249 -1 249
Width: 1600
VWidth: 1000
Flags: HMW
LayerCount: 2
Fore
SplineSet
200 100 m 1
 200 200 l 1
 400 200 l 1
 600 0 l 1
 1000 0 l 1
 1200 200 l 1
 1200 800 l 1
 200 800 l 1
 200 1000 l 1
 1400 1000 l 1
 1400 100 l 1
 1100 -200 l 1
 500 -200 l 1
 200 100 l 1
700 1100 m 1
 700 1200 l 1
 900 1400 l 1
 1100 1400 l 1
 1100 1300 l 1
 900 1100 l 1
 700 1100 l 1
EndSplineSet
Validated: 1
EndChar

StartChar: uniF001
Encoding: 250 61441 250
Width: 1600
VWidth: 1000
Flags: HMW
LayerCount: 2
Fore
SplineSet
200 800 m 1
 200 1000 l 1
 400 1000 l 1
 400 1100 l 1
 700 1400 l 1
 1000 1400 l 1
 1000 1200 l 1
 800 1200 l 1
 600 1000 l 1
 1200 1000 l 1
 1200 200 l 1
 1400 200 l 1
 1400 0 l 1
 800 0 l 1
 800 200 l 1
 1000 200 l 1
 1000 800 l 1
 600 800 l 1
 600 0 l 1
 400 0 l 1
 400 800 l 1
 200 800 l 1
EndSplineSet
Validated: 1
EndChar

StartChar: uniF002
Encoding: 251 61442 251
Width: 1600
VWidth: 1000
Flags: HMW
LayerCount: 2
Fore
SplineSet
200 800 m 1
 200 1000 l 1
 400 1000 l 1
 400 1100 l 1
 700 1400 l 1
 1200 1400 l 1
 1200 200 l 1
 1400 200 l 1
 1400 0 l 1
 800 0 l 1
 800 200 l 1
 1000 200 l 1
 1000 1200 l 1
 800 1200 l 1
 600 1000 l 1
 800 1000 l 1
 800 800 l 1
 600 800 l 1
 600 0 l 1
 400 0 l 1
 400 800 l 1
 200 800 l 1
EndSplineSet
Validated: 1
EndChar

StartChar: franc
Encoding: 252 8355 252
Width: 1600
VWidth: 1000
Flags: HMW
LayerCount: 2
Fore
SplineSet
200 200 m 1
 200 400 l 1
 400 400 l 1
 400 1400 l 1
 1400 1400 l 1
 1400 1200 l 1
 600 1200 l 1
 600 800 l 1
 1200 800 l 1
 1200 600 l 1
 600 600 l 1
 600 400 l 1
 800 400 l 1
 800 200 l 1
 600 200 l 1
 600 0 l 1
 400 0 l 1
 400 200 l 1
 200 200 l 1
EndSplineSet
Validated: 1
EndChar

StartChar: lira
Encoding: 253 8356 253
Width: 1600
VWidth: 1000
Flags: HMW
LayerCount: 2
Fore
SplineSet
200 0 m 1
 200 200 l 1
 400 400 l 1
 600 400 l 1
 600 600 l 1
 300 600 l 1
 300 700 l 1
 600 700 l 1
 600 800 l 1
 300 800 l 1
 300 900 l 1
 600 900 l 1
 600 1100 l 1
 900 1400 l 1
 1100 1400 l 1
 1400 1100 l 1
 1400 1000 l 1
 1200 1000 l 1
 1000 1200 l 1
 800 1000 l 1
 800 900 l 1
 1100 900 l 1
 1100 800 l 1
 800 800 l 1
 800 700 l 1
 1100 700 l 1
 1100 600 l 1
 800 600 l 1
 800 400 l 1
 1100 400 l 1
 1400 100 l 1
 1400 0 l 1
 1200 0 l 1
 1000 200 l 1
 800 200 l 1
 600 0 l 1
 200 0 l 1
EndSplineSet
Validated: 1
EndChar

StartChar: peseta
Encoding: 254 8359 254
Width: 1600
VWidth: 1000
Flags: HMW
LayerCount: 2
Fore
SplineSet
100 0 m 1
 100 1400 l 1
 400 1400 l 1
 700 1100 l 1
 700 900 l 1
 400 600 l 1
 300 600 l 1
 300 0 l 1
 100 0 l 1
300 800 m 1
 500 1000 l 1
 300 1200 l 1
 300 800 l 1
900 800 m 1
 900 1000 l 1
 1100 1000 l 1
 1100 1400 l 1
 1300 1400 l 1
 1300 1000 l 1
 1500 1000 l 1
 1500 800 l 1
 1300 800 l 1
 1300 0 l 1
 1100 0 l 1
 1100 800 l 1
 900 800 l 1
EndSplineSet
Validated: 1
EndChar

StartChar: uni20A9
Encoding: 255 8361 255
Width: 1600
VWidth: 1000
Flags: HMW
LayerCount: 2
Fore
SplineSet
100 600 m 1
 100 800 l 1
 200 800 l 1
 200 1000 l 1
 100 1000 l 1
 100 1200 l 1
 200 1200 l 1
 200 1400 l 1
 400 1400 l 1
 400 1200 l 1
 700 1200 l 1
 700 1400 l 1
 900 1400 l 1
 900 1200 l 1
 1200 1200 l 1
 1200 1400 l 1
 1400 1400 l 1
 1400 1200 l 1
 1500 1200 l 1
 1500 1000 l 1
 1400 1000 l 1
 1400 800 l 1
 1500 800 l 1
 1500 600 l 1
 1400 600 l 1
 1400 250 l 1
 1150 0 l 1
 950 0 l 1
 800 150 l 1
 650 0 l 1
 450 0 l 1
 200 250 l 1
 200 600 l 1
 100 600 l 1
400 350 m 1
 550 200 l 1
 700 350 l 1
 700 600 l 1
 400 600 l 1
 400 350 l 1
400 800 m 1
 700 800 l 1
 700 1000 l 1
 400 1000 l 1
 400 800 l 1
900 350 m 1
 1050 200 l 1
 1200 350 l 1
 1200 600 l 1
 900 600 l 1
 900 350 l 1
900 800 m 1
 1200 800 l 1
 1200 1000 l 1
 900 1000 l 1
 900 800 l 1
EndSplineSet
Validated: 1
EndChar

StartChar: filledbox
Encoding: 256 9632 256
Width: 1600
VWidth: 1000
Flags: HMW
LayerCount: 2
Fore
SplineSet
200 0 m 25
 200 1200 l 25
 1400 1200 l 25
 1400 0 l 25
 200 0 l 25
EndSplineSet
Validated: 1
EndChar

StartChar: H22073
Encoding: 257 9633 257
Width: 1600
VWidth: 1000
Flags: HMW
LayerCount: 2
Fore
SplineSet
200 0 m 25
 200 1200 l 25
 1400 1200 l 25
 1400 0 l 25
 200 0 l 25
400 200 m 25
 1200 200 l 25
 1200 1000 l 25
 400 1000 l 25
 400 200 l 25
EndSplineSet
Validated: 1
EndChar

StartChar: H18543
Encoding: 258 9642 258
Width: 1600
VWidth: 1000
Flags: HMW
LayerCount: 2
Fore
SplineSet
400 200 m 25
 400 1000 l 25
 1200 1000 l 25
 1200 200 l 25
 400 200 l 25
EndSplineSet
Validated: 1
EndChar

StartChar: H18551
Encoding: 259 9643 259
Width: 1600
VWidth: 1000
Flags: HMW
LayerCount: 2
Fore
SplineSet
400 200 m 25
 400 1000 l 25
 1200 1000 l 25
 1200 200 l 25
 400 200 l 25
600 400 m 25
 1000 400 l 25
 1000 800 l 25
 600 800 l 25
 600 400 l 25
EndSplineSet
Validated: 1
EndChar

StartChar: filledrect
Encoding: 260 9644 260
Width: 1600
VWidth: 1000
Flags: HMW
LayerCount: 2
Fore
SplineSet
0 200 m 25
 0 1000 l 25
 1600 1000 l 25
 1600 200 l 25
 0 200 l 25
EndSplineSet
Validated: 1
EndChar

StartChar: triagup
Encoding: 261 9650 261
Width: 1600
VWidth: 1000
Flags: HMW
LayerCount: 2
Fore
SplineSet
200 0 m 1
 800 1200 l 1
 1400 0 l 1
 200 0 l 1
EndSplineSet
Validated: 1
EndChar

StartChar: triagrt
Encoding: 262 9658 262
Width: 1600
VWidth: 1000
Flags: HMW
LayerCount: 2
Fore
SplineSet
200 200 m 1
 200 1000 l 1
 1400 600 l 1
 200 200 l 1
EndSplineSet
Validated: 1
EndChar

StartChar: triagdn
Encoding: 263 9660 263
Width: 1600
VWidth: 1000
Flags: HMW
LayerCount: 2
Fore
SplineSet
200 1200 m 1
 1400 1200 l 1
 800 0 l 1
 200 1200 l 1
EndSplineSet
Validated: 1
EndChar

StartChar: triaglf
Encoding: 264 9668 264
Width: 1600
VWidth: 1000
Flags: HMW
LayerCount: 2
Fore
SplineSet
200 600 m 1
 1400 1000 l 1
 1400 200 l 1
 200 600 l 1
EndSplineSet
Validated: 1
EndChar

StartChar: circle
Encoding: 265 9675 265
Width: 1600
VWidth: 1000
Flags: HMW
LayerCount: 2
Fore
SplineSet
200 600 m 0
 200 931 469 1200 800 1200 c 0
 1131 1200 1400 931 1400 600 c 0
 1400 269 1131 0 800 0 c 0
 469 0 200 269 200 600 c 0
400 600 m 0
 400 379 579 200 800 200 c 0
 1021 200 1200 379 1200 600 c 0
 1200 821 1021 1000 800 1000 c 0
 579 1000 400 821 400 600 c 0
EndSplineSet
Validated: 1
EndChar

StartChar: uni25CC
Encoding: 266 9676 266
Width: 1600
VWidth: 1000
Flags: HMW
LayerCount: 2
Fore
SplineSet
200 500 m 1
 200 700 l 1
 400 700 l 1
 400 500 l 1
 200 500 l 1
350 150 m 1
 350 350 l 1
 550 350 l 1
 550 150 l 1
 350 150 l 1
350 850 m 1
 350 1050 l 1
 550 1050 l 1
 550 850 l 1
 350 850 l 1
700 0 m 1
 700 200 l 1
 900 200 l 1
 900 0 l 1
 700 0 l 1
700 1000 m 1
 700 1200 l 1
 900 1200 l 1
 900 1000 l 1
 700 1000 l 1
1050 150 m 1
 1050 350 l 1
 1250 350 l 1
 1250 150 l 1
 1050 150 l 1
1050 850 m 1
 1050 1050 l 1
 1250 1050 l 1
 1250 850 l 1
 1050 850 l 1
1200 500 m 1
 1200 700 l 1
 1400 700 l 1
 1400 500 l 1
 1200 500 l 1
EndSplineSet
Validated: 1
EndChar

StartChar: H18533
Encoding: 267 9679 267
Width: 1600
VWidth: 1000
Flags: HMW
LayerCount: 2
Fore
SplineSet
200 600 m 0
 200 931 469 1200 800 1200 c 0
 1131 1200 1400 931 1400 600 c 0
 1400 269 1131 0 800 0 c 0
 469 0 200 269 200 600 c 0
EndSplineSet
Validated: 1
EndChar

StartChar: invbullet
Encoding: 268 9688 268
Width: 1600
VWidth: 1000
Flags: HMW
LayerCount: 2
Fore
SplineSet
0 -200 m 25
 0 1400 l 25
 1600 1400 l 25
 1600 -200 l 25
 0 -200 l 25
600 500 m 1
 700 400 l 1
 900 400 l 1
 1000 500 l 1
 1000 700 l 1
 900 800 l 1
 700 800 l 1
 600 700 l 1
 600 500 l 1
EndSplineSet
Validated: 1
EndChar

StartChar: invcircle
Encoding: 269 9689 269
Width: 1600
VWidth: 1000
Flags: HMW
LayerCount: 2
Fore
SplineSet
0 -200 m 1
 0 1400 l 1
 1600 1400 l 1
 1600 -200 l 1
 0 -200 l 1
200 600 m 0
 200 269 469 0 800 0 c 0
 1131 0 1400 269 1400 600 c 0
 1400 931 1131 1200 800 1200 c 0
 469 1200 200 931 200 600 c 0
400 600 m 0
 400 821 579 1000 800 1000 c 0
 1021 1000 1200 821 1200 600 c 0
 1200 379 1021 200 800 200 c 0
 579 200 400 379 400 600 c 0
EndSplineSet
Validated: 1
EndChar

StartChar: openbullet
Encoding: 270 9702 270
Width: 1600
VWidth: 1000
Flags: HMW
LayerCount: 2
Fore
SplineSet
400 600 m 0
 400 821 579 1000 800 1000 c 0
 1021 1000 1200 821 1200 600 c 0
 1200 379 1021 200 800 200 c 0
 579 200 400 379 400 600 c 0
600 600 m 0
 600 490 690 400 800 400 c 0
 910 400 1000 490 1000 600 c 0
 1000 710 910 800 800 800 c 0
 690 800 600 710 600 600 c 0
EndSplineSet
Validated: 1
EndChar

StartChar: upblock
Encoding: 271 9600 271
Width: 1600
VWidth: 1000
Flags: HMW
LayerCount: 2
Fore
SplineSet
0 600 m 25
 0 1400 l 25
 1600 1400 l 25
 1600 600 l 25
 0 600 l 25
EndSplineSet
Validated: 1
EndChar

StartChar: uni2581
Encoding: 272 9601 272
Width: 1600
VWidth: 1000
Flags: HMW
LayerCount: 2
Fore
SplineSet
0 0 m 25
 1600 0 l 25
 1600 -200 l 25
 0 -200 l 25
 0 0 l 25
EndSplineSet
Validated: 1
EndChar

StartChar: uni2582
Encoding: 273 9602 273
Width: 1600
VWidth: 1000
Flags: HMW
LayerCount: 2
Fore
SplineSet
0 200 m 25
 1600 200 l 25
 1600 -200 l 25
 0 -200 l 25
 0 200 l 25
EndSplineSet
Validated: 1
EndChar

StartChar: uni2583
Encoding: 274 9603 274
Width: 1600
VWidth: 1000
Flags: HMW
LayerCount: 2
Fore
SplineSet
0 -200 m 25
 0 400 l 25
 1600 400 l 25
 1600 -200 l 25
 0 -200 l 25
EndSplineSet
Validated: 1
EndChar

StartChar: dnblock
Encoding: 275 9604 275
Width: 1600
VWidth: 1000
Flags: HMW
LayerCount: 2
Fore
SplineSet
0 -200 m 25
 0 600 l 25
 1600 600 l 25
 1600 -200 l 25
 0 -200 l 25
EndSplineSet
Validated: 1
EndChar

StartChar: uni2585
Encoding: 276 9605 276
Width: 1600
VWidth: 1000
Flags: HMW
LayerCount: 2
Fore
SplineSet
0 -200 m 25
 0 800 l 25
 1600 800 l 25
 1600 -200 l 25
 0 -200 l 25
EndSplineSet
Validated: 1
EndChar

StartChar: uni2586
Encoding: 277 9606 277
Width: 1600
VWidth: 1000
Flags: HMW
LayerCount: 2
Fore
SplineSet
0 -200 m 25
 0 1000 l 25
 1600 1000 l 25
 1600 -200 l 25
 0 -200 l 25
EndSplineSet
Validated: 1
EndChar

StartChar: uni2587
Encoding: 278 9607 278
Width: 1600
VWidth: 1000
Flags: HMW
LayerCount: 2
Fore
SplineSet
0 -200 m 25
 0 1200 l 25
 1600 1200 l 25
 1600 -200 l 25
 0 -200 l 25
EndSplineSet
Validated: 1
EndChar

StartChar: block
Encoding: 279 9608 279
Width: 1600
VWidth: 1000
Flags: HMW
LayerCount: 2
Fore
SplineSet
0 -200 m 25
 0 1400 l 25
 1600 1400 l 25
 1600 -200 l 25
 0 -200 l 25
EndSplineSet
Validated: 1
EndChar

StartChar: uni2589
Encoding: 280 9609 280
Width: 1600
VWidth: 1000
Flags: HMW
LayerCount: 2
Fore
SplineSet
0 -200 m 25
 0 1400 l 25
 1400 1400 l 25
 1400 -200 l 25
 0 -200 l 25
EndSplineSet
Validated: 1
EndChar

StartChar: uni258A
Encoding: 281 9610 281
Width: 1600
VWidth: 1000
Flags: HMW
LayerCount: 2
Fore
SplineSet
0 -200 m 25
 0 1400 l 25
 1200 1400 l 25
 1200 -200 l 25
 0 -200 l 25
EndSplineSet
Validated: 1
EndChar

StartChar: uni258B
Encoding: 282 9611 282
Width: 1600
VWidth: 1000
Flags: HMW
LayerCount: 2
Fore
SplineSet
0 -200 m 25
 0 1400 l 25
 1000 1400 l 25
 1000 -200 l 25
 0 -200 l 25
EndSplineSet
Validated: 1
EndChar

StartChar: lfblock
Encoding: 283 9612 283
Width: 1600
VWidth: 1000
Flags: HMW
LayerCount: 2
Fore
SplineSet
0 -200 m 25
 0 1400 l 25
 800 1400 l 25
 800 -200 l 25
 0 -200 l 25
EndSplineSet
Validated: 1
EndChar

StartChar: uni258D
Encoding: 284 9613 284
Width: 1600
VWidth: 1000
Flags: HMW
LayerCount: 2
Fore
SplineSet
0 -200 m 25
 0 1400 l 25
 600 1400 l 25
 600 -200 l 25
 0 -200 l 25
EndSplineSet
Validated: 1
EndChar

StartChar: uni258E
Encoding: 285 9614 285
Width: 1600
VWidth: 1000
Flags: HMW
LayerCount: 2
Fore
SplineSet
0 -200 m 25
 0 1400 l 25
 400 1400 l 25
 400 -200 l 25
 0 -200 l 25
EndSplineSet
Validated: 1
EndChar

StartChar: uni258F
Encoding: 286 9615 286
Width: 1600
VWidth: 1000
Flags: HMW
LayerCount: 2
Fore
SplineSet
0 -200 m 25
 0 1400 l 25
 200 1400 l 25
 200 -200 l 25
 0 -200 l 25
EndSplineSet
Validated: 1
EndChar

StartChar: rtblock
Encoding: 287 9616 287
Width: 1600
VWidth: 1000
Flags: HMW
LayerCount: 2
Fore
SplineSet
800 -200 m 25
 800 1400 l 25
 1600 1400 l 25
 1600 -200 l 25
 800 -200 l 25
EndSplineSet
Validated: 1
EndChar

StartChar: ltshade
Encoding: 288 9617 288
Width: 1600
VWidth: 1000
Flags: HMW
LayerCount: 2
Fore
SplineSet
0 400 m 25
 0 600 l 25
 200 600 l 25
 200 400 l 25
 0 400 l 25
0 1200 m 25
 0 1400 l 25
 200 1400 l 25
 200 1200 l 25
 0 1200 l 25
200 0 m 25
 200 200 l 25
 400 200 l 25
 400 0 l 25
 200 0 l 25
200 800 m 25
 200 1000 l 25
 400 1000 l 25
 400 800 l 25
 200 800 l 25
400 400 m 25
 400 600 l 25
 600 600 l 25
 600 400 l 25
 400 400 l 25
400 1200 m 25
 400 1400 l 25
 600 1400 l 25
 600 1200 l 25
 400 1200 l 25
600 0 m 25
 600 200 l 25
 800 200 l 25
 800 0 l 25
 600 0 l 25
600 800 m 25
 600 1000 l 25
 800 1000 l 25
 800 800 l 25
 600 800 l 25
800 400 m 25
 800 600 l 25
 1000 600 l 25
 1000 400 l 25
 800 400 l 25
800 1200 m 25
 800 1400 l 25
 1000 1400 l 25
 1000 1200 l 25
 800 1200 l 25
1000 0 m 25
 1000 200 l 25
 1200 200 l 25
 1200 0 l 25
 1000 0 l 25
1000 800 m 25
 1000 1000 l 25
 1200 1000 l 25
 1200 800 l 25
 1000 800 l 25
1200 400 m 25
 1200 600 l 25
 1400 600 l 25
 1400 400 l 25
 1200 400 l 25
1200 1200 m 25
 1200 1400 l 25
 1400 1400 l 25
 1400 1200 l 25
 1200 1200 l 25
1400 0 m 25
 1400 200 l 25
 1600 200 l 25
 1600 0 l 25
 1400 0 l 25
1400 800 m 25
 1400 1000 l 25
 1600 1000 l 25
 1600 800 l 25
 1400 800 l 25
EndSplineSet
Validated: 1
EndChar

StartChar: shade
Encoding: 289 9618 289
Width: 1600
VWidth: 1000
Flags: HMW
LayerCount: 2
Fore
SplineSet
0 0 m 25
 0 200 l 25
 200 200 l 25
 200 0 l 25
 0 0 l 25
0 400 m 25
 0 600 l 25
 200 600 l 25
 200 400 l 25
 0 400 l 25
0 800 m 25
 0 1000 l 25
 200 1000 l 25
 200 800 l 25
 0 800 l 25
0 1200 m 25
 0 1400 l 25
 200 1400 l 25
 200 1200 l 25
 0 1200 l 25
200 0 m 25
 400 0 l 25
 400 -200 l 25
 200 -200 l 25
 200 0 l 25
200 200 m 25
 200 400 l 25
 400 400 l 25
 400 200 l 25
 200 200 l 25
200 600 m 25
 200 800 l 25
 400 800 l 25
 400 600 l 25
 200 600 l 25
200 1000 m 25
 200 1200 l 25
 400 1200 l 25
 400 1000 l 25
 200 1000 l 25
400 0 m 25
 400 200 l 25
 600 200 l 25
 600 0 l 25
 400 0 l 25
400 400 m 25
 400 600 l 25
 600 600 l 25
 600 400 l 25
 400 400 l 25
400 800 m 25
 400 1000 l 25
 600 1000 l 25
 600 800 l 25
 400 800 l 25
400 1200 m 25
 400 1400 l 25
 600 1400 l 25
 600 1200 l 25
 400 1200 l 25
600 0 m 25
 800 0 l 25
 800 -200 l 25
 600 -200 l 25
 600 0 l 25
600 200 m 25
 600 400 l 25
 800 400 l 25
 800 200 l 25
 600 200 l 25
600 600 m 25
 600 800 l 25
 800 800 l 25
 800 600 l 25
 600 600 l 25
600 1000 m 25
 600 1200 l 25
 800 1200 l 25
 800 1000 l 25
 600 1000 l 25
800 0 m 25
 800 200 l 25
 1000 200 l 25
 1000 0 l 25
 800 0 l 25
800 400 m 25
 800 600 l 25
 1000 600 l 25
 1000 400 l 25
 800 400 l 25
800 800 m 25
 800 1000 l 25
 1000 1000 l 25
 1000 800 l 25
 800 800 l 25
800 1200 m 25
 800 1400 l 25
 1000 1400 l 25
 1000 1200 l 25
 800 1200 l 25
1000 0 m 25
 1200 0 l 25
 1200 -200 l 25
 1000 -200 l 25
 1000 0 l 25
1000 200 m 25
 1000 400 l 25
 1200 400 l 25
 1200 200 l 25
 1000 200 l 25
1000 600 m 25
 1000 800 l 25
 1200 800 l 25
 1200 600 l 25
 1000 600 l 25
1000 1000 m 25
 1000 1200 l 25
 1200 1200 l 25
 1200 1000 l 25
 1000 1000 l 25
1200 0 m 25
 1200 200 l 25
 1400 200 l 25
 1400 0 l 25
 1200 0 l 25
1200 400 m 25
 1200 600 l 25
 1400 600 l 25
 1400 400 l 25
 1200 400 l 25
1200 800 m 25
 1200 1000 l 25
 1400 1000 l 25
 1400 800 l 25
 1200 800 l 25
1200 1200 m 25
 1200 1400 l 25
 1400 1400 l 25
 1400 1200 l 25
 1200 1200 l 25
1400 0 m 25
 1600 0 l 25
 1600 -200 l 25
 1400 -200 l 25
 1400 0 l 25
1400 200 m 25
 1400 400 l 25
 1600 400 l 25
 1600 200 l 25
 1400 200 l 25
1400 600 m 25
 1400 800 l 25
 1600 800 l 25
 1600 600 l 25
 1400 600 l 25
1400 1000 m 25
 1400 1200 l 25
 1600 1200 l 25
 1600 1000 l 25
 1400 1000 l 25
EndSplineSet
Validated: 5
EndChar

StartChar: dkshade
Encoding: 290 9619 290
Width: 1600
VWidth: 1000
Flags: HMW
LayerCount: 2
Fore
SplineSet
0 0 m 1
 0 600 l 1
 200 600 l 1
 200 800 l 1
 0 800 l 1
 0 1400 l 1
 1600 1400 l 1
 1600 1200 l 1
 1400 1200 l 1
 1400 1000 l 1
 1600 1000 l 1
 1600 400 l 1
 1400 400 l 1
 1400 200 l 1
 1600 200 l 1
 1600 -200 l 1
 1400 -200 l 1
 1400 0 l 1
 1200 0 l 1
 1200 -200 l 1
 1000 -200 l 1
 1000 0 l 1
 800 0 l 1
 800 -200 l 1
 600 -200 l 1
 600 0 l 1
 400 0 l 1
 400 -200 l 1
 200 -200 l 1
 200 0 l 1
 0 0 l 1
200 200 m 1
 400 200 l 1
 400 400 l 1
 200 400 l 1
 200 200 l 1
200 1000 m 1
 400 1000 l 1
 400 1200 l 1
 200 1200 l 1
 200 1000 l 1
400 600 m 1
 600 600 l 1
 600 800 l 1
 400 800 l 1
 400 600 l 1
600 200 m 1
 800 200 l 1
 800 400 l 1
 600 400 l 1
 600 200 l 1
600 1000 m 1
 800 1000 l 1
 800 1200 l 1
 600 1200 l 1
 600 1000 l 1
800 600 m 1
 1000 600 l 1
 1000 800 l 1
 800 800 l 1
 800 600 l 1
1000 200 m 1
 1200 200 l 1
 1200 400 l 1
 1000 400 l 1
 1000 200 l 1
1000 1000 m 1
 1200 1000 l 1
 1200 1200 l 1
 1000 1200 l 1
 1000 1000 l 1
1200 600 m 1
 1400 600 l 1
 1400 800 l 1
 1200 800 l 1
 1200 600 l 1
EndSplineSet
Validated: 1
EndChar

StartChar: uni2594
Encoding: 291 9620 291
Width: 1600
VWidth: 1000
Flags: HMW
LayerCount: 2
Fore
SplineSet
0 1200 m 25
 0 1400 l 25
 1600 1400 l 25
 1600 1200 l 25
 0 1200 l 25
EndSplineSet
Validated: 1
EndChar

StartChar: uni2595
Encoding: 292 9621 292
Width: 1600
VWidth: 1000
Flags: HMW
LayerCount: 2
Fore
SplineSet
1400 -200 m 25
 1400 1400 l 25
 1600 1400 l 25
 1600 -200 l 25
 1400 -200 l 25
EndSplineSet
Validated: 1
EndChar

StartChar: uni2596
Encoding: 293 9622 293
Width: 1600
VWidth: 1000
Flags: HMW
LayerCount: 2
Fore
SplineSet
0 -200 m 25
 0 600 l 25
 800 600 l 25
 800 -200 l 25
 0 -200 l 25
EndSplineSet
Validated: 1
EndChar

StartChar: uni2597
Encoding: 294 9623 294
Width: 1600
VWidth: 1000
Flags: HMW
LayerCount: 2
Fore
SplineSet
800 -200 m 25
 800 600 l 25
 1600 600 l 25
 1600 -200 l 25
 800 -200 l 25
EndSplineSet
Validated: 1
EndChar

StartChar: uni2598
Encoding: 295 9624 295
Width: 1600
VWidth: 1000
Flags: HMW
LayerCount: 2
Fore
SplineSet
0 600 m 25
 0 1400 l 25
 800 1400 l 25
 800 600 l 25
 0 600 l 25
EndSplineSet
Validated: 1
EndChar

StartChar: uni2599
Encoding: 296 9625 296
Width: 1600
VWidth: 1000
Flags: HMW
LayerCount: 2
Fore
SplineSet
0 -200 m 1
 0 1400 l 1
 800 1400 l 1
 800 600 l 1
 1600 600 l 1
 1600 -200 l 1
 0 -200 l 1
EndSplineSet
Validated: 1
EndChar

StartChar: uni259A
Encoding: 297 9626 297
Width: 1600
VWidth: 1000
Flags: HMW
LayerCount: 2
Fore
SplineSet
0 600 m 25
 0 1400 l 25
 800 1400 l 25
 800 600 l 25
 0 600 l 25
800 -200 m 25
 800 600 l 25
 1600 600 l 25
 1600 -200 l 25
 800 -200 l 25
EndSplineSet
Validated: 5
EndChar

StartChar: uni259B
Encoding: 298 9627 298
Width: 1600
VWidth: 1000
Flags: HMW
LayerCount: 2
Fore
SplineSet
0 -200 m 1
 0 1400 l 1
 1600 1400 l 1
 1600 600 l 1
 800 600 l 1
 800 -200 l 1
 0 -200 l 1
EndSplineSet
Validated: 1
EndChar

StartChar: uni259C
Encoding: 299 9628 299
Width: 1600
VWidth: 1000
Flags: HMW
LayerCount: 2
Fore
SplineSet
0 600 m 1
 0 1400 l 1
 1600 1400 l 1
 1600 -200 l 1
 800 -200 l 1
 800 600 l 1
 0 600 l 1
EndSplineSet
Validated: 1
EndChar

StartChar: uni259D
Encoding: 300 9629 300
Width: 1600
VWidth: 1000
Flags: HMW
LayerCount: 2
Fore
SplineSet
800 600 m 25
 800 1400 l 25
 1600 1400 l 25
 1600 600 l 25
 800 600 l 25
EndSplineSet
Validated: 1
EndChar

StartChar: uni259E
Encoding: 301 9630 301
Width: 1600
VWidth: 1000
Flags: HMW
LayerCount: 2
Fore
SplineSet
0 -200 m 25
 0 600 l 25
 800 600 l 25
 800 -200 l 25
 0 -200 l 25
800 600 m 25
 800 1400 l 25
 1600 1400 l 25
 1600 600 l 25
 800 600 l 25
EndSplineSet
Validated: 5
EndChar

StartChar: uni259F
Encoding: 302 9631 302
Width: 1600
VWidth: 1000
Flags: HMW
LayerCount: 2
Fore
SplineSet
0 -200 m 1
 0 600 l 1
 800 600 l 1
 800 1400 l 1
 1600 1400 l 1
 1600 -200 l 1
 0 -200 l 1
EndSplineSet
Validated: 1
EndChar

StartChar: uni25E2
Encoding: 303 9698 303
Width: 1600
VWidth: 1000
Flags: HMW
LayerCount: 2
Fore
SplineSet
0 -200 m 1
 1600 1400 l 1
 1600 -200 l 1
 0 -200 l 1
EndSplineSet
Validated: 1
EndChar

StartChar: uni25E3
Encoding: 304 9699 304
Width: 1600
VWidth: 1000
Flags: HMW
LayerCount: 2
Fore
SplineSet
0 -200 m 1
 0 1400 l 1
 1600 -200 l 1
 0 -200 l 1
EndSplineSet
Validated: 1
EndChar

StartChar: uni25E4
Encoding: 305 9700 305
Width: 1600
VWidth: 1000
Flags: HMW
LayerCount: 2
Fore
SplineSet
0 -200 m 1
 0 1400 l 1
 1600 1400 l 1
 0 -200 l 1
EndSplineSet
Validated: 1
EndChar

StartChar: uni25E5
Encoding: 306 9701 306
Width: 1600
VWidth: 1000
Flags: HMW
LayerCount: 2
Fore
SplineSet
0 1400 m 1
 1600 1400 l 1
 1600 -200 l 1
 0 1400 l 1
EndSplineSet
Validated: 1
EndChar

StartChar: uni2574
Encoding: 307 9588 307
Width: 1600
VWidth: 1000
Flags: HMW
LayerCount: 2
Fore
SplineSet
0 500 m 25
 0 700 l 25
 900 700 l 25
 900 500 l 25
 0 500 l 25
EndSplineSet
Validated: 1
EndChar

StartChar: uni2578
Encoding: 308 9592 308
Width: 1600
VWidth: 1000
Flags: HMW
LayerCount: 2
Fore
SplineSet
0 400 m 25
 0 800 l 25
 900 800 l 25
 900 400 l 25
 0 400 l 25
EndSplineSet
Validated: 1
EndChar

StartChar: uni2575
Encoding: 309 9589 309
Width: 1600
VWidth: 1000
Flags: HMW
LayerCount: 2
Fore
SplineSet
700 500 m 25
 700 1400 l 25
 900 1400 l 25
 900 500 l 25
 700 500 l 25
EndSplineSet
Validated: 1
EndChar

StartChar: uni2579
Encoding: 310 9593 310
Width: 1600
VWidth: 1000
Flags: HMW
LayerCount: 2
Fore
SplineSet
600 500 m 25
 600 1400 l 25
 1000 1400 l 25
 1000 500 l 25
 600 500 l 25
EndSplineSet
Validated: 1
EndChar

StartChar: uni2576
Encoding: 311 9590 311
Width: 1600
VWidth: 1000
Flags: HMW
LayerCount: 2
Fore
SplineSet
700 500 m 25
 700 700 l 25
 1600 700 l 25
 1600 500 l 25
 700 500 l 25
EndSplineSet
Validated: 1
EndChar

StartChar: uni257A
Encoding: 312 9594 312
Width: 1600
VWidth: 1000
Flags: HMW
LayerCount: 2
Fore
SplineSet
700 400 m 25
 700 800 l 25
 1600 800 l 25
 1600 400 l 25
 700 400 l 25
EndSplineSet
Validated: 1
EndChar

StartChar: uni2577
Encoding: 313 9591 313
Width: 1600
VWidth: 1000
Flags: HMW
LayerCount: 2
Fore
SplineSet
700 -200 m 25
 700 700 l 25
 900 700 l 25
 900 -200 l 25
 700 -200 l 25
EndSplineSet
Validated: 1
EndChar

StartChar: uni257B
Encoding: 314 9595 314
Width: 1600
VWidth: 1000
Flags: HMW
LayerCount: 2
Fore
SplineSet
600 -200 m 25
 600 700 l 25
 1000 700 l 25
 1000 -200 l 25
 600 -200 l 25
EndSplineSet
Validated: 1
EndChar

StartChar: SF100000
Encoding: 315 9472 315
Width: 1600
VWidth: 1000
Flags: HMW
LayerCount: 2
Fore
SplineSet
0 500 m 25
 0 700 l 25
 1600 700 l 25
 1600 500 l 25
 0 500 l 25
EndSplineSet
Validated: 1
EndChar

StartChar: uni257C
Encoding: 316 9596 316
Width: 1600
VWidth: 1000
Flags: HMW
LayerCount: 2
Fore
SplineSet
0 500 m 1
 0 700 l 1
 700 700 l 1
 700 800 l 1
 1600 800 l 1
 1600 400 l 1
 700 400 l 1
 700 500 l 1
 0 500 l 1
EndSplineSet
Validated: 1
EndChar

StartChar: uni257E
Encoding: 317 9598 317
Width: 1600
VWidth: 1000
Flags: HMW
LayerCount: 2
Fore
SplineSet
0 400 m 1
 0 800 l 1
 900 800 l 1
 900 700 l 1
 1600 700 l 1
 1600 500 l 1
 900 500 l 1
 900 400 l 1
 0 400 l 1
EndSplineSet
Validated: 1
EndChar

StartChar: uni2501
Encoding: 318 9473 318
Width: 1600
VWidth: 1000
Flags: HMW
LayerCount: 2
Fore
SplineSet
0 400 m 25
 0 800 l 25
 1600 800 l 25
 1600 400 l 25
 0 400 l 25
EndSplineSet
Validated: 1
EndChar

StartChar: SF110000
Encoding: 319 9474 319
Width: 1600
VWidth: 1000
Flags: HMW
LayerCount: 2
Fore
SplineSet
700 -200 m 25
 700 1400 l 25
 900 1400 l 25
 900 -200 l 25
 700 -200 l 25
EndSplineSet
Validated: 1
EndChar

StartChar: uni257D
Encoding: 320 9597 320
Width: 1600
VWidth: 1000
Flags: HMW
LayerCount: 2
Fore
SplineSet
600 -200 m 1
 600 700 l 1
 700 700 l 1
 700 1400 l 1
 900 1400 l 1
 900 700 l 1
 1000 700 l 1
 1000 -200 l 1
 600 -200 l 1
EndSplineSet
Validated: 1
EndChar

StartChar: uni257F
Encoding: 321 9599 321
Width: 1600
VWidth: 1000
Flags: HMW
LayerCount: 2
Fore
SplineSet
600 500 m 1
 600 1400 l 1
 1000 1400 l 1
 1000 500 l 1
 900 500 l 1
 900 -200 l 1
 700 -200 l 1
 700 500 l 1
 600 500 l 1
EndSplineSet
Validated: 1
EndChar

StartChar: uni2503
Encoding: 322 9475 322
Width: 1600
VWidth: 1000
Flags: HMW
LayerCount: 2
Fore
SplineSet
600 -200 m 25
 600 1400 l 25
 1000 1400 l 25
 1000 -200 l 25
 600 -200 l 25
EndSplineSet
Validated: 1
EndChar

StartChar: uni254C
Encoding: 323 9548 323
Width: 1600
VWidth: 1000
Flags: HMW
LayerCount: 2
Fore
SplineSet
50 500 m 25
 50 700 l 25
 750 700 l 25
 750 500 l 25
 50 500 l 25
850 500 m 25
 850 700 l 25
 1550 700 l 25
 1550 500 l 25
 850 500 l 25
EndSplineSet
Validated: 1
EndChar

StartChar: uni254D
Encoding: 324 9549 324
Width: 1600
VWidth: 1000
Flags: HMW
LayerCount: 2
Fore
SplineSet
50 400 m 25
 50 800 l 25
 750 800 l 25
 750 400 l 25
 50 400 l 25
850 400 m 25
 850 800 l 25
 1550 800 l 25
 1550 400 l 25
 850 400 l 25
EndSplineSet
Validated: 1
EndChar

StartChar: uni254E
Encoding: 325 9550 325
Width: 1600
VWidth: 1000
Flags: HMW
LayerCount: 2
Fore
SplineSet
700 -150 m 25
 700 550 l 25
 900 550 l 25
 900 -150 l 25
 700 -150 l 25
700 650 m 25
 700 1350 l 25
 900 1350 l 25
 900 650 l 25
 700 650 l 25
EndSplineSet
Validated: 1
EndChar

StartChar: uni254F
Encoding: 326 9551 326
Width: 1600
VWidth: 1000
Flags: HMW
LayerCount: 2
Fore
SplineSet
600 -150 m 25
 600 550 l 25
 1000 550 l 25
 1000 -150 l 25
 600 -150 l 25
600 650 m 25
 600 1350 l 25
 1000 1350 l 25
 1000 650 l 25
 600 650 l 25
EndSplineSet
Validated: 1
EndChar

StartChar: uni2504
Encoding: 327 9476 327
Width: 1600
VWidth: 1000
Flags: HMW
LayerCount: 2
Fore
SplineSet
50 500 m 25
 50 700 l 25
 483 700 l 25
 483 500 l 25
 50 500 l 25
583 500 m 25
 583 700 l 25
 1017 700 l 25
 1017 500 l 25
 583 500 l 25
1117 500 m 25
 1117 700 l 25
 1550 700 l 25
 1550 500 l 25
 1117 500 l 25
EndSplineSet
Validated: 1
EndChar

StartChar: uni2505
Encoding: 328 9477 328
Width: 1600
VWidth: 1000
Flags: HMW
LayerCount: 2
Fore
SplineSet
50 400 m 25
 50 800 l 25
 483 800 l 25
 483 400 l 25
 50 400 l 25
583 400 m 25
 583 800 l 25
 1017 800 l 25
 1017 400 l 25
 583 400 l 25
1117 400 m 25
 1117 800 l 25
 1550 800 l 25
 1550 400 l 25
 1117 400 l 25
EndSplineSet
Validated: 1
EndChar

StartChar: uni2506
Encoding: 329 9478 329
Width: 1600
VWidth: 1000
Flags: HMW
LayerCount: 2
Fore
SplineSet
700 -150 m 25
 700 283 l 1
 900 283 l 1
 900 -150 l 25
 700 -150 l 25
700 383 m 25
 700 817 l 1
 900 817 l 1
 900 383 l 25
 700 383 l 25
700 917 m 25
 700 1350 l 1
 900 1350 l 1
 900 917 l 25
 700 917 l 25
EndSplineSet
Validated: 1
EndChar

StartChar: uni2507
Encoding: 330 9479 330
Width: 1600
VWidth: 1000
Flags: HMW
LayerCount: 2
Fore
SplineSet
600 -150 m 25
 600 283 l 1
 1000 283 l 1
 1000 -150 l 25
 600 -150 l 25
600 383 m 25
 600 817 l 1
 1000 817 l 1
 1000 383 l 25
 600 383 l 25
600 917 m 25
 600 1350 l 1
 1000 1350 l 1
 1000 917 l 25
 600 917 l 25
EndSplineSet
Validated: 1
EndChar

StartChar: uni2508
Encoding: 331 9480 331
Width: 1600
VWidth: 1000
Flags: HMW
LayerCount: 2
Fore
SplineSet
50 500 m 25
 50 700 l 25
 350 700 l 25
 350 500 l 25
 50 500 l 25
450 500 m 25
 450 700 l 25
 750 700 l 25
 750 500 l 25
 450 500 l 25
850 500 m 25
 850 700 l 25
 1150 700 l 25
 1150 500 l 25
 850 500 l 25
1250 500 m 25
 1250 700 l 25
 1550 700 l 25
 1550 500 l 25
 1250 500 l 25
EndSplineSet
Validated: 1
EndChar

StartChar: uni2509
Encoding: 332 9481 332
Width: 1600
VWidth: 1000
Flags: HMW
LayerCount: 2
Fore
SplineSet
50 400 m 25
 50 800 l 25
 350 800 l 25
 350 400 l 25
 50 400 l 25
450 400 m 25
 450 800 l 25
 750 800 l 25
 750 400 l 25
 450 400 l 25
850 400 m 25
 850 800 l 25
 1150 800 l 25
 1150 400 l 25
 850 400 l 25
1250 400 m 25
 1250 800 l 25
 1550 800 l 25
 1550 400 l 25
 1250 400 l 25
EndSplineSet
Validated: 1
EndChar

StartChar: uni250A
Encoding: 333 9482 333
Width: 1600
VWidth: 1000
Flags: HMW
LayerCount: 2
Fore
SplineSet
700 150 m 25
 900 150 l 25
 900 -150 l 25
 700 -150 l 25
 700 150 l 25
700 250 m 25
 700 550 l 25
 900 550 l 25
 900 250 l 25
 700 250 l 25
700 650 m 25
 700 950 l 25
 900 950 l 25
 900 650 l 25
 700 650 l 25
700 1050 m 25
 700 1350 l 25
 900 1350 l 25
 900 1050 l 25
 700 1050 l 25
EndSplineSet
Validated: 1
EndChar

StartChar: uni250B
Encoding: 334 9483 334
Width: 1600
VWidth: 1000
Flags: HMW
LayerCount: 2
Fore
SplineSet
600 150 m 25
 1000 150 l 25
 1000 -150 l 25
 600 -150 l 25
 600 150 l 25
600 250 m 25
 600 550 l 25
 1000 550 l 25
 1000 250 l 25
 600 250 l 25
600 650 m 25
 600 950 l 25
 1000 950 l 25
 1000 650 l 25
 600 650 l 25
600 1050 m 25
 600 1350 l 25
 1000 1350 l 25
 1000 1050 l 25
 600 1050 l 25
EndSplineSet
Validated: 1
EndChar

StartChar: SF010000
Encoding: 335 9484 335
Width: 1600
VWidth: 1000
Flags: HMW
LayerCount: 2
Fore
SplineSet
700 -200 m 1
 700 700 l 1
 1600 700 l 1
 1600 500 l 1
 900 500 l 1
 900 -200 l 1
 700 -200 l 1
EndSplineSet
Validated: 1
EndChar

StartChar: uni250D
Encoding: 336 9485 336
Width: 1600
VWidth: 1000
Flags: HMW
LayerCount: 2
Fore
SplineSet
700 -200 m 1
 700 800 l 1
 1600 800 l 1
 1600 400 l 1
 900 400 l 1
 900 -200 l 1
 700 -200 l 1
EndSplineSet
Validated: 1
EndChar

StartChar: uni250E
Encoding: 337 9486 337
Width: 1600
VWidth: 1000
Flags: HMW
LayerCount: 2
Fore
SplineSet
600 -200 m 1
 600 700 l 1
 1600 700 l 1
 1600 500 l 1
 1000 500 l 1
 1000 -200 l 1
 600 -200 l 1
EndSplineSet
Validated: 1
EndChar

StartChar: uni250F
Encoding: 338 9487 338
Width: 1600
VWidth: 1000
Flags: HMW
LayerCount: 2
Fore
SplineSet
600 -200 m 1
 600 800 l 1
 1600 800 l 1
 1600 400 l 1
 1000 400 l 1
 1000 -200 l 1
 600 -200 l 1
EndSplineSet
Validated: 1
EndChar

StartChar: SF030000
Encoding: 339 9488 339
Width: 1600
VWidth: 1000
Flags: HMW
LayerCount: 2
Fore
SplineSet
0 500 m 1
 0 700 l 1
 900 700 l 1
 900 -200 l 1
 700 -200 l 1
 700 500 l 1
 0 500 l 1
EndSplineSet
Validated: 1
EndChar

StartChar: uni2511
Encoding: 340 9489 340
Width: 1600
VWidth: 1000
Flags: HMW
LayerCount: 2
Fore
SplineSet
0 400 m 1
 0 800 l 1
 900 800 l 1
 900 -200 l 1
 700 -200 l 1
 700 400 l 1
 0 400 l 1
EndSplineSet
Validated: 1
EndChar

StartChar: uni2512
Encoding: 341 9490 341
Width: 1600
VWidth: 1000
Flags: HMW
LayerCount: 2
Fore
SplineSet
0 500 m 1
 0 700 l 1
 1000 700 l 1
 1000 -200 l 1
 600 -200 l 1
 600 500 l 1
 0 500 l 1
EndSplineSet
Validated: 1
EndChar

StartChar: uni2513
Encoding: 342 9491 342
Width: 1600
VWidth: 1000
Flags: HMW
LayerCount: 2
Fore
SplineSet
0 400 m 1
 0 800 l 1
 1000 800 l 1
 1000 -200 l 1
 600 -200 l 1
 600 400 l 1
 0 400 l 1
EndSplineSet
Validated: 1
EndChar

StartChar: SF020000
Encoding: 343 9492 343
Width: 1600
VWidth: 1000
Flags: HMW
LayerCount: 2
Fore
SplineSet
700 500 m 1
 700 1400 l 1
 900 1400 l 1
 900 700 l 1
 1600 700 l 1
 1600 500 l 1
 700 500 l 1
EndSplineSet
Validated: 1
EndChar

StartChar: uni2515
Encoding: 344 9493 344
Width: 1600
VWidth: 1000
Flags: HMW
LayerCount: 2
Fore
SplineSet
700 400 m 1
 700 1400 l 1
 900 1400 l 1
 900 800 l 1
 1600 800 l 1
 1600 400 l 1
 700 400 l 1
EndSplineSet
Validated: 1
EndChar

StartChar: uni2516
Encoding: 345 9494 345
Width: 1600
VWidth: 1000
Flags: HMW
LayerCount: 2
Fore
SplineSet
600 500 m 1
 600 1400 l 1
 1000 1400 l 1
 1000 700 l 1
 1600 700 l 1
 1600 500 l 1
 600 500 l 1
EndSplineSet
Validated: 1
EndChar

StartChar: uni2517
Encoding: 346 9495 346
Width: 1600
VWidth: 1000
Flags: HMW
LayerCount: 2
Fore
SplineSet
600 400 m 1
 600 1400 l 1
 1000 1400 l 1
 1000 800 l 1
 1600 800 l 1
 1600 400 l 1
 600 400 l 1
EndSplineSet
Validated: 1
EndChar

StartChar: SF040000
Encoding: 347 9496 347
Width: 1600
VWidth: 1000
Flags: HMW
LayerCount: 2
Fore
SplineSet
0 500 m 1
 0 700 l 1
 700 700 l 1
 700 1400 l 1
 900 1400 l 1
 900 500 l 1
 0 500 l 1
EndSplineSet
Validated: 1
EndChar

StartChar: uni2519
Encoding: 348 9497 348
Width: 1600
VWidth: 1000
Flags: HMW
LayerCount: 2
Fore
SplineSet
0 400 m 1
 0 800 l 1
 700 800 l 1
 700 1400 l 1
 900 1400 l 1
 900 400 l 1
 0 400 l 1
EndSplineSet
Validated: 1
EndChar

StartChar: uni251A
Encoding: 349 9498 349
Width: 1600
VWidth: 1000
Flags: HMW
LayerCount: 2
Fore
SplineSet
0 500 m 1
 0 700 l 1
 600 700 l 1
 600 1400 l 1
 1000 1400 l 1
 1000 500 l 1
 0 500 l 1
EndSplineSet
Validated: 1
EndChar

StartChar: uni251B
Encoding: 350 9499 350
Width: 1600
VWidth: 1000
Flags: HMW
LayerCount: 2
Fore
SplineSet
0 400 m 1
 0 800 l 1
 600 800 l 1
 600 1400 l 1
 1000 1400 l 1
 1000 400 l 1
 0 400 l 1
EndSplineSet
Validated: 1
EndChar

StartChar: SF080000
Encoding: 351 9500 351
Width: 1600
VWidth: 1000
Flags: HMW
LayerCount: 2
Fore
SplineSet
700 -200 m 1
 700 1400 l 1
 900 1400 l 1
 900 700 l 1
 1600 700 l 1
 1600 500 l 1
 900 500 l 1
 900 -200 l 1
 700 -200 l 1
EndSplineSet
Validated: 1
EndChar

StartChar: uni251D
Encoding: 352 9501 352
Width: 1600
VWidth: 1000
Flags: HMW
LayerCount: 2
Fore
SplineSet
700 -200 m 1
 700 1400 l 1
 900 1400 l 1
 900 800 l 1
 1600 800 l 1
 1600 400 l 1
 900 400 l 1
 900 -200 l 1
 700 -200 l 1
EndSplineSet
Validated: 1
EndChar

StartChar: uni251E
Encoding: 353 9502 353
Width: 1600
VWidth: 1000
Flags: HMW
LayerCount: 2
Fore
SplineSet
600 500 m 1
 600 1400 l 1
 1000 1400 l 1
 1000 700 l 1
 1600 700 l 1
 1600 500 l 1
 900 500 l 1
 900 -200 l 1
 700 -200 l 1
 700 500 l 1
 600 500 l 1
EndSplineSet
Validated: 1
EndChar

StartChar: uni251F
Encoding: 354 9503 354
Width: 1600
VWidth: 1000
Flags: HMW
LayerCount: 2
Fore
SplineSet
600 -200 m 1
 600 700 l 1
 700 700 l 1
 700 1400 l 1
 900 1400 l 1
 900 700 l 1
 1600 700 l 1
 1600 500 l 1
 1000 500 l 1
 1000 -200 l 1
 600 -200 l 1
EndSplineSet
Validated: 1
EndChar

StartChar: uni2520
Encoding: 355 9504 355
Width: 1600
VWidth: 1000
Flags: HMW
LayerCount: 2
Fore
SplineSet
600 -200 m 1
 600 1400 l 1
 1000 1400 l 1
 1000 700 l 1
 1600 700 l 1
 1600 500 l 1
 1000 500 l 1
 1000 -200 l 1
 600 -200 l 1
EndSplineSet
Validated: 1
EndChar

StartChar: uni2521
Encoding: 356 9505 356
Width: 1600
VWidth: 1000
Flags: HMW
LayerCount: 2
Fore
SplineSet
600 400 m 1
 600 1400 l 1
 1000 1400 l 1
 1000 800 l 1
 1600 800 l 1
 1600 400 l 1
 900 400 l 1
 900 -200 l 1
 700 -200 l 1
 700 400 l 1
 600 400 l 1
EndSplineSet
Validated: 1
EndChar

StartChar: uni2522
Encoding: 357 9506 357
Width: 1600
VWidth: 1000
Flags: HMW
LayerCount: 2
Fore
SplineSet
600 -200 m 1
 600 800 l 1
 700 800 l 1
 700 1400 l 1
 900 1400 l 1
 900 800 l 1
 1600 800 l 1
 1600 400 l 1
 1000 400 l 1
 1000 -200 l 1
 600 -200 l 1
EndSplineSet
Validated: 1
EndChar

StartChar: uni2523
Encoding: 358 9507 358
Width: 1600
VWidth: 1000
Flags: HMW
LayerCount: 2
Fore
SplineSet
600 -200 m 1
 600 1400 l 1
 1000 1400 l 1
 1000 800 l 1
 1600 800 l 1
 1600 400 l 1
 1000 400 l 1
 1000 -200 l 1
 600 -200 l 1
EndSplineSet
Validated: 1
EndChar

StartChar: SF090000
Encoding: 359 9508 359
Width: 1600
VWidth: 1000
Flags: HMW
LayerCount: 2
Fore
SplineSet
0 500 m 1
 0 700 l 1
 700 700 l 1
 700 1400 l 1
 900 1400 l 1
 900 -200 l 1
 700 -200 l 1
 700 500 l 1
 0 500 l 1
EndSplineSet
Validated: 1
EndChar

StartChar: uni2525
Encoding: 360 9509 360
Width: 1600
VWidth: 1000
Flags: HMW
LayerCount: 2
Fore
SplineSet
0 400 m 1
 0 800 l 1
 700 800 l 1
 700 1400 l 1
 900 1400 l 1
 900 -200 l 1
 700 -200 l 1
 700 400 l 1
 0 400 l 1
EndSplineSet
Validated: 1
EndChar

StartChar: uni2526
Encoding: 361 9510 361
Width: 1600
VWidth: 1000
Flags: HMW
LayerCount: 2
Fore
SplineSet
0 500 m 1
 0 700 l 1
 600 700 l 1
 600 1400 l 1
 1000 1400 l 1
 1000 500 l 1
 900 500 l 1
 900 -200 l 1
 700 -200 l 1
 700 500 l 1
 0 500 l 1
EndSplineSet
Validated: 1
EndChar

StartChar: uni2527
Encoding: 362 9511 362
Width: 1600
VWidth: 1000
Flags: HMW
LayerCount: 2
Fore
SplineSet
0 500 m 1
 0 700 l 1
 700 700 l 1
 700 1400 l 1
 900 1400 l 1
 900 700 l 1
 1000 700 l 1
 1000 -200 l 1
 600 -200 l 1
 600 500 l 1
 0 500 l 1
EndSplineSet
Validated: 1
EndChar

StartChar: uni2528
Encoding: 363 9512 363
Width: 1600
VWidth: 1000
Flags: HMW
LayerCount: 2
Fore
SplineSet
0 500 m 1
 0 700 l 1
 600 700 l 1
 600 1400 l 1
 1000 1400 l 1
 1000 -200 l 1
 600 -200 l 1
 600 500 l 1
 0 500 l 1
EndSplineSet
Validated: 1
EndChar

StartChar: uni2529
Encoding: 364 9513 364
Width: 1600
VWidth: 1000
Flags: HMW
LayerCount: 2
Fore
SplineSet
0 400 m 1
 0 800 l 1
 600 800 l 1
 600 1400 l 1
 1000 1400 l 1
 1000 400 l 1
 900 400 l 1
 900 -200 l 1
 700 -200 l 1
 700 400 l 1
 0 400 l 1
EndSplineSet
Validated: 1
EndChar

StartChar: uni252A
Encoding: 365 9514 365
Width: 1600
VWidth: 1000
Flags: HMW
LayerCount: 2
Fore
SplineSet
0 400 m 1
 0 800 l 1
 700 800 l 1
 700 1400 l 1
 900 1400 l 1
 900 800 l 1
 1000 800 l 1
 1000 -200 l 1
 600 -200 l 1
 600 400 l 1
 0 400 l 1
EndSplineSet
Validated: 1
EndChar

StartChar: uni252B
Encoding: 366 9515 366
Width: 1600
VWidth: 1000
Flags: HMW
LayerCount: 2
Fore
SplineSet
0 400 m 1
 0 800 l 1
 600 800 l 1
 600 1400 l 1
 1000 1400 l 1
 1000 -200 l 1
 600 -200 l 1
 600 400 l 1
 0 400 l 1
EndSplineSet
Validated: 1
EndChar

StartChar: SF060000
Encoding: 367 9516 367
Width: 1600
VWidth: 1000
Flags: HMW
LayerCount: 2
Fore
SplineSet
0 500 m 1
 0 700 l 1
 1600 700 l 1
 1600 500 l 1
 900 500 l 1
 900 -200 l 1
 700 -200 l 1
 700 500 l 1
 0 500 l 1
EndSplineSet
Validated: 1
EndChar

StartChar: uni252D
Encoding: 368 9517 368
Width: 1600
VWidth: 1000
Flags: HMW
LayerCount: 2
Fore
SplineSet
0 400 m 1
 0 800 l 1
 900 800 l 1
 900 700 l 1
 1600 700 l 1
 1600 500 l 1
 900 500 l 1
 900 -200 l 1
 700 -200 l 1
 700 400 l 1
 0 400 l 1
EndSplineSet
Validated: 1
EndChar

StartChar: uni252E
Encoding: 369 9518 369
Width: 1600
VWidth: 1000
Flags: HMW
LayerCount: 2
Fore
SplineSet
0 500 m 1
 0 700 l 1
 700 700 l 1
 700 800 l 1
 1600 800 l 1
 1600 400 l 1
 900 400 l 1
 900 -200 l 1
 700 -200 l 1
 700 500 l 1
 0 500 l 1
EndSplineSet
Validated: 1
EndChar

StartChar: uni252F
Encoding: 370 9519 370
Width: 1600
VWidth: 1000
Flags: HMW
LayerCount: 2
Fore
SplineSet
0 400 m 1
 0 800 l 1
 1600 800 l 1
 1600 400 l 1
 900 400 l 1
 900 -200 l 1
 700 -200 l 1
 700 400 l 1
 0 400 l 1
EndSplineSet
Validated: 1
EndChar

StartChar: uni2530
Encoding: 371 9520 371
Width: 1600
VWidth: 1000
Flags: HMW
LayerCount: 2
Fore
SplineSet
0 500 m 1
 0 700 l 1
 1600 700 l 1
 1600 500 l 1
 1000 500 l 1
 1000 -200 l 1
 600 -200 l 1
 600 500 l 1
 0 500 l 1
EndSplineSet
Validated: 1
EndChar

StartChar: uni2531
Encoding: 372 9521 372
Width: 1600
VWidth: 1000
Flags: HMW
LayerCount: 2
Fore
SplineSet
0 400 m 1
 0 800 l 1
 1000 800 l 1
 1000 700 l 1
 1600 700 l 1
 1600 500 l 1
 1000 500 l 1
 1000 -200 l 1
 600 -200 l 1
 600 400 l 1
 0 400 l 1
EndSplineSet
Validated: 1
EndChar

StartChar: uni2532
Encoding: 373 9522 373
Width: 1600
VWidth: 1000
Flags: HMW
LayerCount: 2
Fore
SplineSet
0 500 m 1
 0 700 l 1
 600 700 l 1
 600 800 l 1
 1600 800 l 1
 1600 400 l 1
 1000 400 l 1
 1000 -200 l 1
 600 -200 l 1
 600 500 l 1
 0 500 l 1
EndSplineSet
Validated: 1
EndChar

StartChar: uni2533
Encoding: 374 9523 374
Width: 1600
VWidth: 1000
Flags: HMW
LayerCount: 2
Fore
SplineSet
0 400 m 1
 0 800 l 1
 1600 800 l 1
 1600 400 l 1
 1000 400 l 1
 1000 -200 l 1
 600 -200 l 1
 600 400 l 1
 0 400 l 1
EndSplineSet
Validated: 1
EndChar

StartChar: SF070000
Encoding: 375 9524 375
Width: 1600
VWidth: 1000
Flags: HMW
LayerCount: 2
Fore
SplineSet
0 500 m 1
 0 700 l 1
 700 700 l 1
 700 1400 l 1
 900 1400 l 1
 900 700 l 1
 1600 700 l 1
 1600 500 l 1
 0 500 l 1
EndSplineSet
Validated: 1
EndChar

StartChar: uni2535
Encoding: 376 9525 376
Width: 1600
VWidth: 1000
Flags: HMW
LayerCount: 2
Fore
SplineSet
0 400 m 1
 0 800 l 1
 700 800 l 1
 700 1400 l 1
 900 1400 l 1
 900 700 l 1
 1600 700 l 1
 1600 500 l 1
 900 500 l 1
 900 400 l 1
 0 400 l 1
EndSplineSet
Validated: 1
EndChar

StartChar: uni2536
Encoding: 377 9526 377
Width: 1600
VWidth: 1000
Flags: HMW
LayerCount: 2
Fore
SplineSet
0 500 m 1
 0 700 l 1
 700 700 l 1
 700 1400 l 1
 900 1400 l 1
 900 800 l 1
 1600 800 l 1
 1600 400 l 1
 700 400 l 1
 700 500 l 1
 0 500 l 1
EndSplineSet
Validated: 1
EndChar

StartChar: uni2537
Encoding: 378 9527 378
Width: 1600
VWidth: 1000
Flags: HMW
LayerCount: 2
Fore
SplineSet
0 400 m 1
 0 800 l 1
 700 800 l 1
 700 1400 l 1
 900 1400 l 1
 900 800 l 1
 1600 800 l 1
 1600 400 l 1
 0 400 l 1
EndSplineSet
Validated: 1
EndChar

StartChar: uni2538
Encoding: 379 9528 379
Width: 1600
VWidth: 1000
Flags: HMW
LayerCount: 2
Fore
SplineSet
0 500 m 1
 0 700 l 1
 600 700 l 1
 600 1400 l 1
 1000 1400 l 1
 1000 700 l 1
 1600 700 l 1
 1600 500 l 1
 0 500 l 1
EndSplineSet
Validated: 1
EndChar

StartChar: uni2539
Encoding: 380 9529 380
Width: 1600
VWidth: 1000
Flags: HMW
LayerCount: 2
Fore
SplineSet
0 400 m 1
 0 800 l 1
 600 800 l 1
 600 1400 l 1
 1000 1400 l 1
 1000 700 l 1
 1600 700 l 1
 1600 500 l 1
 1000 500 l 1
 1000 400 l 1
 0 400 l 1
EndSplineSet
Validated: 1
EndChar

StartChar: uni253A
Encoding: 381 9530 381
Width: 1600
VWidth: 1000
Flags: HMW
LayerCount: 2
Fore
SplineSet
0 500 m 1
 0 700 l 1
 600 700 l 1
 600 1400 l 1
 1000 1400 l 1
 1000 800 l 1
 1600 800 l 1
 1600 400 l 1
 600 400 l 1
 600 500 l 1
 0 500 l 1
EndSplineSet
Validated: 1
EndChar

StartChar: uni253B
Encoding: 382 9531 382
Width: 1600
VWidth: 1000
Flags: HMW
LayerCount: 2
Fore
SplineSet
0 400 m 1
 0 800 l 1
 600 800 l 1
 600 1400 l 1
 1000 1400 l 1
 1000 800 l 1
 1600 800 l 1
 1600 400 l 1
 0 400 l 1
EndSplineSet
Validated: 1
EndChar

StartChar: SF050000
Encoding: 383 9532 383
Width: 1600
VWidth: 1000
Flags: HMW
LayerCount: 2
Fore
SplineSet
0 500 m 1
 0 700 l 1
 700 700 l 1
 700 1400 l 1
 900 1400 l 1
 900 700 l 1
 1600 700 l 1
 1600 500 l 1
 900 500 l 1
 900 -200 l 1
 700 -200 l 1
 700 500 l 1
 0 500 l 1
EndSplineSet
Validated: 1
EndChar

StartChar: uni253D
Encoding: 384 9533 384
Width: 1600
VWidth: 1000
Flags: HMW
LayerCount: 2
Fore
SplineSet
0 400 m 1
 0 800 l 1
 700 800 l 1
 700 1400 l 1
 900 1400 l 1
 900 700 l 1
 1600 700 l 1
 1600 500 l 1
 900 500 l 1
 900 -200 l 1
 700 -200 l 1
 700 400 l 1
 0 400 l 1
EndSplineSet
Validated: 1
EndChar

StartChar: uni253E
Encoding: 385 9534 385
Width: 1600
VWidth: 1000
Flags: HMW
LayerCount: 2
Fore
SplineSet
0 500 m 1
 0 700 l 1
 700 700 l 1
 700 1400 l 1
 900 1400 l 1
 900 800 l 1
 1600 800 l 1
 1600 400 l 1
 900 400 l 1
 900 -200 l 1
 700 -200 l 1
 700 500 l 1
 0 500 l 1
EndSplineSet
Validated: 1
EndChar

StartChar: uni253F
Encoding: 386 9535 386
Width: 1600
VWidth: 1000
Flags: HMW
LayerCount: 2
Fore
SplineSet
0 400 m 1
 0 800 l 1
 700 800 l 1
 700 1400 l 1
 900 1400 l 1
 900 800 l 1
 1600 800 l 1
 1600 400 l 1
 900 400 l 1
 900 -200 l 1
 700 -200 l 1
 700 400 l 1
 0 400 l 1
EndSplineSet
Validated: 1
EndChar

StartChar: uni2540
Encoding: 387 9536 387
Width: 1600
VWidth: 1000
Flags: HMW
LayerCount: 2
Fore
SplineSet
0 500 m 1
 0 700 l 1
 600 700 l 1
 600 1400 l 1
 1000 1400 l 1
 1000 700 l 1
 1600 700 l 1
 1600 500 l 1
 900 500 l 1
 900 -200 l 1
 700 -200 l 1
 700 500 l 1
 0 500 l 1
EndSplineSet
Validated: 1
EndChar

StartChar: uni2541
Encoding: 388 9537 388
Width: 1600
VWidth: 1000
Flags: HMW
LayerCount: 2
Fore
SplineSet
0 500 m 1
 0 700 l 1
 700 700 l 1
 700 1400 l 1
 900 1400 l 1
 900 700 l 1
 1600 700 l 1
 1600 500 l 1
 1000 500 l 1
 1000 -200 l 1
 600 -200 l 1
 600 500 l 1
 0 500 l 1
EndSplineSet
Validated: 1
EndChar

StartChar: uni2542
Encoding: 389 9538 389
Width: 1600
VWidth: 1000
Flags: HMW
LayerCount: 2
Fore
SplineSet
0 500 m 1
 0 700 l 1
 600 700 l 1
 600 1400 l 1
 1000 1400 l 1
 1000 700 l 1
 1600 700 l 1
 1600 500 l 1
 1000 500 l 1
 1000 -200 l 1
 600 -200 l 1
 600 500 l 1
 0 500 l 1
EndSplineSet
Validated: 1
EndChar

StartChar: uni2543
Encoding: 390 9539 390
Width: 1600
VWidth: 1000
Flags: HMW
LayerCount: 2
Fore
SplineSet
0 400 m 1
 0 800 l 1
 600 800 l 1
 600 1400 l 1
 1000 1400 l 1
 1000 700 l 1
 1600 700 l 1
 1600 500 l 1
 1000 500 l 1
 1000 400 l 1
 900 400 l 1
 900 -200 l 1
 700 -200 l 1
 700 400 l 1
 0 400 l 1
EndSplineSet
Validated: 1
EndChar

StartChar: uni2544
Encoding: 391 9540 391
Width: 1600
VWidth: 1000
Flags: HMW
LayerCount: 2
Fore
SplineSet
0 500 m 1
 0 700 l 1
 600 700 l 1
 600 1400 l 1
 1000 1400 l 1
 1000 800 l 1
 1600 800 l 1
 1600 400 l 1
 900 400 l 1
 900 -200 l 1
 700 -200 l 1
 700 400 l 1
 600 400 l 1
 600 500 l 1
 0 500 l 1
EndSplineSet
Validated: 1
EndChar

StartChar: uni2545
Encoding: 392 9541 392
Width: 1600
VWidth: 1000
Flags: HMW
LayerCount: 2
Fore
SplineSet
0 400 m 1
 0 800 l 1
 700 800 l 1
 700 1400 l 1
 900 1400 l 1
 900 800 l 1
 1000 800 l 1
 1000 700 l 1
 1600 700 l 1
 1600 500 l 1
 1000 500 l 1
 1000 -200 l 1
 600 -200 l 1
 600 400 l 1
 0 400 l 1
EndSplineSet
Validated: 1
EndChar

StartChar: uni2546
Encoding: 393 9542 393
Width: 1600
VWidth: 1000
Flags: HMW
LayerCount: 2
Fore
SplineSet
0 500 m 1
 0 700 l 1
 600 700 l 1
 600 800 l 1
 700 800 l 1
 700 1400 l 1
 900 1400 l 1
 900 800 l 1
 1600 800 l 1
 1600 400 l 1
 1000 400 l 1
 1000 -200 l 1
 600 -200 l 1
 600 500 l 1
 0 500 l 1
EndSplineSet
Validated: 1
EndChar

StartChar: uni2547
Encoding: 394 9543 394
Width: 1600
VWidth: 1000
Flags: HMW
LayerCount: 2
Fore
SplineSet
0 400 m 1
 0 800 l 1
 600 800 l 1
 600 1400 l 1
 1000 1400 l 1
 1000 800 l 1
 1600 800 l 1
 1600 400 l 1
 900 400 l 1
 900 -200 l 1
 700 -200 l 1
 700 400 l 1
 0 400 l 1
EndSplineSet
Validated: 1
EndChar

StartChar: uni2548
Encoding: 395 9544 395
Width: 1600
VWidth: 1000
Flags: HMW
LayerCount: 2
Fore
SplineSet
0 400 m 1
 0 800 l 1
 700 800 l 1
 700 1400 l 1
 900 1400 l 1
 900 800 l 1
 1600 800 l 1
 1600 400 l 1
 1000 400 l 1
 1000 -200 l 1
 600 -200 l 1
 600 400 l 1
 0 400 l 1
EndSplineSet
Validated: 1
EndChar

StartChar: uni2549
Encoding: 396 9545 396
Width: 1600
VWidth: 1000
Flags: HMW
LayerCount: 2
Fore
SplineSet
0 400 m 1
 0 800 l 1
 600 800 l 1
 600 1400 l 1
 1000 1400 l 1
 1000 700 l 1
 1600 700 l 1
 1600 500 l 1
 1000 500 l 1
 1000 -200 l 1
 600 -200 l 1
 600 400 l 1
 0 400 l 1
EndSplineSet
Validated: 1
EndChar

StartChar: uni254A
Encoding: 397 9546 397
Width: 1600
VWidth: 1000
Flags: HMW
LayerCount: 2
Fore
SplineSet
0 500 m 1
 0 700 l 1
 600 700 l 1
 600 1400 l 1
 1000 1400 l 1
 1000 800 l 1
 1600 800 l 1
 1600 400 l 1
 1000 400 l 1
 1000 -200 l 1
 600 -200 l 1
 600 500 l 1
 0 500 l 1
EndSplineSet
Validated: 1
EndChar

StartChar: uni254B
Encoding: 398 9547 398
Width: 1600
VWidth: 1000
Flags: HMW
LayerCount: 2
Fore
SplineSet
0 400 m 1
 0 800 l 1
 600 800 l 1
 600 1400 l 1
 1000 1400 l 1
 1000 800 l 1
 1600 800 l 1
 1600 400 l 1
 1000 400 l 1
 1000 -200 l 1
 600 -200 l 1
 600 400 l 1
 0 400 l 1
EndSplineSet
Validated: 1
EndChar

StartChar: SF430000
Encoding: 399 9552 399
Width: 1600
VWidth: 1000
Flags: HMW
LayerCount: 2
Fore
SplineSet
0 300 m 25
 0 500 l 25
 1600 500 l 25
 1600 300 l 25
 0 300 l 25
0 700 m 25
 0 900 l 25
 1600 900 l 25
 1600 700 l 25
 0 700 l 25
EndSplineSet
Validated: 1
EndChar

StartChar: SF240000
Encoding: 400 9553 400
Width: 1600
VWidth: 1000
Flags: HMW
LayerCount: 2
Fore
SplineSet
500 -200 m 25
 500 1400 l 25
 700 1400 l 25
 700 -200 l 25
 500 -200 l 25
900 -200 m 25
 900 1400 l 25
 1100 1400 l 25
 1100 -200 l 25
 900 -200 l 25
EndSplineSet
Validated: 1
EndChar

StartChar: SF510000
Encoding: 401 9554 401
Width: 1600
VWidth: 1000
Flags: HMW
LayerCount: 2
Fore
SplineSet
700 -200 m 1
 700 900 l 1
 1600 900 l 1
 1600 700 l 1
 900 700 l 1
 900 500 l 1
 1600 500 l 1
 1600 300 l 1
 900 300 l 1
 900 -200 l 1
 700 -200 l 1
EndSplineSet
Validated: 1
EndChar

StartChar: SF520000
Encoding: 402 9555 402
Width: 1600
VWidth: 1000
Flags: HMW
LayerCount: 2
Fore
SplineSet
500 -200 m 1
 500 700 l 1
 1600 700 l 1
 1600 500 l 1
 1100 500 l 1
 1100 -200 l 1
 900 -200 l 1
 900 500 l 1
 700 500 l 1
 700 -200 l 1
 500 -200 l 1
EndSplineSet
Validated: 1
EndChar

StartChar: SF390000
Encoding: 403 9556 403
Width: 1600
VWidth: 1000
Flags: HMW
LayerCount: 2
Fore
SplineSet
500 -200 m 1
 500 900 l 1
 1600 900 l 1
 1600 700 l 1
 700 700 l 1
 700 -200 l 1
 500 -200 l 1
900 -200 m 1
 900 500 l 1
 1600 500 l 1
 1600 300 l 1
 1100 300 l 1
 1100 -200 l 1
 900 -200 l 1
EndSplineSet
Validated: 1
EndChar

StartChar: SF220000
Encoding: 404 9557 404
Width: 1600
VWidth: 1000
Flags: HMW
LayerCount: 2
Fore
SplineSet
0 300 m 1
 0 500 l 1
 700 500 l 1
 700 700 l 1
 0 700 l 1
 0 900 l 1
 900 900 l 1
 900 -200 l 1
 700 -200 l 1
 700 300 l 1
 0 300 l 1
EndSplineSet
Validated: 1
EndChar

StartChar: SF210000
Encoding: 405 9558 405
Width: 1600
VWidth: 1000
Flags: HMW
LayerCount: 2
Fore
SplineSet
0 500 m 1
 0 700 l 1
 1100 700 l 1
 1100 -200 l 1
 900 -200 l 1
 900 500 l 1
 700 500 l 1
 700 -200 l 1
 500 -200 l 1
 500 500 l 1
 0 500 l 1
EndSplineSet
Validated: 1
EndChar

StartChar: SF250000
Encoding: 406 9559 406
Width: 1600
VWidth: 1000
Flags: HMW
LayerCount: 2
Fore
SplineSet
0 300 m 1
 0 500 l 1
 700 500 l 1
 700 -200 l 1
 500 -200 l 1
 500 300 l 1
 0 300 l 1
0 700 m 1
 0 900 l 1
 1100 900 l 1
 1100 -200 l 1
 900 -200 l 1
 900 700 l 1
 0 700 l 1
EndSplineSet
Validated: 1
EndChar

StartChar: SF500000
Encoding: 407 9560 407
Width: 1600
VWidth: 1000
Flags: HMW
LayerCount: 2
Fore
SplineSet
700 300 m 1
 700 1400 l 1
 900 1400 l 1
 900 900 l 1
 1600 900 l 1
 1600 700 l 1
 900 700 l 1
 900 500 l 1
 1600 500 l 1
 1600 300 l 1
 700 300 l 1
EndSplineSet
Validated: 1
EndChar

StartChar: SF490000
Encoding: 408 9561 408
Width: 1600
VWidth: 1000
Flags: HMW
LayerCount: 2
Fore
SplineSet
500 500 m 1
 500 1400 l 1
 700 1400 l 1
 700 700 l 1
 900 700 l 1
 900 1400 l 1
 1100 1400 l 1
 1100 700 l 1
 1600 700 l 1
 1600 500 l 1
 500 500 l 1
EndSplineSet
Validated: 1
EndChar

StartChar: SF380000
Encoding: 409 9562 409
Width: 1600
VWidth: 1000
Flags: HMW
LayerCount: 2
Fore
SplineSet
500 300 m 1
 500 1400 l 1
 700 1400 l 1
 700 500 l 1
 1600 500 l 1
 1600 300 l 1
 500 300 l 1
900 700 m 1
 900 1400 l 1
 1100 1400 l 1
 1100 900 l 1
 1600 900 l 1
 1600 700 l 1
 900 700 l 1
EndSplineSet
Validated: 1
EndChar

StartChar: SF280000
Encoding: 410 9563 410
Width: 1600
VWidth: 1000
Flags: HMW
LayerCount: 2
Fore
SplineSet
0 300 m 1
 0 500 l 1
 700 500 l 1
 700 700 l 1
 0 700 l 1
 0 900 l 1
 700 900 l 1
 700 1400 l 1
 900 1400 l 1
 900 300 l 1
 0 300 l 1
EndSplineSet
Validated: 1
EndChar

StartChar: SF270000
Encoding: 411 9564 411
Width: 1600
VWidth: 1000
Flags: HMW
LayerCount: 2
Fore
SplineSet
0 500 m 1
 0 700 l 1
 500 700 l 1
 500 1400 l 1
 700 1400 l 1
 700 700 l 1
 900 700 l 1
 900 1400 l 1
 1100 1400 l 1
 1100 500 l 1
 0 500 l 1
EndSplineSet
Validated: 1
EndChar

StartChar: SF260000
Encoding: 412 9565 412
Width: 1600
VWidth: 1000
Flags: HMW
LayerCount: 2
Fore
SplineSet
0 300 m 1
 0 500 l 1
 900 500 l 1
 900 1400 l 1
 1100 1400 l 1
 1100 300 l 1
 0 300 l 1
0 700 m 1
 0 900 l 1
 500 900 l 1
 500 1400 l 1
 700 1400 l 1
 700 700 l 1
 0 700 l 1
EndSplineSet
Validated: 1
EndChar

StartChar: SF360000
Encoding: 413 9566 413
Width: 1600
VWidth: 1000
Flags: HMW
LayerCount: 2
Fore
SplineSet
700 -200 m 1
 700 1400 l 1
 900 1400 l 1
 900 900 l 1
 1600 900 l 1
 1600 700 l 1
 900 700 l 1
 900 500 l 1
 1600 500 l 1
 1600 300 l 1
 900 300 l 1
 900 -200 l 1
 700 -200 l 1
EndSplineSet
Validated: 1
EndChar

StartChar: SF370000
Encoding: 414 9567 414
Width: 1600
VWidth: 1000
Flags: HMW
LayerCount: 2
Fore
SplineSet
500 -200 m 1
 500 1400 l 1
 700 1400 l 1
 700 -200 l 1
 500 -200 l 1
900 -200 m 1
 900 1400 l 1
 1100 1400 l 1
 1100 700 l 1
 1600 700 l 1
 1600 500 l 1
 1100 500 l 1
 1100 -200 l 1
 900 -200 l 1
EndSplineSet
Validated: 1
EndChar

StartChar: SF420000
Encoding: 415 9568 415
Width: 1600
VWidth: 1000
Flags: HMW
LayerCount: 2
Fore
SplineSet
500 -200 m 25
 500 1400 l 25
 700 1400 l 25
 700 -200 l 25
 500 -200 l 25
900 -200 m 1
 900 500 l 1
 1600 500 l 1
 1600 300 l 1
 1100 300 l 1
 1100 -200 l 1
 900 -200 l 1
900 700 m 1
 900 1400 l 1
 1100 1400 l 1
 1100 900 l 1
 1600 900 l 1
 1600 700 l 1
 900 700 l 1
EndSplineSet
Validated: 1
EndChar

StartChar: SF190000
Encoding: 416 9569 416
Width: 1600
VWidth: 1000
Flags: HMW
LayerCount: 2
Fore
SplineSet
0 300 m 1
 0 500 l 1
 700 500 l 1
 700 700 l 1
 0 700 l 1
 0 900 l 1
 700 900 l 1
 700 1400 l 1
 900 1400 l 1
 900 -200 l 1
 700 -200 l 1
 700 300 l 1
 0 300 l 1
EndSplineSet
Validated: 1
EndChar

StartChar: SF200000
Encoding: 417 9570 417
Width: 1600
VWidth: 1000
Flags: HMW
LayerCount: 2
Fore
SplineSet
0 500 m 1
 0 700 l 1
 500 700 l 1
 500 1400 l 1
 700 1400 l 1
 700 -200 l 1
 500 -200 l 1
 500 500 l 1
 0 500 l 1
900 -200 m 1
 900 1400 l 1
 1100 1400 l 1
 1100 -200 l 1
 900 -200 l 1
EndSplineSet
Validated: 1
EndChar

StartChar: SF230000
Encoding: 418 9571 418
Width: 1600
VWidth: 1000
Flags: HMW
LayerCount: 2
Fore
SplineSet
0 300 m 1
 0 500 l 1
 700 500 l 1
 700 -200 l 1
 500 -200 l 1
 500 300 l 1
 0 300 l 1
0 700 m 1
 0 900 l 1
 500 900 l 1
 500 1400 l 1
 700 1400 l 1
 700 700 l 1
 0 700 l 1
900 -200 m 25
 900 1400 l 25
 1100 1400 l 25
 1100 -200 l 25
 900 -200 l 25
EndSplineSet
Validated: 1
EndChar

StartChar: SF470000
Encoding: 419 9572 419
Width: 1600
VWidth: 1000
Flags: HMW
LayerCount: 2
Fore
SplineSet
0 300 m 1
 0 500 l 1
 1600 500 l 1
 1600 300 l 1
 900 300 l 1
 900 -200 l 1
 700 -200 l 1
 700 300 l 1
 0 300 l 1
0 700 m 1
 0 900 l 1
 1600 900 l 1
 1600 700 l 1
 0 700 l 1
EndSplineSet
Validated: 1
EndChar

StartChar: SF480000
Encoding: 420 9573 420
Width: 1600
VWidth: 1000
Flags: HMW
LayerCount: 2
Fore
SplineSet
0 500 m 1
 0 700 l 1
 1600 700 l 1
 1600 500 l 1
 1100 500 l 1
 1100 -200 l 1
 900 -200 l 1
 900 500 l 1
 700 500 l 1
 700 -200 l 1
 500 -200 l 1
 500 500 l 1
 0 500 l 1
EndSplineSet
Validated: 1
EndChar

StartChar: SF410000
Encoding: 421 9574 421
Width: 1600
VWidth: 1000
Flags: HMW
LayerCount: 2
Fore
SplineSet
0 300 m 1
 0 500 l 1
 700 500 l 1
 700 -200 l 1
 500 -200 l 1
 500 300 l 1
 0 300 l 1
0 700 m 25
 0 900 l 25
 1600 900 l 25
 1600 700 l 25
 0 700 l 25
900 -200 m 1
 900 500 l 1
 1600 500 l 1
 1600 300 l 1
 1100 300 l 1
 1100 -200 l 1
 900 -200 l 1
EndSplineSet
Validated: 1
EndChar

StartChar: SF450000
Encoding: 422 9575 422
Width: 1600
VWidth: 1000
Flags: HMW
LayerCount: 2
Fore
SplineSet
0 300 m 1
 0 500 l 1
 1600 500 l 1
 1600 300 l 1
 0 300 l 1
0 700 m 1
 0 900 l 1
 700 900 l 1
 700 1400 l 1
 900 1400 l 1
 900 900 l 1
 1600 900 l 1
 1600 700 l 1
 0 700 l 1
EndSplineSet
Validated: 1
EndChar

StartChar: SF460000
Encoding: 423 9576 423
Width: 1600
VWidth: 1000
Flags: HMW
LayerCount: 2
Fore
SplineSet
0 500 m 1
 0 700 l 1
 500 700 l 1
 500 1400 l 1
 700 1400 l 1
 700 700 l 1
 900 700 l 1
 900 1400 l 1
 1100 1400 l 1
 1100 700 l 1
 1600 700 l 1
 1600 500 l 1
 0 500 l 1
EndSplineSet
Validated: 1
EndChar

StartChar: SF400000
Encoding: 424 9577 424
Width: 1600
VWidth: 1000
Flags: HMW
LayerCount: 2
Fore
SplineSet
0 300 m 25
 0 500 l 25
 1600 500 l 25
 1600 300 l 25
 0 300 l 25
0 700 m 1
 0 900 l 1
 500 900 l 1
 500 1400 l 1
 700 1400 l 1
 700 700 l 1
 0 700 l 1
900 700 m 1
 900 1400 l 1
 1100 1400 l 1
 1100 900 l 1
 1600 900 l 1
 1600 700 l 1
 900 700 l 1
EndSplineSet
Validated: 1
EndChar

StartChar: SF540000
Encoding: 425 9578 425
Width: 1600
VWidth: 1000
Flags: HMW
LayerCount: 2
Fore
SplineSet
0 300 m 1
 0 500 l 1
 1600 500 l 1
 1600 300 l 1
 900 300 l 1
 900 -200 l 1
 700 -200 l 1
 700 300 l 1
 0 300 l 1
0 700 m 1
 0 900 l 1
 700 900 l 1
 700 1400 l 1
 900 1400 l 1
 900 900 l 1
 1600 900 l 1
 1600 700 l 1
 0 700 l 1
EndSplineSet
Validated: 1
EndChar

StartChar: SF530000
Encoding: 426 9579 426
Width: 1600
VWidth: 1000
Flags: HMW
LayerCount: 2
Fore
SplineSet
0 500 m 1
 0 700 l 1
 500 700 l 1
 500 1400 l 1
 700 1400 l 1
 700 -200 l 1
 500 -200 l 1
 500 500 l 1
 0 500 l 1
900 -200 m 1
 900 1400 l 1
 1100 1400 l 1
 1100 700 l 1
 1600 700 l 1
 1600 500 l 1
 1100 500 l 1
 1100 -200 l 1
 900 -200 l 1
EndSplineSet
Validated: 1
EndChar

StartChar: SF440000
Encoding: 427 9580 427
Width: 1600
VWidth: 1000
Flags: HMW
LayerCount: 2
Fore
SplineSet
0 300 m 1
 0 500 l 1
 700 500 l 1
 700 -200 l 1
 500 -200 l 1
 500 300 l 1
 0 300 l 1
0 700 m 1
 0 900 l 1
 500 900 l 1
 500 1400 l 1
 700 1400 l 1
 700 700 l 1
 0 700 l 1
900 -200 m 1
 900 500 l 1
 1600 500 l 1
 1600 300 l 1
 1100 300 l 1
 1100 -200 l 1
 900 -200 l 1
900 700 m 1
 900 1400 l 1
 1100 1400 l 1
 1100 900 l 1
 1600 900 l 1
 1600 700 l 1
 900 700 l 1
EndSplineSet
Validated: 1
EndChar

StartChar: uni256D
Encoding: 428 9581 428
Width: 1600
VWidth: 1000
Flags: HMW
LayerCount: 2
Fore
SplineSet
700 -200 m 1
 700 296 1104 700 1600 700 c 1
 1600 500 l 1
 1214 500 900 186 900 -200 c 1
 700 -200 l 1
EndSplineSet
Validated: 1
EndChar

StartChar: uni256E
Encoding: 429 9582 429
Width: 1600
VWidth: 1000
Flags: HMW
LayerCount: 2
Fore
SplineSet
0 500 m 1
 0 700 l 1
 496 700 900 296 900 -200 c 1
 700 -200 l 1
 700 186 386 500 0 500 c 1
EndSplineSet
Validated: 1
EndChar

StartChar: uni256F
Encoding: 430 9583 430
Width: 1600
VWidth: 1000
Flags: HMW
LayerCount: 2
Fore
SplineSet
0 500 m 1
 0 700 l 1
 386 700 700 1014 700 1400 c 1
 900 1400 l 1
 900 904 496 500 0 500 c 1
EndSplineSet
Validated: 1
EndChar

StartChar: uni2570
Encoding: 431 9584 431
Width: 1600
VWidth: 1000
Flags: HMW
LayerCount: 2
Fore
SplineSet
700 1400 m 1
 900 1400 l 1
 900 1014 1214 700 1600 700 c 1
 1600 500 l 1
 1104 500 700 904 700 1400 c 1
EndSplineSet
Validated: 1
EndChar

StartChar: uni2571
Encoding: 432 9585 432
Width: 1600
VWidth: 1000
Flags: HMW
LayerCount: 2
Fore
SplineSet
0 -50 m 9
 1450 1400 l 17
 1600 1400 l 1
 1600 1250 l 9
 150 -200 l 17
 0 -200 l 1
 0 -50 l 9
EndSplineSet
Validated: 1
EndChar

StartChar: uni2572
Encoding: 433 9586 433
Width: 1600
VWidth: 1000
Flags: HMW
LayerCount: 2
Fore
SplineSet
0 1250 m 17
 0 1400 l 1
 150 1400 l 9
 1600 -50 l 17
 1600 -200 l 1
 1450 -200 l 9
 0 1250 l 17
EndSplineSet
Validated: 1
EndChar

StartChar: uni2573
Encoding: 434 9587 434
Width: 1600
VWidth: 1000
Flags: HMW
LayerCount: 2
Fore
SplineSet
0 -50 m 1
 650 600 l 1
 0 1250 l 1
 0 1400 l 1
 150 1400 l 1
 800 750 l 1
 1450 1400 l 1
 1600 1400 l 1
 1600 1250 l 1
 950 600 l 1
 1600 -50 l 1
 1600 -200 l 1
 1450 -200 l 1
 800 450 l 1
 150 -200 l 1
 0 -200 l 1
 0 -50 l 1
EndSplineSet
Validated: 1
EndChar

StartChar: uni2423
Encoding: 435 9251 435
Width: 1600
VWidth: 1000
Flags: HMW
LayerCount: 2
Fore
SplineSet
200 0 m 1
 200 400 l 1
 400 400 l 1
 400 200 l 1
 1200 200 l 1
 1200 400 l 1
 1400 400 l 1
 1400 0 l 1
 200 0 l 1
EndSplineSet
Validated: 1
EndChar

StartChar: arrowleft
Encoding: 436 8592 436
Width: 1600
VWidth: 1000
Flags: HMW
LayerCount: 2
Fore
SplineSet
100 600 m 1
 100 800 l 1
 500 1200 l 1
 600 1200 l 1
 600 1000 l 1
 400 800 l 1
 1500 800 l 1
 1500 600 l 1
 400 600 l 1
 600 400 l 1
 600 200 l 1
 500 200 l 1
 100 600 l 1
EndSplineSet
Validated: 1
EndChar

StartChar: arrowup
Encoding: 437 8593 437
Width: 1600
VWidth: 1000
Flags: HMW
LayerCount: 2
Fore
SplineSet
300 900 m 1
 300 1000 l 1
 700 1400 l 1
 900 1400 l 1
 1300 1000 l 1
 1300 900 l 1
 1100 900 l 1
 900 1100 l 1
 900 0 l 1
 700 0 l 1
 700 1100 l 1
 500 900 l 1
 300 900 l 1
EndSplineSet
Validated: 1
EndChar

StartChar: arrowright
Encoding: 438 8594 438
Width: 1600
VWidth: 1000
Flags: HMW
LayerCount: 2
Fore
SplineSet
100 600 m 1
 100 800 l 1
 1200 800 l 1
 1000 1000 l 1
 1000 1200 l 1
 1100 1200 l 1
 1500 800 l 1
 1500 600 l 1
 1100 200 l 1
 1000 200 l 1
 1000 400 l 1
 1200 600 l 1
 100 600 l 1
EndSplineSet
Validated: 1
EndChar

StartChar: arrowdown
Encoding: 439 8595 439
Width: 1600
VWidth: 1000
Flags: HMW
LayerCount: 2
Fore
SplineSet
300 400 m 1
 300 500 l 1
 500 500 l 1
 700 300 l 1
 700 1400 l 1
 900 1400 l 1
 900 300 l 1
 1100 500 l 1
 1300 500 l 1
 1300 400 l 1
 900 0 l 1
 700 0 l 1
 300 400 l 1
EndSplineSet
Validated: 1
EndChar

StartChar: arrowboth
Encoding: 440 8596 440
Width: 1600
VWidth: 1000
Flags: HMW
LayerCount: 2
Fore
SplineSet
100 600 m 1
 100 800 l 1
 500 1200 l 1
 600 1200 l 1
 600 1000 l 1
 400 800 l 1
 1200 800 l 1
 1000 1000 l 1
 1000 1200 l 1
 1100 1200 l 1
 1500 800 l 1
 1500 600 l 1
 1100 200 l 1
 1000 200 l 1
 1000 400 l 1
 1200 600 l 1
 400 600 l 1
 600 400 l 1
 600 200 l 1
 500 200 l 1
 100 600 l 1
EndSplineSet
Validated: 1
EndChar

StartChar: arrowupdn
Encoding: 441 8597 441
Width: 1600
VWidth: 1000
Flags: HMW
LayerCount: 2
Fore
SplineSet
300 400 m 1
 300 500 l 1
 500 500 l 1
 700 300 l 1
 700 1100 l 1
 500 900 l 1
 300 900 l 1
 300 1000 l 1
 700 1400 l 1
 900 1400 l 1
 1300 1000 l 1
 1300 900 l 1
 1100 900 l 1
 900 1100 l 1
 900 300 l 1
 1100 500 l 1
 1300 500 l 1
 1300 400 l 1
 900 0 l 1
 700 0 l 1
 300 400 l 1
EndSplineSet
Validated: 1
EndChar

StartChar: uni2196
Encoding: 442 8598 442
Width: 1600
VWidth: 1000
Flags: HMW
LayerCount: 2
Fore
SplineSet
100 600 m 1
 100 1400 l 1
 900 1400 l 1
 900 1200 l 1
 450 1200 l 1
 1500 150 l 1
 1500 0 l 1
 1350 0 l 1
 300 1050 l 1
 300 600 l 1
 100 600 l 1
EndSplineSet
Validated: 1
EndChar

StartChar: uni2197
Encoding: 443 8599 443
Width: 1600
VWidth: 1000
Flags: HMW
LayerCount: 2
Fore
SplineSet
100 0 m 1
 100 150 l 1
 1150 1200 l 1
 700 1200 l 1
 700 1400 l 1
 1500 1400 l 1
 1500 600 l 1
 1300 600 l 1
 1300 1050 l 1
 250 0 l 1
 100 0 l 1
EndSplineSet
Validated: 1
EndChar

StartChar: uni2198
Encoding: 444 8600 444
Width: 1600
VWidth: 1000
Flags: HMW
LayerCount: 2
Fore
SplineSet
100 1250 m 1
 100 1400 l 1
 250 1400 l 1
 1300 350 l 1
 1300 800 l 1
 1500 800 l 1
 1500 0 l 1
 700 0 l 1
 700 200 l 1
 1150 200 l 1
 100 1250 l 1
EndSplineSet
Validated: 1
EndChar

StartChar: uni2199
Encoding: 445 8601 445
Width: 1600
VWidth: 1000
Flags: HMW
LayerCount: 2
Fore
SplineSet
100 0 m 1
 100 800 l 1
 300 800 l 1
 300 350 l 1
 1350 1400 l 1
 1500 1400 l 1
 1500 1250 l 1
 450 200 l 1
 900 200 l 1
 900 0 l 1
 100 0 l 1
EndSplineSet
Validated: 1
EndChar

StartChar: uni2921
Encoding: 446 10529 446
Width: 1600
VWidth: 1000
Flags: HMW
LayerCount: 2
Fore
SplineSet
100 600 m 1
 100 1400 l 1
 900 1400 l 1
 900 1200 l 1
 450 1200 l 1
 1300 350 l 1
 1300 800 l 1
 1500 800 l 1
 1500 0 l 1
 700 0 l 1
 700 200 l 1
 1150 200 l 1
 300 1050 l 1
 300 600 l 1
 100 600 l 1
EndSplineSet
Validated: 1
EndChar

StartChar: uni2922
Encoding: 447 10530 447
Width: 1600
VWidth: 1000
Flags: HMW
LayerCount: 2
Fore
SplineSet
100 0 m 1
 100 800 l 1
 300 800 l 1
 300 350 l 1
 1150 1200 l 1
 700 1200 l 1
 700 1400 l 1
 1500 1400 l 1
 1500 600 l 1
 1300 600 l 1
 1300 1050 l 1
 450 200 l 1
 900 200 l 1
 900 0 l 1
 100 0 l 1
EndSplineSet
Validated: 1
EndChar

StartChar: uni2070
Encoding: 448 8304 448
Width: 1600
VWidth: 1000
Flags: HMW
LayerCount: 2
Fore
SplineSet
400 900 m 1
 400 1200 l 1
 600 1400 l 1
 1000 1400 l 1
 1200 1200 l 1
 1200 900 l 1
 1000 700 l 1
 600 700 l 1
 400 900 l 1
600 950 m 1
 750 800 l 1
 850 800 l 1
 888 838 l 1
 600 1125 l 1
 600 950 l 1
712 1262 m 1
 1000 975 l 1
 1000 1150 l 1
 850 1300 l 1
 750 1300 l 1
 712 1262 l 1
EndSplineSet
Validated: 1
EndChar

StartChar: uni00B9
Encoding: 449 185 449
Width: 1600
VWidth: 1000
Flags: HMW
LayerCount: 2
Fore
SplineSet
400 700 m 1
 400 800 l 1
 700 800 l 1
 700 1300 l 1
 600 1200 l 1
 400 1200 l 1
 400 1250 l 1
 550 1400 l 1
 900 1400 l 1
 900 800 l 1
 1200 800 l 1
 1200 700 l 1
 400 700 l 1
EndSplineSet
Validated: 1
EndChar

StartChar: uni00B2
Encoding: 450 178 450
Width: 1600
VWidth: 1000
Flags: HMW
LayerCount: 2
Fore
SplineSet
400 700 m 1
 400 850 l 1
 550 1000 l 1
 900 1100 l 1
 1000 1200 l 1
 900 1300 l 1
 700 1300 l 1
 600 1200 l 1
 400 1200 l 1
 400 1250 l 1
 550 1400 l 1
 1050 1400 l 1
 1200 1250 l 1
 1200 1150 l 1
 1050 1000 l 1
 700 900 l 1
 600 800 l 1
 1200 800 l 1
 1200 700 l 1
 400 700 l 1
EndSplineSet
Validated: 1
EndChar

StartChar: uni00B3
Encoding: 451 179 451
Width: 1600
VWidth: 1000
Flags: HMW
LayerCount: 2
Fore
SplineSet
400 850 m 1
 400 900 l 1
 600 900 l 1
 700 800 l 1
 900 800 l 1
 1000 900 l 1
 900 1000 l 1
 600 1000 l 1
 600 1100 l 1
 900 1100 l 1
 1000 1200 l 1
 900 1300 l 1
 700 1300 l 1
 600 1200 l 1
 400 1200 l 1
 400 1250 l 1
 550 1400 l 1
 1050 1400 l 1
 1200 1250 l 1
 1200 1150 l 1
 1100 1050 l 1
 1200 950 l 1
 1200 850 l 1
 1050 700 l 1
 550 700 l 1
 400 850 l 1
EndSplineSet
Validated: 1
EndChar

StartChar: uni2074
Encoding: 452 8308 452
Width: 1600
VWidth: 1000
Flags: HMW
LayerCount: 2
Fore
SplineSet
400 900 m 1
 400 1000 l 1
 800 1400 l 1
 1100 1400 l 1
 1100 1000 l 1
 1200 1000 l 1
 1200 900 l 1
 1100 900 l 1
 1100 700 l 1
 900 700 l 1
 900 900 l 1
 400 900 l 1
650 1000 m 1
 900 1000 l 1
 900 1250 l 1
 650 1000 l 1
EndSplineSet
Validated: 1
EndChar

StartChar: uni2075
Encoding: 453 8309 453
Width: 1600
VWidth: 1000
Flags: HMW
LayerCount: 2
Fore
SplineSet
400 850 m 1
 400 900 l 1
 600 900 l 1
 700 800 l 1
 900 800 l 1
 1000 900 l 1
 1000 1000 l 1
 900 1100 l 1
 400 1100 l 1
 400 1400 l 1
 1200 1400 l 1
 1200 1300 l 1
 600 1300 l 1
 600 1200 l 1
 1050 1200 l 1
 1200 1050 l 1
 1200 850 l 1
 1050 700 l 1
 550 700 l 1
 400 850 l 1
EndSplineSet
Validated: 1
EndChar

StartChar: uni2076
Encoding: 454 8310 454
Width: 1600
VWidth: 1000
Flags: HMW
LayerCount: 2
Fore
SplineSet
400 850 m 1
 400 1150 l 1
 650 1400 l 1
 850 1400 l 1
 850 1350 l 1
 600 1100 l 1
 1050 1100 l 1
 1200 950 l 1
 1200 850 l 1
 1050 700 l 1
 550 700 l 1
 400 850 l 1
600 900 m 1
 700 800 l 1
 900 800 l 1
 1000 900 l 1
 900 1000 l 1
 600 1000 l 1
 600 900 l 1
EndSplineSet
Validated: 1
EndChar

StartChar: uni2077
Encoding: 455 8311 455
Width: 1600
VWidth: 1000
Flags: HMW
LayerCount: 2
Fore
SplineSet
400 1300 m 1
 400 1400 l 1
 1200 1400 l 1
 1200 1150 l 1
 900 850 l 1
 900 700 l 1
 700 700 l 1
 700 900 l 1
 1000 1200 l 1
 1000 1300 l 1
 400 1300 l 1
EndSplineSet
Validated: 1
EndChar

StartChar: uni2078
Encoding: 456 8312 456
Width: 1600
VWidth: 1000
Flags: HMW
LayerCount: 2
Fore
SplineSet
400 850 m 1
 400 950 l 1
 500 1050 l 1
 400 1150 l 1
 400 1250 l 1
 550 1400 l 1
 1050 1400 l 1
 1200 1250 l 1
 1200 1150 l 1
 1100 1050 l 1
 1200 950 l 1
 1200 850 l 1
 1050 700 l 1
 550 700 l 1
 400 850 l 1
600 900 m 1
 700 800 l 1
 900 800 l 1
 1000 900 l 1
 900 1000 l 1
 700 1000 l 1
 600 900 l 1
600 1200 m 1
 700 1100 l 1
 900 1100 l 1
 1000 1200 l 1
 900 1300 l 1
 700 1300 l 1
 600 1200 l 1
EndSplineSet
Validated: 1
EndChar

StartChar: uni2079
Encoding: 457 8313 457
Width: 1600
VWidth: 1000
Flags: HMW
LayerCount: 2
Fore
SplineSet
400 1150 m 1
 400 1250 l 1
 550 1400 l 1
 1050 1400 l 1
 1200 1250 l 1
 1200 950 l 1
 950 700 l 1
 750 700 l 1
 750 750 l 1
 1000 1000 l 1
 550 1000 l 1
 400 1150 l 1
600 1200 m 1
 700 1100 l 1
 1000 1100 l 1
 1000 1200 l 1
 900 1300 l 1
 700 1300 l 1
 600 1200 l 1
EndSplineSet
Validated: 1
EndChar

StartChar: uni2080
Encoding: 458 8320 458
Width: 1600
VWidth: 1000
Flags: HMW
LayerCount: 2
Fore
SplineSet
400 200 m 1
 400 500 l 1
 600 700 l 1
 1000 700 l 1
 1200 500 l 1
 1200 200 l 1
 1000 0 l 1
 600 0 l 1
 400 200 l 1
600 250 m 1
 750 100 l 1
 850 100 l 1
 888 138 l 1
 600 425 l 1
 600 250 l 1
712 562 m 1
 1000 275 l 1
 1000 450 l 1
 850 600 l 1
 750 600 l 1
 712 562 l 1
EndSplineSet
Validated: 1
EndChar

StartChar: uni2081
Encoding: 459 8321 459
Width: 1600
VWidth: 1000
Flags: HMW
LayerCount: 2
Fore
SplineSet
400 0 m 1
 400 100 l 1
 700 100 l 1
 700 600 l 1
 600 500 l 1
 400 500 l 1
 400 550 l 1
 550 700 l 1
 900 700 l 1
 900 100 l 1
 1200 100 l 1
 1200 0 l 1
 400 0 l 1
EndSplineSet
Validated: 1
EndChar

StartChar: uni2082
Encoding: 460 8322 460
Width: 1600
VWidth: 1000
Flags: HMW
LayerCount: 2
Fore
SplineSet
400 0 m 1
 400 150 l 1
 550 300 l 1
 900 400 l 1
 1000 500 l 1
 900 600 l 1
 700 600 l 1
 600 500 l 1
 400 500 l 1
 400 550 l 1
 550 700 l 1
 1050 700 l 1
 1200 550 l 1
 1200 450 l 1
 1050 300 l 1
 700 200 l 1
 600 100 l 1
 1200 100 l 1
 1200 0 l 1
 400 0 l 1
EndSplineSet
Validated: 1
EndChar

StartChar: uni2083
Encoding: 461 8323 461
Width: 1600
VWidth: 1000
Flags: HMW
LayerCount: 2
Fore
SplineSet
400 150 m 1
 400 200 l 1
 600 200 l 1
 700 100 l 1
 900 100 l 1
 1000 200 l 1
 900 300 l 1
 600 300 l 1
 600 400 l 1
 900 400 l 1
 1000 500 l 1
 900 600 l 1
 700 600 l 1
 600 500 l 1
 400 500 l 1
 400 550 l 1
 550 700 l 1
 1050 700 l 1
 1200 550 l 1
 1200 450 l 1
 1100 350 l 1
 1200 250 l 1
 1200 150 l 1
 1050 0 l 1
 550 0 l 1
 400 150 l 1
EndSplineSet
Validated: 1
EndChar

StartChar: uni2084
Encoding: 462 8324 462
Width: 1600
VWidth: 1000
Flags: HMW
LayerCount: 2
Fore
SplineSet
400 200 m 1
 400 300 l 1
 800 700 l 1
 1100 700 l 1
 1100 300 l 1
 1200 300 l 1
 1200 200 l 1
 1100 200 l 1
 1100 0 l 1
 900 0 l 1
 900 200 l 1
 400 200 l 1
650 300 m 1
 900 300 l 1
 900 550 l 1
 650 300 l 1
EndSplineSet
Validated: 1
EndChar

StartChar: uni2085
Encoding: 463 8325 463
Width: 1600
VWidth: 1000
Flags: HMW
LayerCount: 2
Fore
SplineSet
400 150 m 1
 400 200 l 1
 600 200 l 1
 700 100 l 1
 900 100 l 1
 1000 200 l 1
 1000 300 l 1
 900 400 l 1
 400 400 l 1
 400 700 l 1
 1200 700 l 1
 1200 600 l 1
 600 600 l 1
 600 500 l 1
 1050 500 l 1
 1200 350 l 1
 1200 150 l 1
 1050 0 l 1
 550 0 l 1
 400 150 l 1
EndSplineSet
Validated: 1
EndChar

StartChar: uni2086
Encoding: 464 8326 464
Width: 1600
VWidth: 1000
Flags: HMW
LayerCount: 2
Fore
SplineSet
400 150 m 1
 400 450 l 1
 650 700 l 1
 850 700 l 1
 850 650 l 1
 600 400 l 1
 1050 400 l 1
 1200 250 l 1
 1200 150 l 1
 1050 0 l 1
 550 0 l 1
 400 150 l 1
600 200 m 1
 700 100 l 1
 900 100 l 1
 1000 200 l 1
 900 300 l 1
 600 300 l 1
 600 200 l 1
EndSplineSet
Validated: 1
EndChar

StartChar: uni2087
Encoding: 465 8327 465
Width: 1600
VWidth: 1000
Flags: HMW
LayerCount: 2
Fore
SplineSet
400 600 m 1
 400 700 l 1
 1200 700 l 1
 1200 450 l 1
 900 150 l 1
 900 0 l 1
 700 0 l 1
 700 200 l 1
 1000 500 l 1
 1000 600 l 1
 400 600 l 1
EndSplineSet
Validated: 1
EndChar

StartChar: uni2088
Encoding: 466 8328 466
Width: 1600
VWidth: 1000
Flags: HMW
LayerCount: 2
Fore
SplineSet
400 150 m 1
 400 250 l 1
 500 350 l 1
 400 450 l 1
 400 550 l 1
 550 700 l 1
 1050 700 l 1
 1200 550 l 1
 1200 450 l 1
 1100 350 l 1
 1200 250 l 1
 1200 150 l 1
 1050 0 l 1
 550 0 l 1
 400 150 l 1
600 200 m 1
 700 100 l 1
 900 100 l 1
 1000 200 l 1
 900 300 l 1
 700 300 l 1
 600 200 l 1
600 500 m 1
 700 400 l 1
 900 400 l 1
 1000 500 l 1
 900 600 l 1
 700 600 l 1
 600 500 l 1
EndSplineSet
Validated: 1
EndChar

StartChar: uni2089
Encoding: 467 8329 467
Width: 1600
VWidth: 1000
Flags: HMW
LayerCount: 2
Fore
SplineSet
400 450 m 1
 400 550 l 1
 550 700 l 1
 1050 700 l 1
 1200 550 l 1
 1200 250 l 1
 950 0 l 1
 750 0 l 1
 750 50 l 1
 1000 300 l 1
 550 300 l 1
 400 450 l 1
600 500 m 1
 700 400 l 1
 1000 400 l 1
 1000 500 l 1
 900 600 l 1
 700 600 l 1
 600 500 l 1
EndSplineSet
Validated: 1
EndChar

StartChar: onequarter
Encoding: 468 188 468
Width: 1600
VWidth: 1000
Flags: HMW
LayerCount: 2
Fore
SplineSet
100 800 m 1
 100 900 l 1
 300 900 l 1
 300 1200 l 1
 100 1200 l 1
 100 1300 l 1
 300 1300 l 1
 300 1400 l 1
 500 1400 l 1
 500 900 l 1
 700 900 l 1
 700 800 l 1
 100 800 l 1
300 0 m 1
 1100 1400 l 1
 1300 1400 l 1
 500 0 l 1
 300 0 l 1
900 100 m 1
 900 300 l 1
 1200 600 l 1
 1400 600 l 1
 1400 200 l 1
 1500 200 l 1
 1500 100 l 1
 1400 100 l 1
 1400 0 l 1
 1200 0 l 1
 1200 100 l 1
 900 100 l 1
1100 200 m 1
 1200 200 l 1
 1200 400 l 1
 1100 300 l 1
 1100 200 l 1
EndSplineSet
Validated: 1
EndChar

StartChar: onehalf
Encoding: 469 189 469
Width: 1600
VWidth: 1000
Flags: HMW
LayerCount: 2
Fore
SplineSet
100 800 m 1
 100 900 l 1
 300 900 l 1
 300 1200 l 1
 100 1200 l 1
 100 1300 l 1
 300 1300 l 1
 300 1400 l 1
 500 1400 l 1
 500 900 l 1
 700 900 l 1
 700 800 l 1
 100 800 l 1
300 0 m 1
 1100 1400 l 1
 1300 1400 l 1
 500 0 l 1
 300 0 l 1
900 0 m 1
 900 150 l 1
 1000 250 l 1
 1300 400 l 1
 1300 500 l 1
 900 500 l 1
 900 600 l 1
 1400 600 l 1
 1500 500 l 1
 1500 400 l 1
 1400 300 l 1
 1100 150 l 1
 1100 100 l 1
 1500 100 l 1
 1500 0 l 1
 900 0 l 1
EndSplineSet
Validated: 1
EndChar

StartChar: threequarters
Encoding: 470 190 470
Width: 1600
VWidth: 1000
Flags: HMW
LayerCount: 2
Fore
SplineSet
100 800 m 1
 100 900 l 1
 500 900 l 1
 500 1050 l 1
 200 1050 l 1
 200 1150 l 1
 500 1150 l 1
 500 1300 l 1
 100 1300 l 1
 100 1400 l 1
 600 1400 l 1
 700 1300 l 1
 700 1150 l 1
 650 1100 l 1
 700 1050 l 1
 700 900 l 1
 600 800 l 1
 100 800 l 1
300 0 m 1
 1100 1400 l 1
 1300 1400 l 1
 500 0 l 1
 300 0 l 1
900 100 m 1
 900 300 l 1
 1200 600 l 1
 1400 600 l 1
 1400 200 l 1
 1500 200 l 1
 1500 100 l 1
 1400 100 l 1
 1400 0 l 1
 1200 0 l 1
 1200 100 l 1
 900 100 l 1
1100 200 m 1
 1200 200 l 1
 1200 400 l 1
 1100 300 l 1
 1100 200 l 1
EndSplineSet
Validated: 1
EndChar

StartChar: uni2150
Encoding: 471 8528 471
Width: 1600
VWidth: 1000
Flags: HMW
LayerCount: 2
Fore
SplineSet
100 800 m 1
 100 900 l 1
 300 900 l 1
 300 1200 l 1
 100 1200 l 1
 100 1300 l 1
 300 1300 l 1
 300 1400 l 1
 500 1400 l 1
 500 900 l 1
 700 900 l 1
 700 800 l 1
 100 800 l 1
300 0 m 1
 1100 1400 l 1
 1300 1400 l 1
 500 0 l 1
 300 0 l 1
900 500 m 1
 900 600 l 1
 1500 600 l 1
 1500 400 l 1
 1300 200 l 1
 1300 0 l 1
 1100 0 l 1
 1100 200 l 1
 1300 400 l 1
 1300 500 l 1
 900 500 l 1
EndSplineSet
Validated: 1
EndChar

StartChar: uni2151
Encoding: 472 8529 472
Width: 1600
VWidth: 1000
Flags: HMW
LayerCount: 2
Fore
SplineSet
100 800 m 1
 100 900 l 1
 300 900 l 1
 300 1200 l 1
 100 1200 l 1
 100 1300 l 1
 300 1300 l 1
 300 1400 l 1
 500 1400 l 1
 500 900 l 1
 700 900 l 1
 700 800 l 1
 100 800 l 1
300 0 m 1
 1100 1400 l 1
 1300 1400 l 1
 500 0 l 1
 300 0 l 1
900 350 m 1
 900 500 l 1
 1000 600 l 1
 1400 600 l 1
 1500 500 l 1
 1500 100 l 1
 1400 0 l 1
 1000 0 l 1
 1000 100 l 1
 1300 100 l 1
 1300 250 l 1
 1000 250 l 1
 900 350 l 1
1100 350 m 1
 1300 350 l 1
 1300 500 l 1
 1100 500 l 1
 1100 350 l 1
EndSplineSet
Validated: 1
EndChar

StartChar: uni2152
Encoding: 473 8530 473
Width: 1600
VWidth: 1000
Flags: HMW
LayerCount: 2
Fore
SplineSet
100 800 m 1
 100 900 l 1
 300 900 l 1
 300 1200 l 1
 100 1200 l 1
 100 1300 l 1
 300 1300 l 1
 300 1400 l 1
 500 1400 l 1
 500 900 l 1
 700 900 l 1
 700 800 l 1
 100 800 l 1
300 0 m 1
 1100 1400 l 1
 1300 1400 l 1
 500 0 l 1
 300 0 l 1
900 0 m 1
 900 600 l 1
 1000 600 l 1
 1000 0 l 1
 900 0 l 1
1100 100 m 1
 1100 500 l 1
 1200 600 l 1
 1400 600 l 1
 1500 500 l 1
 1500 100 l 1
 1400 0 l 1
 1200 0 l 1
 1100 100 l 1
1200 100 m 1
 1400 100 l 1
 1200 300 l 1
 1200 100 l 1
1200 500 m 1
 1400 300 l 1
 1400 500 l 1
 1200 500 l 1
EndSplineSet
Validated: 1
EndChar

StartChar: onethird
Encoding: 474 8531 474
Width: 1600
VWidth: 1000
Flags: HMW
LayerCount: 2
Fore
SplineSet
100 800 m 1
 100 900 l 1
 300 900 l 1
 300 1200 l 1
 100 1200 l 1
 100 1300 l 1
 300 1300 l 1
 300 1400 l 1
 500 1400 l 1
 500 900 l 1
 700 900 l 1
 700 800 l 1
 100 800 l 1
300 0 m 1
 1100 1400 l 1
 1300 1400 l 1
 500 0 l 1
 300 0 l 1
900 0 m 1
 900 100 l 1
 1300 100 l 1
 1300 250 l 1
 1000 250 l 1
 1000 350 l 1
 1300 350 l 1
 1300 500 l 1
 900 500 l 1
 900 600 l 1
 1400 600 l 1
 1500 500 l 1
 1500 350 l 1
 1450 300 l 1
 1500 250 l 1
 1500 100 l 1
 1400 0 l 1
 900 0 l 1
EndSplineSet
Validated: 1
EndChar

StartChar: twothirds
Encoding: 475 8532 475
Width: 1600
VWidth: 1000
Flags: HMW
LayerCount: 2
Fore
SplineSet
100 800 m 1
 100 950 l 1
 200 1050 l 1
 500 1200 l 1
 500 1300 l 1
 100 1300 l 1
 100 1400 l 1
 600 1400 l 1
 700 1300 l 1
 700 1200 l 1
 600 1100 l 1
 300 950 l 1
 300 900 l 1
 700 900 l 1
 700 800 l 1
 100 800 l 1
300 0 m 1
 1100 1400 l 1
 1300 1400 l 1
 500 0 l 1
 300 0 l 1
900 0 m 1
 900 100 l 1
 1300 100 l 1
 1300 250 l 1
 1000 250 l 1
 1000 350 l 1
 1300 350 l 1
 1300 500 l 1
 900 500 l 1
 900 600 l 1
 1400 600 l 1
 1500 500 l 1
 1500 350 l 1
 1450 300 l 1
 1500 250 l 1
 1500 100 l 1
 1400 0 l 1
 900 0 l 1
EndSplineSet
Validated: 1
EndChar

StartChar: uni2155
Encoding: 476 8533 476
Width: 1600
VWidth: 1000
Flags: HMW
LayerCount: 2
Fore
SplineSet
100 800 m 1
 100 900 l 1
 300 900 l 1
 300 1200 l 1
 100 1200 l 1
 100 1300 l 1
 300 1300 l 1
 300 1400 l 1
 500 1400 l 1
 500 900 l 1
 700 900 l 1
 700 800 l 1
 100 800 l 1
300 0 m 1
 1100 1400 l 1
 1300 1400 l 1
 500 0 l 1
 300 0 l 1
900 0 m 1
 900 100 l 1
 1300 100 l 1
 1300 300 l 1
 900 300 l 1
 900 600 l 1
 1500 600 l 1
 1500 500 l 1
 1100 500 l 1
 1100 400 l 1
 1400 400 l 1
 1500 300 l 1
 1500 100 l 1
 1400 0 l 1
 900 0 l 1
EndSplineSet
Validated: 1
EndChar

StartChar: uni2156
Encoding: 477 8534 477
Width: 1600
VWidth: 1000
Flags: HMW
LayerCount: 2
Fore
SplineSet
100 800 m 1
 100 950 l 1
 200 1050 l 1
 500 1200 l 1
 500 1300 l 1
 100 1300 l 1
 100 1400 l 1
 600 1400 l 1
 700 1300 l 1
 700 1200 l 1
 600 1100 l 1
 300 950 l 1
 300 900 l 1
 700 900 l 1
 700 800 l 1
 100 800 l 1
300 0 m 1
 1100 1400 l 1
 1300 1400 l 1
 500 0 l 1
 300 0 l 1
900 0 m 1
 900 100 l 1
 1300 100 l 1
 1300 300 l 1
 900 300 l 1
 900 600 l 1
 1500 600 l 1
 1500 500 l 1
 1100 500 l 1
 1100 400 l 1
 1400 400 l 1
 1500 300 l 1
 1500 100 l 1
 1400 0 l 1
 900 0 l 1
EndSplineSet
Validated: 1
EndChar

StartChar: uni2157
Encoding: 478 8535 478
Width: 1600
VWidth: 1000
Flags: HMW
LayerCount: 2
Fore
SplineSet
100 800 m 1
 100 900 l 1
 500 900 l 1
 500 1050 l 1
 200 1050 l 1
 200 1150 l 1
 500 1150 l 1
 500 1300 l 1
 100 1300 l 1
 100 1400 l 1
 600 1400 l 1
 700 1300 l 1
 700 1150 l 1
 650 1100 l 1
 700 1050 l 1
 700 900 l 1
 600 800 l 1
 100 800 l 1
300 0 m 1
 1100 1400 l 1
 1300 1400 l 1
 500 0 l 1
 300 0 l 1
900 0 m 1
 900 100 l 1
 1300 100 l 1
 1300 300 l 1
 900 300 l 1
 900 600 l 1
 1500 600 l 1
 1500 500 l 1
 1100 500 l 1
 1100 400 l 1
 1400 400 l 1
 1500 300 l 1
 1500 100 l 1
 1400 0 l 1
 900 0 l 1
EndSplineSet
Validated: 1
EndChar

StartChar: uni2158
Encoding: 479 8536 479
Width: 1600
VWidth: 1000
Flags: HMW
LayerCount: 2
Fore
SplineSet
100 900 m 1
 100 1100 l 1
 400 1400 l 1
 600 1400 l 1
 600 1000 l 1
 700 1000 l 1
 700 900 l 1
 600 900 l 1
 600 800 l 1
 400 800 l 1
 400 900 l 1
 100 900 l 1
300 0 m 1
 1100 1400 l 1
 1300 1400 l 1
 500 0 l 1
 300 0 l 1
300 1000 m 1
 400 1000 l 1
 400 1200 l 1
 300 1100 l 1
 300 1000 l 1
900 0 m 1
 900 100 l 1
 1300 100 l 1
 1300 300 l 1
 900 300 l 1
 900 600 l 1
 1500 600 l 1
 1500 500 l 1
 1100 500 l 1
 1100 400 l 1
 1400 400 l 1
 1500 300 l 1
 1500 100 l 1
 1400 0 l 1
 900 0 l 1
EndSplineSet
Validated: 1
EndChar

StartChar: uni2159
Encoding: 480 8537 480
Width: 1600
VWidth: 1000
Flags: HMW
LayerCount: 2
Fore
SplineSet
100 800 m 1
 100 900 l 1
 300 900 l 1
 300 1200 l 1
 100 1200 l 1
 100 1300 l 1
 300 1300 l 1
 300 1400 l 1
 500 1400 l 1
 500 900 l 1
 700 900 l 1
 700 800 l 1
 100 800 l 1
300 0 m 1
 1100 1400 l 1
 1300 1400 l 1
 500 0 l 1
 300 0 l 1
900 100 m 1
 900 500 l 1
 1000 600 l 1
 1400 600 l 1
 1400 500 l 1
 1100 500 l 1
 1100 350 l 1
 1400 350 l 1
 1500 250 l 1
 1500 100 l 1
 1400 0 l 1
 1000 0 l 1
 900 100 l 1
1100 100 m 1
 1300 100 l 1
 1300 250 l 1
 1100 250 l 1
 1100 100 l 1
EndSplineSet
Validated: 1
EndChar

StartChar: uni215A
Encoding: 481 8538 481
Width: 1600
VWidth: 1000
Flags: HMW
LayerCount: 2
Fore
SplineSet
100 800 m 1
 100 900 l 1
 500 900 l 1
 500 1100 l 1
 100 1100 l 1
 100 1400 l 1
 700 1400 l 1
 700 1300 l 1
 300 1300 l 1
 300 1200 l 1
 600 1200 l 1
 700 1100 l 1
 700 900 l 1
 600 800 l 1
 100 800 l 1
300 0 m 1
 1100 1400 l 1
 1300 1400 l 1
 500 0 l 1
 300 0 l 1
900 100 m 1
 900 500 l 1
 1000 600 l 1
 1400 600 l 1
 1400 500 l 1
 1100 500 l 1
 1100 350 l 1
 1400 350 l 1
 1500 250 l 1
 1500 100 l 1
 1400 0 l 1
 1000 0 l 1
 900 100 l 1
1100 100 m 1
 1300 100 l 1
 1300 250 l 1
 1100 250 l 1
 1100 100 l 1
EndSplineSet
Validated: 1
EndChar

StartChar: oneeighth
Encoding: 482 8539 482
Width: 1600
VWidth: 1000
Flags: HMW
LayerCount: 2
Fore
SplineSet
100 800 m 1
 100 900 l 1
 300 900 l 1
 300 1200 l 1
 100 1200 l 1
 100 1300 l 1
 300 1300 l 1
 300 1400 l 1
 500 1400 l 1
 500 900 l 1
 700 900 l 1
 700 800 l 1
 100 800 l 1
300 0 m 1
 1100 1400 l 1
 1300 1400 l 1
 500 0 l 1
 300 0 l 1
900 100 m 1
 900 250 l 1
 950 300 l 1
 900 350 l 1
 900 500 l 1
 1000 600 l 1
 1400 600 l 1
 1500 500 l 1
 1500 350 l 1
 1450 300 l 1
 1500 250 l 1
 1500 100 l 1
 1400 0 l 1
 1000 0 l 1
 900 100 l 1
1100 100 m 1
 1300 100 l 1
 1300 250 l 1
 1100 250 l 1
 1100 100 l 1
1100 350 m 1
 1300 350 l 1
 1300 500 l 1
 1100 500 l 1
 1100 350 l 1
EndSplineSet
Validated: 1
EndChar

StartChar: threeeighths
Encoding: 483 8540 483
Width: 1600
VWidth: 1000
Flags: HMW
LayerCount: 2
Fore
SplineSet
100 800 m 1
 100 900 l 1
 500 900 l 1
 500 1050 l 1
 200 1050 l 1
 200 1150 l 1
 500 1150 l 1
 500 1300 l 1
 100 1300 l 1
 100 1400 l 1
 600 1400 l 1
 700 1300 l 1
 700 1150 l 1
 650 1100 l 1
 700 1050 l 1
 700 900 l 1
 600 800 l 1
 100 800 l 1
300 0 m 1
 1100 1400 l 1
 1300 1400 l 1
 500 0 l 1
 300 0 l 1
900 100 m 1
 900 250 l 1
 950 300 l 1
 900 350 l 1
 900 500 l 1
 1000 600 l 1
 1400 600 l 1
 1500 500 l 1
 1500 350 l 1
 1450 300 l 1
 1500 250 l 1
 1500 100 l 1
 1400 0 l 1
 1000 0 l 1
 900 100 l 1
1100 100 m 1
 1300 100 l 1
 1300 250 l 1
 1100 250 l 1
 1100 100 l 1
1100 350 m 1
 1300 350 l 1
 1300 500 l 1
 1100 500 l 1
 1100 350 l 1
EndSplineSet
Validated: 1
EndChar

StartChar: fiveeighths
Encoding: 484 8541 484
Width: 1600
VWidth: 1000
Flags: HMW
LayerCount: 2
Fore
SplineSet
100 800 m 1
 100 900 l 1
 500 900 l 1
 500 1100 l 1
 100 1100 l 1
 100 1400 l 1
 700 1400 l 1
 700 1300 l 1
 300 1300 l 1
 300 1200 l 1
 600 1200 l 1
 700 1100 l 1
 700 900 l 1
 600 800 l 1
 100 800 l 1
300 0 m 1
 1100 1400 l 1
 1300 1400 l 1
 500 0 l 1
 300 0 l 1
900 100 m 1
 900 250 l 1
 950 300 l 1
 900 350 l 1
 900 500 l 1
 1000 600 l 1
 1400 600 l 1
 1500 500 l 1
 1500 350 l 1
 1450 300 l 1
 1500 250 l 1
 1500 100 l 1
 1400 0 l 1
 1000 0 l 1
 900 100 l 1
1100 100 m 1
 1300 100 l 1
 1300 250 l 1
 1100 250 l 1
 1100 100 l 1
1100 350 m 1
 1300 350 l 1
 1300 500 l 1
 1100 500 l 1
 1100 350 l 1
EndSplineSet
Validated: 1
EndChar

StartChar: seveneighths
Encoding: 485 8542 485
Width: 1600
VWidth: 1000
Flags: HMW
LayerCount: 2
Fore
SplineSet
100 1300 m 1
 100 1400 l 1
 700 1400 l 1
 700 1200 l 1
 500 1000 l 1
 500 800 l 1
 300 800 l 1
 300 1000 l 1
 500 1200 l 1
 500 1300 l 1
 100 1300 l 1
300 0 m 1
 1100 1400 l 1
 1300 1400 l 1
 500 0 l 1
 300 0 l 1
900 100 m 1
 900 250 l 1
 950 300 l 1
 900 350 l 1
 900 500 l 1
 1000 600 l 1
 1400 600 l 1
 1500 500 l 1
 1500 350 l 1
 1450 300 l 1
 1500 250 l 1
 1500 100 l 1
 1400 0 l 1
 1000 0 l 1
 900 100 l 1
1100 100 m 1
 1300 100 l 1
 1300 250 l 1
 1100 250 l 1
 1100 100 l 1
1100 350 m 1
 1300 350 l 1
 1300 500 l 1
 1100 500 l 1
 1100 350 l 1
EndSplineSet
Validated: 1
EndChar

StartChar: uni2189
Encoding: 486 8585 486
Width: 1600
VWidth: 1000
Flags: HMW
LayerCount: 2
Fore
SplineSet
100 900 m 1
 100 1300 l 1
 200 1400 l 1
 600 1400 l 1
 700 1300 l 1
 700 900 l 1
 600 800 l 1
 200 800 l 1
 100 900 l 1
300 0 m 1
 1100 1400 l 1
 1300 1400 l 1
 500 0 l 1
 300 0 l 1
300 900 m 1
 500 900 l 1
 300 1100 l 1
 300 900 l 1
300 1300 m 1
 500 1100 l 1
 500 1300 l 1
 300 1300 l 1
900 0 m 1
 900 100 l 1
 1300 100 l 1
 1300 250 l 1
 1000 250 l 1
 1000 350 l 1
 1300 350 l 1
 1300 500 l 1
 900 500 l 1
 900 600 l 1
 1400 600 l 1
 1500 500 l 1
 1500 350 l 1
 1450 300 l 1
 1500 250 l 1
 1500 100 l 1
 1400 0 l 1
 900 0 l 1
EndSplineSet
Validated: 1
EndChar

StartChar: uni2105
Encoding: 487 8453 487
Width: 1600
VWidth: 1000
Flags: HMW
LayerCount: 2
Fore
SplineSet
100 900 m 1
 100 1300 l 1
 200 1400 l 1
 600 1400 l 1
 700 1300 l 1
 700 1200 l 1
 500 1200 l 1
 500 1300 l 1
 300 1300 l 1
 300 900 l 1
 500 900 l 1
 500 1000 l 1
 700 1000 l 1
 700 900 l 1
 600 800 l 1
 200 800 l 1
 100 900 l 1
300 0 m 1
 1100 1400 l 1
 1300 1400 l 1
 500 0 l 1
 300 0 l 1
900 100 m 1
 900 500 l 1
 1000 600 l 1
 1400 600 l 1
 1500 500 l 1
 1500 100 l 1
 1400 0 l 1
 1000 0 l 1
 900 100 l 1
1100 100 m 1
 1300 100 l 1
 1300 500 l 1
 1100 500 l 1
 1100 100 l 1
EndSplineSet
Validated: 1
EndChar

StartChar: uni2116
Encoding: 488 8470 488
Width: 1600
VWidth: 1000
Flags: HMW
LayerCount: 2
Fore
SplineSet
100 0 m 1
 100 1400 l 1
 300 1400 l 1
 300 950 l 1
 500 750 l 1
 500 1400 l 1
 700 1400 l 1
 700 0 l 1
 500 0 l 1
 500 450 l 1
 300 650 l 1
 300 0 l 1
 100 0 l 1
900 0 m 1
 900 200 l 1
 1500 200 l 1
 1500 0 l 1
 900 0 l 1
900 600 m 1
 900 1200 l 1
 1100 1400 l 1
 1300 1400 l 1
 1500 1200 l 1
 1500 600 l 1
 1300 400 l 1
 1100 400 l 1
 900 600 l 1
1100 700 m 1
 1200 600 l 1
 1300 700 l 1
 1300 1100 l 1
 1200 1200 l 1
 1100 1100 l 1
 1100 700 l 1
EndSplineSet
Validated: 1
EndChar

StartChar: uni2117
Encoding: 489 8471 489
Width: 1600
VWidth: 1000
Flags: HMW
LayerCount: 2
Fore
SplineSet
200 300 m 1
 200 1100 l 1
 500 1400 l 1
 1100 1400 l 1
 1400 1100 l 1
 1400 300 l 1
 1100 0 l 1
 500 0 l 1
 200 300 l 1
400 200 m 1
 600 200 l 1
 600 600 l 1
 1000 600 l 1
 1200 800 l 1
 1200 1000 l 1
 1000 1200 l 1
 400 1200 l 1
 400 200 l 1
600 800 m 1
 600 1000 l 1
 900 1000 l 1
 1000 900 l 1
 900 800 l 1
 600 800 l 1
EndSplineSet
Validated: 1
EndChar

StartChar: uniE300
Encoding: 490 58112 490
Width: 1600
VWidth: 1000
Flags: HMW
LayerCount: 2
Fore
SplineSet
100 900 m 1
 100 1300 l 1
 200 1400 l 1
 600 1400 l 1
 700 1300 l 1
 700 900 l 1
 600 800 l 1
 200 800 l 1
 100 900 l 1
300 900 m 1
 500 900 l 1
 300 1100 l 1
 300 900 l 1
300 1300 m 1
 500 1100 l 1
 500 1300 l 1
 300 1300 l 1
900 900 m 1
 900 1300 l 1
 1000 1400 l 1
 1400 1400 l 1
 1500 1300 l 1
 1500 900 l 1
 1400 800 l 1
 1000 800 l 1
 900 900 l 1
1100 900 m 1
 1300 900 l 1
 1100 1100 l 1
 1100 900 l 1
1100 1300 m 1
 1300 1100 l 1
 1300 1300 l 1
 1100 1300 l 1
EndSplineSet
Validated: 1
EndChar

StartChar: uniE301
Encoding: 491 58113 491
Width: 1600
VWidth: 1000
Flags: HMW
LayerCount: 2
Fore
SplineSet
100 900 m 1
 100 1300 l 1
 200 1400 l 1
 600 1400 l 1
 700 1300 l 1
 700 900 l 1
 600 800 l 1
 200 800 l 1
 100 900 l 1
300 900 m 1
 500 900 l 1
 300 1100 l 1
 300 900 l 1
300 1300 m 1
 500 1100 l 1
 500 1300 l 1
 300 1300 l 1
900 800 m 1
 900 900 l 1
 1100 900 l 1
 1100 1200 l 1
 900 1200 l 1
 900 1300 l 1
 1100 1300 l 1
 1100 1400 l 1
 1300 1400 l 1
 1300 900 l 1
 1500 900 l 1
 1500 800 l 1
 900 800 l 1
EndSplineSet
Validated: 1
EndChar

StartChar: uniE302
Encoding: 492 58114 492
Width: 1600
VWidth: 1000
Flags: HMW
LayerCount: 2
Fore
SplineSet
100 900 m 1
 100 1300 l 1
 200 1400 l 1
 600 1400 l 1
 700 1300 l 1
 700 900 l 1
 600 800 l 1
 200 800 l 1
 100 900 l 1
300 900 m 1
 500 900 l 1
 300 1100 l 1
 300 900 l 1
300 1300 m 1
 500 1100 l 1
 500 1300 l 1
 300 1300 l 1
900 800 m 1
 900 950 l 1
 1000 1050 l 1
 1300 1200 l 1
 1300 1300 l 1
 900 1300 l 1
 900 1400 l 1
 1400 1400 l 1
 1500 1300 l 1
 1500 1200 l 1
 1400 1100 l 1
 1100 950 l 1
 1100 900 l 1
 1500 900 l 1
 1500 800 l 1
 900 800 l 1
EndSplineSet
Validated: 1
EndChar

StartChar: uniE303
Encoding: 493 58115 493
Width: 1600
VWidth: 1000
Flags: HMW
LayerCount: 2
Fore
SplineSet
100 900 m 1
 100 1300 l 1
 200 1400 l 1
 600 1400 l 1
 700 1300 l 1
 700 900 l 1
 600 800 l 1
 200 800 l 1
 100 900 l 1
300 900 m 1
 500 900 l 1
 300 1100 l 1
 300 900 l 1
300 1300 m 1
 500 1100 l 1
 500 1300 l 1
 300 1300 l 1
900 800 m 1
 900 900 l 1
 1300 900 l 1
 1300 1050 l 1
 1000 1050 l 1
 1000 1150 l 1
 1300 1150 l 1
 1300 1300 l 1
 900 1300 l 1
 900 1400 l 1
 1400 1400 l 1
 1500 1300 l 1
 1500 1150 l 1
 1450 1100 l 1
 1500 1050 l 1
 1500 900 l 1
 1400 800 l 1
 900 800 l 1
EndSplineSet
Validated: 1
EndChar

StartChar: uniE304
Encoding: 494 58116 494
Width: 1600
VWidth: 1000
Flags: HMW
LayerCount: 2
Fore
SplineSet
100 900 m 1
 100 1300 l 1
 200 1400 l 1
 600 1400 l 1
 700 1300 l 1
 700 900 l 1
 600 800 l 1
 200 800 l 1
 100 900 l 1
300 900 m 1
 500 900 l 1
 300 1100 l 1
 300 900 l 1
300 1300 m 1
 500 1100 l 1
 500 1300 l 1
 300 1300 l 1
900 900 m 1
 900 1100 l 1
 1200 1400 l 1
 1400 1400 l 1
 1400 1000 l 1
 1500 1000 l 1
 1500 900 l 1
 1400 900 l 1
 1400 800 l 1
 1200 800 l 1
 1200 900 l 1
 900 900 l 1
1100 1000 m 1
 1200 1000 l 1
 1200 1200 l 1
 1100 1100 l 1
 1100 1000 l 1
EndSplineSet
Validated: 1
EndChar

StartChar: uniE305
Encoding: 495 58117 495
Width: 1600
VWidth: 1000
Flags: HMW
LayerCount: 2
Fore
SplineSet
100 900 m 1
 100 1300 l 1
 200 1400 l 1
 600 1400 l 1
 700 1300 l 1
 700 900 l 1
 600 800 l 1
 200 800 l 1
 100 900 l 1
300 900 m 1
 500 900 l 1
 300 1100 l 1
 300 900 l 1
300 1300 m 1
 500 1100 l 1
 500 1300 l 1
 300 1300 l 1
900 800 m 1
 900 900 l 1
 1300 900 l 1
 1300 1100 l 1
 900 1100 l 1
 900 1400 l 1
 1500 1400 l 1
 1500 1300 l 1
 1100 1300 l 1
 1100 1200 l 1
 1400 1200 l 1
 1500 1100 l 1
 1500 900 l 1
 1400 800 l 1
 900 800 l 1
EndSplineSet
Validated: 1
EndChar

StartChar: uniE306
Encoding: 496 58118 496
Width: 1600
VWidth: 1000
Flags: HMW
LayerCount: 2
Fore
SplineSet
100 900 m 1
 100 1300 l 1
 200 1400 l 1
 600 1400 l 1
 700 1300 l 1
 700 900 l 1
 600 800 l 1
 200 800 l 1
 100 900 l 1
300 900 m 1
 500 900 l 1
 300 1100 l 1
 300 900 l 1
300 1300 m 1
 500 1100 l 1
 500 1300 l 1
 300 1300 l 1
900 900 m 1
 900 1300 l 1
 1000 1400 l 1
 1400 1400 l 1
 1400 1300 l 1
 1100 1300 l 1
 1100 1150 l 1
 1400 1150 l 1
 1500 1050 l 1
 1500 900 l 1
 1400 800 l 1
 1000 800 l 1
 900 900 l 1
1100 900 m 1
 1300 900 l 1
 1300 1050 l 1
 1100 1050 l 1
 1100 900 l 1
EndSplineSet
Validated: 1
EndChar

StartChar: uniE307
Encoding: 497 58119 497
Width: 1600
VWidth: 1000
Flags: HMW
LayerCount: 2
Fore
SplineSet
100 900 m 1
 100 1300 l 1
 200 1400 l 1
 600 1400 l 1
 700 1300 l 1
 700 900 l 1
 600 800 l 1
 200 800 l 1
 100 900 l 1
300 900 m 1
 500 900 l 1
 300 1100 l 1
 300 900 l 1
300 1300 m 1
 500 1100 l 1
 500 1300 l 1
 300 1300 l 1
900 1300 m 1
 900 1400 l 1
 1500 1400 l 1
 1500 1200 l 1
 1300 1000 l 1
 1300 800 l 1
 1100 800 l 1
 1100 1000 l 1
 1300 1200 l 1
 1300 1300 l 1
 900 1300 l 1
EndSplineSet
Validated: 1
EndChar

StartChar: uniE308
Encoding: 498 58120 498
Width: 1600
VWidth: 1000
Flags: HMW
LayerCount: 2
Fore
SplineSet
100 900 m 1
 100 1300 l 1
 200 1400 l 1
 600 1400 l 1
 700 1300 l 1
 700 900 l 1
 600 800 l 1
 200 800 l 1
 100 900 l 1
300 900 m 1
 500 900 l 1
 300 1100 l 1
 300 900 l 1
300 1300 m 1
 500 1100 l 1
 500 1300 l 1
 300 1300 l 1
900 900 m 1
 900 1050 l 1
 950 1100 l 1
 900 1150 l 1
 900 1300 l 1
 1000 1400 l 1
 1400 1400 l 1
 1500 1300 l 1
 1500 1150 l 1
 1450 1100 l 1
 1500 1050 l 1
 1500 900 l 1
 1400 800 l 1
 1000 800 l 1
 900 900 l 1
1100 900 m 1
 1300 900 l 1
 1300 1050 l 1
 1100 1050 l 1
 1100 900 l 1
1100 1150 m 1
 1300 1150 l 1
 1300 1300 l 1
 1100 1300 l 1
 1100 1150 l 1
EndSplineSet
Validated: 1
EndChar

StartChar: uniE309
Encoding: 499 58121 499
Width: 1600
VWidth: 1000
Flags: HMW
LayerCount: 2
Fore
SplineSet
100 900 m 1
 100 1300 l 1
 200 1400 l 1
 600 1400 l 1
 700 1300 l 1
 700 900 l 1
 600 800 l 1
 200 800 l 1
 100 900 l 1
300 900 m 1
 500 900 l 1
 300 1100 l 1
 300 900 l 1
300 1300 m 1
 500 1100 l 1
 500 1300 l 1
 300 1300 l 1
900 1150 m 1
 900 1300 l 1
 1000 1400 l 1
 1400 1400 l 1
 1500 1300 l 1
 1500 900 l 1
 1400 800 l 1
 1000 800 l 1
 1000 900 l 1
 1300 900 l 1
 1300 1050 l 1
 1000 1050 l 1
 900 1150 l 1
1100 1150 m 1
 1300 1150 l 1
 1300 1300 l 1
 1100 1300 l 1
 1100 1150 l 1
EndSplineSet
Validated: 1
EndChar

StartChar: uniE310
Encoding: 500 58128 500
Width: 1600
VWidth: 1000
Flags: HMW
LayerCount: 2
Fore
SplineSet
100 800 m 1
 100 900 l 1
 300 900 l 1
 300 1200 l 1
 100 1200 l 1
 100 1300 l 1
 300 1300 l 1
 300 1400 l 1
 500 1400 l 1
 500 900 l 1
 700 900 l 1
 700 800 l 1
 100 800 l 1
900 900 m 1
 900 1300 l 1
 1000 1400 l 1
 1400 1400 l 1
 1500 1300 l 1
 1500 900 l 1
 1400 800 l 1
 1000 800 l 1
 900 900 l 1
1100 900 m 1
 1300 900 l 1
 1100 1100 l 1
 1100 900 l 1
1100 1300 m 1
 1300 1100 l 1
 1300 1300 l 1
 1100 1300 l 1
EndSplineSet
Validated: 1
EndChar

StartChar: uniE311
Encoding: 501 58129 501
Width: 1600
VWidth: 1000
Flags: HMW
LayerCount: 2
Fore
SplineSet
100 800 m 1
 100 900 l 1
 300 900 l 1
 300 1200 l 1
 100 1200 l 1
 100 1300 l 1
 300 1300 l 1
 300 1400 l 1
 500 1400 l 1
 500 900 l 1
 700 900 l 1
 700 800 l 1
 100 800 l 1
900 800 m 1
 900 900 l 1
 1100 900 l 1
 1100 1200 l 1
 900 1200 l 1
 900 1300 l 1
 1100 1300 l 1
 1100 1400 l 1
 1300 1400 l 1
 1300 900 l 1
 1500 900 l 1
 1500 800 l 1
 900 800 l 1
EndSplineSet
Validated: 1
EndChar

StartChar: uniE312
Encoding: 502 58130 502
Width: 1600
VWidth: 1000
Flags: HMW
LayerCount: 2
Fore
SplineSet
100 800 m 1
 100 900 l 1
 300 900 l 1
 300 1200 l 1
 100 1200 l 1
 100 1300 l 1
 300 1300 l 1
 300 1400 l 1
 500 1400 l 1
 500 900 l 1
 700 900 l 1
 700 800 l 1
 100 800 l 1
900 800 m 1
 900 950 l 1
 1000 1050 l 1
 1300 1200 l 1
 1300 1300 l 1
 900 1300 l 1
 900 1400 l 1
 1400 1400 l 1
 1500 1300 l 1
 1500 1200 l 1
 1400 1100 l 1
 1100 950 l 1
 1100 900 l 1
 1500 900 l 1
 1500 800 l 1
 900 800 l 1
EndSplineSet
Validated: 1
EndChar

StartChar: uniE313
Encoding: 503 58131 503
Width: 1600
VWidth: 1000
Flags: HMW
LayerCount: 2
Fore
SplineSet
100 800 m 1
 100 900 l 1
 300 900 l 1
 300 1200 l 1
 100 1200 l 1
 100 1300 l 1
 300 1300 l 1
 300 1400 l 1
 500 1400 l 1
 500 900 l 1
 700 900 l 1
 700 800 l 1
 100 800 l 1
900 800 m 1
 900 900 l 1
 1300 900 l 1
 1300 1050 l 1
 1000 1050 l 1
 1000 1150 l 1
 1300 1150 l 1
 1300 1300 l 1
 900 1300 l 1
 900 1400 l 1
 1400 1400 l 1
 1500 1300 l 1
 1500 1150 l 1
 1450 1100 l 1
 1500 1050 l 1
 1500 900 l 1
 1400 800 l 1
 900 800 l 1
EndSplineSet
Validated: 1
EndChar

StartChar: uniE314
Encoding: 504 58132 504
Width: 1600
VWidth: 1000
Flags: HMW
LayerCount: 2
Fore
SplineSet
100 800 m 1
 100 900 l 1
 300 900 l 1
 300 1200 l 1
 100 1200 l 1
 100 1300 l 1
 300 1300 l 1
 300 1400 l 1
 500 1400 l 1
 500 900 l 1
 700 900 l 1
 700 800 l 1
 100 800 l 1
900 900 m 1
 900 1100 l 1
 1200 1400 l 1
 1400 1400 l 1
 1400 1000 l 1
 1500 1000 l 1
 1500 900 l 1
 1400 900 l 1
 1400 800 l 1
 1200 800 l 1
 1200 900 l 1
 900 900 l 1
1100 1000 m 1
 1200 1000 l 1
 1200 1200 l 1
 1100 1100 l 1
 1100 1000 l 1
EndSplineSet
Validated: 1
EndChar

StartChar: uniE315
Encoding: 505 58133 505
Width: 1600
VWidth: 1000
Flags: HMW
LayerCount: 2
Fore
SplineSet
100 800 m 1
 100 900 l 1
 300 900 l 1
 300 1200 l 1
 100 1200 l 1
 100 1300 l 1
 300 1300 l 1
 300 1400 l 1
 500 1400 l 1
 500 900 l 1
 700 900 l 1
 700 800 l 1
 100 800 l 1
900 800 m 1
 900 900 l 1
 1300 900 l 1
 1300 1100 l 1
 900 1100 l 1
 900 1400 l 1
 1500 1400 l 1
 1500 1300 l 1
 1100 1300 l 1
 1100 1200 l 1
 1400 1200 l 1
 1500 1100 l 1
 1500 900 l 1
 1400 800 l 1
 900 800 l 1
EndSplineSet
Validated: 1
EndChar

StartChar: uniE316
Encoding: 506 58134 506
Width: 1600
VWidth: 1000
Flags: HMW
LayerCount: 2
Fore
SplineSet
100 800 m 1
 100 900 l 1
 300 900 l 1
 300 1200 l 1
 100 1200 l 1
 100 1300 l 1
 300 1300 l 1
 300 1400 l 1
 500 1400 l 1
 500 900 l 1
 700 900 l 1
 700 800 l 1
 100 800 l 1
900 900 m 1
 900 1300 l 1
 1000 1400 l 1
 1400 1400 l 1
 1400 1300 l 1
 1100 1300 l 1
 1100 1150 l 1
 1400 1150 l 1
 1500 1050 l 1
 1500 900 l 1
 1400 800 l 1
 1000 800 l 1
 900 900 l 1
1100 900 m 1
 1300 900 l 1
 1300 1050 l 1
 1100 1050 l 1
 1100 900 l 1
EndSplineSet
Validated: 1
EndChar

StartChar: uniE317
Encoding: 507 58135 507
Width: 1600
VWidth: 1000
Flags: HMW
LayerCount: 2
Fore
SplineSet
100 800 m 1
 100 900 l 1
 300 900 l 1
 300 1200 l 1
 100 1200 l 1
 100 1300 l 1
 300 1300 l 1
 300 1400 l 1
 500 1400 l 1
 500 900 l 1
 700 900 l 1
 700 800 l 1
 100 800 l 1
900 1300 m 1
 900 1400 l 1
 1500 1400 l 1
 1500 1200 l 1
 1300 1000 l 1
 1300 800 l 1
 1100 800 l 1
 1100 1000 l 1
 1300 1200 l 1
 1300 1300 l 1
 900 1300 l 1
EndSplineSet
Validated: 1
EndChar

StartChar: uniE318
Encoding: 508 58136 508
Width: 1600
VWidth: 1000
Flags: HMW
LayerCount: 2
Fore
SplineSet
100 800 m 1
 100 900 l 1
 300 900 l 1
 300 1200 l 1
 100 1200 l 1
 100 1300 l 1
 300 1300 l 1
 300 1400 l 1
 500 1400 l 1
 500 900 l 1
 700 900 l 1
 700 800 l 1
 100 800 l 1
900 900 m 1
 900 1050 l 1
 950 1100 l 1
 900 1150 l 1
 900 1300 l 1
 1000 1400 l 1
 1400 1400 l 1
 1500 1300 l 1
 1500 1150 l 1
 1450 1100 l 1
 1500 1050 l 1
 1500 900 l 1
 1400 800 l 1
 1000 800 l 1
 900 900 l 1
1100 900 m 1
 1300 900 l 1
 1300 1050 l 1
 1100 1050 l 1
 1100 900 l 1
1100 1150 m 1
 1300 1150 l 1
 1300 1300 l 1
 1100 1300 l 1
 1100 1150 l 1
EndSplineSet
Validated: 1
EndChar

StartChar: uniE319
Encoding: 509 58137 509
Width: 1600
VWidth: 1000
Flags: HMW
LayerCount: 2
Fore
SplineSet
100 800 m 1
 100 900 l 1
 300 900 l 1
 300 1200 l 1
 100 1200 l 1
 100 1300 l 1
 300 1300 l 1
 300 1400 l 1
 500 1400 l 1
 500 900 l 1
 700 900 l 1
 700 800 l 1
 100 800 l 1
900 1150 m 1
 900 1300 l 1
 1000 1400 l 1
 1400 1400 l 1
 1500 1300 l 1
 1500 900 l 1
 1400 800 l 1
 1000 800 l 1
 1000 900 l 1
 1300 900 l 1
 1300 1050 l 1
 1000 1050 l 1
 900 1150 l 1
1100 1150 m 1
 1300 1150 l 1
 1300 1300 l 1
 1100 1300 l 1
 1100 1150 l 1
EndSplineSet
Validated: 1
EndChar

StartChar: uniE320
Encoding: 510 58144 510
Width: 1600
VWidth: 1000
Flags: HMW
LayerCount: 2
Fore
SplineSet
100 800 m 1
 100 950 l 1
 200 1050 l 1
 500 1200 l 1
 500 1300 l 1
 100 1300 l 1
 100 1400 l 1
 600 1400 l 1
 700 1300 l 1
 700 1200 l 1
 600 1100 l 1
 300 950 l 1
 300 900 l 1
 700 900 l 1
 700 800 l 1
 100 800 l 1
900 900 m 1
 900 1300 l 1
 1000 1400 l 1
 1400 1400 l 1
 1500 1300 l 1
 1500 900 l 1
 1400 800 l 1
 1000 800 l 1
 900 900 l 1
1100 900 m 1
 1300 900 l 1
 1100 1100 l 1
 1100 900 l 1
1100 1300 m 1
 1300 1100 l 1
 1300 1300 l 1
 1100 1300 l 1
EndSplineSet
Validated: 1
EndChar

StartChar: uniE321
Encoding: 511 58145 511
Width: 1600
VWidth: 1000
Flags: HMW
LayerCount: 2
Fore
SplineSet
100 800 m 1
 100 950 l 1
 200 1050 l 1
 500 1200 l 1
 500 1300 l 1
 100 1300 l 1
 100 1400 l 1
 600 1400 l 1
 700 1300 l 1
 700 1200 l 1
 600 1100 l 1
 300 950 l 1
 300 900 l 1
 700 900 l 1
 700 800 l 1
 100 800 l 1
900 800 m 1
 900 900 l 1
 1100 900 l 1
 1100 1200 l 1
 900 1200 l 1
 900 1300 l 1
 1100 1300 l 1
 1100 1400 l 1
 1300 1400 l 1
 1300 900 l 1
 1500 900 l 1
 1500 800 l 1
 900 800 l 1
EndSplineSet
Validated: 1
EndChar

StartChar: uniE322
Encoding: 512 58146 512
Width: 1600
VWidth: 1000
Flags: HMW
LayerCount: 2
Fore
SplineSet
100 800 m 1
 100 950 l 1
 200 1050 l 1
 500 1200 l 1
 500 1300 l 1
 100 1300 l 1
 100 1400 l 1
 600 1400 l 1
 700 1300 l 1
 700 1200 l 1
 600 1100 l 1
 300 950 l 1
 300 900 l 1
 700 900 l 1
 700 800 l 1
 100 800 l 1
900 800 m 1
 900 950 l 1
 1000 1050 l 1
 1300 1200 l 1
 1300 1300 l 1
 900 1300 l 1
 900 1400 l 1
 1400 1400 l 1
 1500 1300 l 1
 1500 1200 l 1
 1400 1100 l 1
 1100 950 l 1
 1100 900 l 1
 1500 900 l 1
 1500 800 l 1
 900 800 l 1
EndSplineSet
Validated: 1
EndChar

StartChar: uniE323
Encoding: 513 58147 513
Width: 1600
VWidth: 1000
Flags: HMW
LayerCount: 2
Fore
SplineSet
100 800 m 1
 100 950 l 1
 200 1050 l 1
 500 1200 l 1
 500 1300 l 1
 100 1300 l 1
 100 1400 l 1
 600 1400 l 1
 700 1300 l 1
 700 1200 l 1
 600 1100 l 1
 300 950 l 1
 300 900 l 1
 700 900 l 1
 700 800 l 1
 100 800 l 1
900 800 m 1
 900 900 l 1
 1300 900 l 1
 1300 1050 l 1
 1000 1050 l 1
 1000 1150 l 1
 1300 1150 l 1
 1300 1300 l 1
 900 1300 l 1
 900 1400 l 1
 1400 1400 l 1
 1500 1300 l 1
 1500 1150 l 1
 1450 1100 l 1
 1500 1050 l 1
 1500 900 l 1
 1400 800 l 1
 900 800 l 1
EndSplineSet
Validated: 1
EndChar

StartChar: uniE324
Encoding: 514 58148 514
Width: 1600
VWidth: 1000
Flags: HMW
LayerCount: 2
Fore
SplineSet
100 800 m 1
 100 950 l 1
 200 1050 l 1
 500 1200 l 1
 500 1300 l 1
 100 1300 l 1
 100 1400 l 1
 600 1400 l 1
 700 1300 l 1
 700 1200 l 1
 600 1100 l 1
 300 950 l 1
 300 900 l 1
 700 900 l 1
 700 800 l 1
 100 800 l 1
900 900 m 1
 900 1100 l 1
 1200 1400 l 1
 1400 1400 l 1
 1400 1000 l 1
 1500 1000 l 1
 1500 900 l 1
 1400 900 l 1
 1400 800 l 1
 1200 800 l 1
 1200 900 l 1
 900 900 l 1
1100 1000 m 1
 1200 1000 l 1
 1200 1200 l 1
 1100 1100 l 1
 1100 1000 l 1
EndSplineSet
Validated: 1
EndChar

StartChar: uniE325
Encoding: 515 58149 515
Width: 1600
VWidth: 1000
Flags: HMW
LayerCount: 2
Fore
SplineSet
100 800 m 1
 100 950 l 1
 200 1050 l 1
 500 1200 l 1
 500 1300 l 1
 100 1300 l 1
 100 1400 l 1
 600 1400 l 1
 700 1300 l 1
 700 1200 l 1
 600 1100 l 1
 300 950 l 1
 300 900 l 1
 700 900 l 1
 700 800 l 1
 100 800 l 1
900 800 m 1
 900 900 l 1
 1300 900 l 1
 1300 1100 l 1
 900 1100 l 1
 900 1400 l 1
 1500 1400 l 1
 1500 1300 l 1
 1100 1300 l 1
 1100 1200 l 1
 1400 1200 l 1
 1500 1100 l 1
 1500 900 l 1
 1400 800 l 1
 900 800 l 1
EndSplineSet
Validated: 1
EndChar

StartChar: uniE326
Encoding: 516 58150 516
Width: 1600
VWidth: 1000
Flags: HMW
LayerCount: 2
Fore
SplineSet
100 800 m 1
 100 950 l 1
 200 1050 l 1
 500 1200 l 1
 500 1300 l 1
 100 1300 l 1
 100 1400 l 1
 600 1400 l 1
 700 1300 l 1
 700 1200 l 1
 600 1100 l 1
 300 950 l 1
 300 900 l 1
 700 900 l 1
 700 800 l 1
 100 800 l 1
900 900 m 1
 900 1300 l 1
 1000 1400 l 1
 1400 1400 l 1
 1400 1300 l 1
 1100 1300 l 1
 1100 1150 l 1
 1400 1150 l 1
 1500 1050 l 1
 1500 900 l 1
 1400 800 l 1
 1000 800 l 1
 900 900 l 1
1100 900 m 1
 1300 900 l 1
 1300 1050 l 1
 1100 1050 l 1
 1100 900 l 1
EndSplineSet
Validated: 1
EndChar

StartChar: uniE327
Encoding: 517 58151 517
Width: 1600
VWidth: 1000
Flags: HMW
LayerCount: 2
Fore
SplineSet
100 800 m 1
 100 950 l 1
 200 1050 l 1
 500 1200 l 1
 500 1300 l 1
 100 1300 l 1
 100 1400 l 1
 600 1400 l 1
 700 1300 l 1
 700 1200 l 1
 600 1100 l 1
 300 950 l 1
 300 900 l 1
 700 900 l 1
 700 800 l 1
 100 800 l 1
900 1300 m 1
 900 1400 l 1
 1500 1400 l 1
 1500 1200 l 1
 1300 1000 l 1
 1300 800 l 1
 1100 800 l 1
 1100 1000 l 1
 1300 1200 l 1
 1300 1300 l 1
 900 1300 l 1
EndSplineSet
Validated: 1
EndChar

StartChar: uniE328
Encoding: 518 58152 518
Width: 1600
VWidth: 1000
Flags: HMW
LayerCount: 2
Fore
SplineSet
100 800 m 1
 100 950 l 1
 200 1050 l 1
 500 1200 l 1
 500 1300 l 1
 100 1300 l 1
 100 1400 l 1
 600 1400 l 1
 700 1300 l 1
 700 1200 l 1
 600 1100 l 1
 300 950 l 1
 300 900 l 1
 700 900 l 1
 700 800 l 1
 100 800 l 1
900 900 m 1
 900 1050 l 1
 950 1100 l 1
 900 1150 l 1
 900 1300 l 1
 1000 1400 l 1
 1400 1400 l 1
 1500 1300 l 1
 1500 1150 l 1
 1450 1100 l 1
 1500 1050 l 1
 1500 900 l 1
 1400 800 l 1
 1000 800 l 1
 900 900 l 1
1100 900 m 1
 1300 900 l 1
 1300 1050 l 1
 1100 1050 l 1
 1100 900 l 1
1100 1150 m 1
 1300 1150 l 1
 1300 1300 l 1
 1100 1300 l 1
 1100 1150 l 1
EndSplineSet
Validated: 1
EndChar

StartChar: uniE329
Encoding: 519 58153 519
Width: 1600
VWidth: 1000
Flags: HMW
LayerCount: 2
Fore
SplineSet
100 800 m 1
 100 950 l 1
 200 1050 l 1
 500 1200 l 1
 500 1300 l 1
 100 1300 l 1
 100 1400 l 1
 600 1400 l 1
 700 1300 l 1
 700 1200 l 1
 600 1100 l 1
 300 950 l 1
 300 900 l 1
 700 900 l 1
 700 800 l 1
 100 800 l 1
900 1150 m 1
 900 1300 l 1
 1000 1400 l 1
 1400 1400 l 1
 1500 1300 l 1
 1500 900 l 1
 1400 800 l 1
 1000 800 l 1
 1000 900 l 1
 1300 900 l 1
 1300 1050 l 1
 1000 1050 l 1
 900 1150 l 1
1100 1150 m 1
 1300 1150 l 1
 1300 1300 l 1
 1100 1300 l 1
 1100 1150 l 1
EndSplineSet
Validated: 1
EndChar

StartChar: uniE330
Encoding: 520 58160 520
Width: 1600
VWidth: 1000
Flags: HMW
LayerCount: 2
Fore
SplineSet
100 800 m 1
 100 900 l 1
 500 900 l 1
 500 1050 l 1
 200 1050 l 1
 200 1150 l 1
 500 1150 l 1
 500 1300 l 1
 100 1300 l 1
 100 1400 l 1
 600 1400 l 1
 700 1300 l 1
 700 1150 l 1
 650 1100 l 1
 700 1050 l 1
 700 900 l 1
 600 800 l 1
 100 800 l 1
900 900 m 1
 900 1300 l 1
 1000 1400 l 1
 1400 1400 l 1
 1500 1300 l 1
 1500 900 l 1
 1400 800 l 1
 1000 800 l 1
 900 900 l 1
1100 900 m 1
 1300 900 l 1
 1100 1100 l 1
 1100 900 l 1
1100 1300 m 1
 1300 1100 l 1
 1300 1300 l 1
 1100 1300 l 1
EndSplineSet
Validated: 1
EndChar

StartChar: uniE331
Encoding: 521 58161 521
Width: 1600
VWidth: 1000
Flags: HMW
LayerCount: 2
Fore
SplineSet
100 800 m 1
 100 900 l 1
 500 900 l 1
 500 1050 l 1
 200 1050 l 1
 200 1150 l 1
 500 1150 l 1
 500 1300 l 1
 100 1300 l 1
 100 1400 l 1
 600 1400 l 1
 700 1300 l 1
 700 1150 l 1
 650 1100 l 1
 700 1050 l 1
 700 900 l 1
 600 800 l 1
 100 800 l 1
900 800 m 1
 900 900 l 1
 1100 900 l 1
 1100 1200 l 1
 900 1200 l 1
 900 1300 l 1
 1100 1300 l 1
 1100 1400 l 1
 1300 1400 l 1
 1300 900 l 1
 1500 900 l 1
 1500 800 l 1
 900 800 l 1
EndSplineSet
Validated: 1
EndChar

StartChar: uniE332
Encoding: 522 58162 522
Width: 1600
VWidth: 1000
Flags: HMW
LayerCount: 2
Fore
SplineSet
100 800 m 1
 100 900 l 1
 500 900 l 1
 500 1050 l 1
 200 1050 l 1
 200 1150 l 1
 500 1150 l 1
 500 1300 l 1
 100 1300 l 1
 100 1400 l 1
 600 1400 l 1
 700 1300 l 1
 700 1150 l 1
 650 1100 l 1
 700 1050 l 1
 700 900 l 1
 600 800 l 1
 100 800 l 1
900 800 m 1
 900 950 l 1
 1000 1050 l 1
 1300 1200 l 1
 1300 1300 l 1
 900 1300 l 1
 900 1400 l 1
 1400 1400 l 1
 1500 1300 l 1
 1500 1200 l 1
 1400 1100 l 1
 1100 950 l 1
 1100 900 l 1
 1500 900 l 1
 1500 800 l 1
 900 800 l 1
EndSplineSet
Validated: 1
EndChar

StartChar: uniE333
Encoding: 523 58163 523
Width: 1600
VWidth: 1000
Flags: HMW
LayerCount: 2
Fore
SplineSet
100 800 m 1
 100 900 l 1
 500 900 l 1
 500 1050 l 1
 200 1050 l 1
 200 1150 l 1
 500 1150 l 1
 500 1300 l 1
 100 1300 l 1
 100 1400 l 1
 600 1400 l 1
 700 1300 l 1
 700 1150 l 1
 650 1100 l 1
 700 1050 l 1
 700 900 l 1
 600 800 l 1
 100 800 l 1
900 800 m 1
 900 900 l 1
 1300 900 l 1
 1300 1050 l 1
 1000 1050 l 1
 1000 1150 l 1
 1300 1150 l 1
 1300 1300 l 1
 900 1300 l 1
 900 1400 l 1
 1400 1400 l 1
 1500 1300 l 1
 1500 1150 l 1
 1450 1100 l 1
 1500 1050 l 1
 1500 900 l 1
 1400 800 l 1
 900 800 l 1
EndSplineSet
Validated: 1
EndChar

